<svg width="1920" height="1080" viewBox="0 0 1920 1080" fill="none" xmlns="http://www.w3.org/2000/svg">
<rect width="1920" height="1080" fill="url(#paint0_linear_7901_4)"/>
<path d="M227.578 458.582H244.629C244.395 464.988 243.105 470.398 240.762 474.812C238.418 479.188 235.078 482.508 230.742 484.773C226.445 487.039 221.25 488.172 215.156 488.172C210.43 488.172 206.23 487.391 202.559 485.828C198.887 484.227 195.762 481.883 193.184 478.797C190.605 475.711 188.652 471.902 187.324 467.371C186.035 462.801 185.391 457.547 185.391 451.609V437.137C185.391 431.199 186.074 425.945 187.441 421.375C188.848 416.805 190.84 412.977 193.418 409.891C196.035 406.766 199.18 404.422 202.852 402.859C206.562 401.258 210.742 400.457 215.391 400.457C221.602 400.457 226.797 401.629 230.977 403.973C235.156 406.316 238.379 409.734 240.645 414.227C242.949 418.68 244.336 424.129 244.805 430.574H227.637C227.559 426.512 227.109 423.328 226.289 421.023C225.508 418.68 224.258 417.039 222.539 416.102C220.82 415.125 218.438 414.637 215.391 414.637C213.125 414.637 211.172 415.047 209.531 415.867C207.891 416.648 206.543 417.918 205.488 419.676C204.434 421.434 203.652 423.738 203.145 426.59C202.676 429.441 202.441 432.918 202.441 437.02V451.609C202.441 455.633 202.656 459.07 203.086 461.922C203.516 464.734 204.199 467.039 205.137 468.836C206.074 470.633 207.344 471.941 208.945 472.762C210.586 473.582 212.656 473.992 215.156 473.992C218.047 473.992 220.371 473.562 222.129 472.703C223.926 471.844 225.254 470.301 226.113 468.074C226.973 465.848 227.461 462.684 227.578 458.582ZM252.656 457.469V453.191C252.656 448.23 253.242 443.836 254.414 440.008C255.625 436.18 257.344 432.977 259.57 430.398C261.797 427.781 264.473 425.809 267.598 424.48C270.762 423.113 274.297 422.43 278.203 422.43C282.148 422.43 285.684 423.113 288.809 424.48C291.973 425.809 294.668 427.781 296.895 430.398C299.16 432.977 300.898 436.18 302.109 440.008C303.32 443.836 303.926 448.23 303.926 453.191V457.469C303.926 462.391 303.32 466.766 302.109 470.594C300.898 474.422 299.16 477.645 296.895 480.262C294.668 482.879 291.992 484.852 288.867 486.18C285.742 487.508 282.227 488.172 278.32 488.172C274.414 488.172 270.879 487.508 267.715 486.18C264.59 484.852 261.895 482.879 259.629 480.262C257.363 477.645 255.625 474.422 254.414 470.594C253.242 466.766 252.656 462.391 252.656 457.469ZM269.062 453.191V457.469C269.062 460.398 269.258 462.938 269.648 465.086C270.078 467.234 270.684 469.012 271.465 470.418C272.285 471.824 273.262 472.859 274.395 473.523C275.527 474.188 276.836 474.52 278.32 474.52C279.805 474.52 281.133 474.188 282.305 473.523C283.477 472.859 284.434 471.824 285.176 470.418C285.957 469.012 286.523 467.234 286.875 465.086C287.266 462.938 287.461 460.398 287.461 457.469V453.191C287.461 450.34 287.246 447.84 286.816 445.691C286.387 443.504 285.781 441.727 285 440.359C284.219 438.953 283.242 437.898 282.07 437.195C280.938 436.453 279.648 436.082 278.203 436.082C276.758 436.082 275.469 436.453 274.336 437.195C273.242 437.898 272.285 438.953 271.465 440.359C270.684 441.727 270.078 443.504 269.648 445.691C269.258 447.84 269.062 450.34 269.062 453.191ZM334.629 487H318.164V418.094C318.164 413.211 319.004 409.129 320.684 405.848C322.363 402.566 324.727 400.066 327.773 398.348C330.859 396.629 334.512 395.77 338.73 395.77C340.098 395.77 341.387 395.887 342.598 396.121C343.848 396.316 345.059 396.59 346.23 396.941L346.055 410.008C345.547 409.852 344.941 409.734 344.238 409.656C343.535 409.578 342.793 409.539 342.012 409.539C340.449 409.539 339.102 409.871 337.969 410.535C336.875 411.199 336.035 412.156 335.449 413.406C334.902 414.656 334.629 416.219 334.629 418.094V487ZM344.531 423.602V435.965H310.43V423.602H344.531ZM374.004 487H357.539V418.094C357.539 413.211 358.379 409.129 360.059 405.848C361.738 402.566 364.102 400.066 367.148 398.348C370.234 396.629 373.887 395.77 378.105 395.77C379.473 395.77 380.762 395.887 381.973 396.121C383.223 396.316 384.434 396.59 385.605 396.941L385.43 410.008C384.922 409.852 384.316 409.734 383.613 409.656C382.91 409.578 382.168 409.539 381.387 409.539C379.824 409.539 378.477 409.871 377.344 410.535C376.25 411.199 375.41 412.156 374.824 413.406C374.277 414.656 374.004 416.219 374.004 418.094V487ZM383.906 423.602V435.965H349.805V423.602H383.906ZM417.188 488.172C412.852 488.172 409.004 487.508 405.645 486.18C402.324 484.852 399.512 482.938 397.207 480.438C394.902 477.898 393.145 474.832 391.934 471.238C390.723 467.645 390.117 463.543 390.117 458.934V453.719C390.117 448.562 390.703 444.051 391.875 440.184C393.047 436.277 394.707 432.996 396.855 430.34C399.004 427.684 401.641 425.711 404.766 424.422C407.93 423.094 411.504 422.43 415.488 422.43C419.473 422.43 422.969 423.094 425.977 424.422C429.023 425.711 431.543 427.664 433.535 430.281C435.527 432.859 437.031 436.062 438.047 439.891C439.062 443.719 439.57 448.172 439.57 453.25V460.75H397.09V449.207H423.457V447.742C423.457 445.164 423.184 443.016 422.637 441.297C422.09 439.539 421.23 438.23 420.059 437.371C418.887 436.512 417.324 436.082 415.371 436.082C413.73 436.082 412.344 436.414 411.211 437.078C410.078 437.742 409.18 438.777 408.516 440.184C407.852 441.59 407.363 443.426 407.051 445.691C406.738 447.918 406.582 450.594 406.582 453.719V458.934C406.582 461.863 406.836 464.324 407.344 466.316C407.852 468.27 408.594 469.871 409.57 471.121C410.586 472.332 411.816 473.211 413.262 473.758C414.707 474.266 416.387 474.52 418.301 474.52C421.191 474.52 423.789 474.012 426.094 472.996C428.438 471.941 430.43 470.516 432.07 468.719L438.633 478.68C437.5 480.164 435.938 481.648 433.945 483.133C431.953 484.617 429.57 485.828 426.797 486.766C424.023 487.703 420.82 488.172 417.188 488.172ZM474.609 488.172C470.273 488.172 466.426 487.508 463.066 486.18C459.746 484.852 456.934 482.938 454.629 480.438C452.324 477.898 450.566 474.832 449.355 471.238C448.145 467.645 447.539 463.543 447.539 458.934V453.719C447.539 448.562 448.125 444.051 449.297 440.184C450.469 436.277 452.129 432.996 454.277 430.34C456.426 427.684 459.062 425.711 462.188 424.422C465.352 423.094 468.926 422.43 472.91 422.43C476.895 422.43 480.391 423.094 483.398 424.422C486.445 425.711 488.965 427.664 490.957 430.281C492.949 432.859 494.453 436.062 495.469 439.891C496.484 443.719 496.992 448.172 496.992 453.25V460.75H454.512V449.207H480.879V447.742C480.879 445.164 480.605 443.016 480.059 441.297C479.512 439.539 478.652 438.23 477.48 437.371C476.309 436.512 474.746 436.082 472.793 436.082C471.152 436.082 469.766 436.414 468.633 437.078C467.5 437.742 466.602 438.777 465.938 440.184C465.273 441.59 464.785 443.426 464.473 445.691C464.16 447.918 464.004 450.594 464.004 453.719V458.934C464.004 461.863 464.258 464.324 464.766 466.316C465.273 468.27 466.016 469.871 466.992 471.121C468.008 472.332 469.238 473.211 470.684 473.758C472.129 474.266 473.809 474.52 475.723 474.52C478.613 474.52 481.211 474.012 483.516 472.996C485.859 471.941 487.852 470.516 489.492 468.719L496.055 478.68C494.922 480.164 493.359 481.648 491.367 483.133C489.375 484.617 486.992 485.828 484.219 486.766C481.445 487.703 478.242 488.172 474.609 488.172ZM571.055 464.559C571.055 463.035 570.918 461.648 570.645 460.398C570.371 459.148 569.785 457.996 568.887 456.941C568.027 455.887 566.758 454.832 565.078 453.777C563.438 452.723 561.289 451.629 558.633 450.496C555.469 449.168 552.402 447.762 549.434 446.277C546.465 444.754 543.789 442.996 541.406 441.004C539.023 439.012 537.129 436.668 535.723 433.973C534.355 431.238 533.672 428.035 533.672 424.363C533.672 420.77 534.316 417.508 535.605 414.578C536.934 411.648 538.809 409.148 541.23 407.078C543.652 404.969 546.484 403.348 549.727 402.215C553.008 401.082 556.66 400.516 560.684 400.516C566.152 400.516 570.879 401.648 574.863 403.914C578.887 406.18 581.992 409.285 584.18 413.23C586.406 417.176 587.52 421.707 587.52 426.824H570.41C570.41 424.402 570.059 422.273 569.355 420.438C568.691 418.562 567.617 417.098 566.133 416.043C564.648 414.988 562.734 414.461 560.391 414.461C558.203 414.461 556.387 414.91 554.941 415.809C553.535 416.668 552.48 417.859 551.777 419.383C551.113 420.867 550.781 422.547 550.781 424.422C550.781 425.828 551.113 427.098 551.777 428.23C552.48 429.324 553.438 430.32 554.648 431.219C555.859 432.078 557.285 432.918 558.926 433.738C560.605 434.559 562.441 435.359 564.434 436.141C568.301 437.664 571.719 439.344 574.688 441.18C577.656 442.977 580.137 445.008 582.129 447.273C584.121 449.5 585.625 452.02 586.641 454.832C587.656 457.645 588.164 460.848 588.164 464.441C588.164 467.996 587.539 471.238 586.289 474.168C585.078 477.059 583.301 479.559 580.957 481.668C578.613 483.738 575.781 485.34 572.461 486.473C569.18 487.605 565.508 488.172 561.445 488.172C557.5 488.172 553.77 487.625 550.254 486.531C546.738 485.398 543.633 483.699 540.938 481.434C538.281 479.129 536.191 476.219 534.668 472.703C533.145 469.148 532.383 464.949 532.383 460.105H549.551C549.551 462.684 549.805 464.891 550.312 466.727C550.82 468.523 551.602 469.969 552.656 471.062C553.711 472.117 555 472.918 556.523 473.465C558.086 473.973 559.863 474.227 561.855 474.227C564.121 474.227 565.918 473.797 567.246 472.938C568.613 472.078 569.59 470.926 570.176 469.48C570.762 468.035 571.055 466.395 571.055 464.559ZM621.855 474.52C623.379 474.52 624.688 474.207 625.781 473.582C626.914 472.957 627.773 471.941 628.359 470.535C628.945 469.129 629.258 467.312 629.297 465.086H644.707C644.707 469.852 643.691 473.973 641.66 477.449C639.668 480.887 636.973 483.543 633.574 485.418C630.215 487.254 626.406 488.172 622.148 488.172C617.891 488.172 614.18 487.488 611.016 486.121C607.852 484.754 605.234 482.762 603.164 480.145C601.133 477.527 599.59 474.344 598.535 470.594C597.52 466.805 597.012 462.469 597.012 457.586V452.957C597.012 448.152 597.52 443.855 598.535 440.066C599.59 436.277 601.133 433.074 603.164 430.457C605.234 427.84 607.832 425.848 610.957 424.48C614.121 423.113 617.832 422.43 622.09 422.43C626.66 422.43 630.625 423.387 633.984 425.301C637.344 427.176 639.961 429.949 641.836 433.621C643.75 437.293 644.707 441.824 644.707 447.215H629.297C629.258 444.793 628.965 442.781 628.418 441.18C627.91 439.539 627.109 438.289 626.016 437.43C624.961 436.531 623.555 436.082 621.797 436.082C619.961 436.082 618.477 436.473 617.344 437.254C616.25 437.996 615.41 439.09 614.824 440.535C614.277 441.941 613.906 443.699 613.711 445.809C613.516 447.918 613.418 450.301 613.418 452.957V457.586C613.418 460.438 613.496 462.918 613.652 465.027C613.848 467.098 614.219 468.855 614.766 470.301C615.352 471.707 616.191 472.762 617.285 473.465C618.418 474.168 619.941 474.52 621.855 474.52ZM670.547 437.723V487H654.141V423.602H669.609L670.547 437.723ZM685.488 423.133L685.254 439.48C684.512 439.324 683.613 439.207 682.559 439.129C681.543 439.051 680.645 439.012 679.863 439.012C678.027 439.012 676.465 439.305 675.176 439.891C673.887 440.438 672.812 441.277 671.953 442.41C671.133 443.504 670.508 444.871 670.078 446.512C669.648 448.152 669.395 450.008 669.316 452.078L666.211 450.906C666.211 446.766 666.523 442.977 667.148 439.539C667.812 436.062 668.789 433.055 670.078 430.516C671.367 427.938 672.91 425.945 674.707 424.539C676.543 423.133 678.613 422.43 680.918 422.43C681.699 422.43 682.52 422.508 683.379 422.664C684.277 422.781 684.98 422.938 685.488 423.133ZM720.059 472.41V443.113C720.059 441.199 719.824 439.676 719.355 438.543C718.926 437.41 718.262 436.59 717.363 436.082C716.504 435.535 715.449 435.262 714.199 435.262C712.793 435.262 711.621 435.555 710.684 436.141C709.746 436.727 709.043 437.566 708.574 438.66C708.145 439.754 707.93 441.062 707.93 442.586H691.465C691.465 439.852 691.992 437.273 693.047 434.852C694.102 432.391 695.645 430.242 697.676 428.406C699.746 426.531 702.207 425.066 705.059 424.012C707.91 422.957 711.113 422.43 714.668 422.43C718.887 422.43 722.637 423.152 725.918 424.598C729.199 426.004 731.797 428.25 733.711 431.336C735.625 434.422 736.582 438.426 736.582 443.348V471.59C736.582 475.145 736.758 478.035 737.109 480.262C737.5 482.488 738.066 484.402 738.809 486.004V487H722.285C721.543 485.242 720.977 483.055 720.586 480.438C720.234 477.781 720.059 475.105 720.059 472.41ZM722.051 448.27L722.109 458.113H716.074C714.512 458.113 713.145 458.367 711.973 458.875C710.84 459.383 709.883 460.105 709.102 461.043C708.32 461.941 707.734 462.996 707.344 464.207C706.992 465.418 706.816 466.707 706.816 468.074C706.816 469.598 707.031 470.887 707.461 471.941C707.891 472.996 708.535 473.797 709.395 474.344C710.254 474.891 711.27 475.164 712.441 475.164C714.238 475.164 715.801 474.793 717.129 474.051C718.457 473.309 719.434 472.41 720.059 471.355C720.723 470.301 720.938 469.324 720.703 468.426L724.453 474.812C723.984 476.258 723.34 477.762 722.52 479.324C721.738 480.887 720.742 482.332 719.531 483.66C718.32 484.988 716.816 486.082 715.02 486.941C713.262 487.762 711.172 488.172 708.75 488.172C705.352 488.172 702.246 487.391 699.434 485.828C696.621 484.266 694.395 482.078 692.754 479.266C691.152 476.453 690.352 473.113 690.352 469.246C690.352 466.043 690.859 463.152 691.875 460.574C692.93 457.957 694.492 455.75 696.562 453.953C698.633 452.117 701.25 450.711 704.414 449.734C707.578 448.758 711.289 448.27 715.547 448.27H722.051ZM765.117 435.789V511.375H748.77V423.602H763.887L765.117 435.789ZM798.047 453.133V457.352C798.047 462.312 797.617 466.707 796.758 470.535C795.898 474.324 794.609 477.547 792.891 480.203C791.211 482.82 789.102 484.812 786.562 486.18C784.023 487.508 781.055 488.172 777.656 488.172C774.492 488.172 771.758 487.43 769.453 485.945C767.188 484.422 765.273 482.332 763.711 479.676C762.148 477.02 760.898 473.914 759.961 470.359C759.023 466.805 758.301 462.996 757.793 458.934V452.371C758.262 448.035 758.945 444.051 759.844 440.418C760.742 436.746 761.973 433.562 763.535 430.867C765.137 428.172 767.07 426.102 769.336 424.656C771.641 423.172 774.375 422.43 777.539 422.43C780.977 422.43 783.965 423.055 786.504 424.305C789.082 425.555 791.211 427.449 792.891 429.988C794.609 432.488 795.898 435.672 796.758 439.539C797.617 443.406 798.047 447.938 798.047 453.133ZM781.582 457.352V453.133C781.582 450.086 781.426 447.488 781.113 445.34C780.801 443.191 780.293 441.434 779.59 440.066C778.887 438.699 777.969 437.703 776.836 437.078C775.703 436.453 774.316 436.141 772.676 436.141C771.074 436.141 769.668 436.453 768.457 437.078C767.285 437.703 766.328 438.621 765.586 439.832C764.844 441.004 764.277 442.449 763.887 444.168C763.496 445.848 763.281 447.762 763.242 449.91V461.395C763.32 463.934 763.652 466.18 764.238 468.133C764.863 470.086 765.859 471.648 767.227 472.82C768.594 473.953 770.449 474.52 772.793 474.52C774.473 474.52 775.859 474.168 776.953 473.465C778.086 472.762 779.004 471.707 779.707 470.301C780.41 468.895 780.898 467.117 781.172 464.969C781.445 462.82 781.582 460.281 781.582 457.352ZM833.672 488.172C829.336 488.172 825.488 487.508 822.129 486.18C818.809 484.852 815.996 482.938 813.691 480.438C811.387 477.898 809.629 474.832 808.418 471.238C807.207 467.645 806.602 463.543 806.602 458.934V453.719C806.602 448.562 807.188 444.051 808.359 440.184C809.531 436.277 811.191 432.996 813.34 430.34C815.488 427.684 818.125 425.711 821.25 424.422C824.414 423.094 827.988 422.43 831.973 422.43C835.957 422.43 839.453 423.094 842.461 424.422C845.508 425.711 848.027 427.664 850.02 430.281C852.012 432.859 853.516 436.062 854.531 439.891C855.547 443.719 856.055 448.172 856.055 453.25V460.75H813.574V449.207H839.941V447.742C839.941 445.164 839.668 443.016 839.121 441.297C838.574 439.539 837.715 438.23 836.543 437.371C835.371 436.512 833.809 436.082 831.855 436.082C830.215 436.082 828.828 436.414 827.695 437.078C826.562 437.742 825.664 438.777 825 440.184C824.336 441.59 823.848 443.426 823.535 445.691C823.223 447.918 823.066 450.594 823.066 453.719V458.934C823.066 461.863 823.32 464.324 823.828 466.316C824.336 468.27 825.078 469.871 826.055 471.121C827.07 472.332 828.301 473.211 829.746 473.758C831.191 474.266 832.871 474.52 834.785 474.52C837.676 474.52 840.273 474.012 842.578 472.996C844.922 471.941 846.914 470.516 848.555 468.719L855.117 478.68C853.984 480.164 852.422 481.648 850.43 483.133C848.438 484.617 846.055 485.828 843.281 486.766C840.508 487.703 837.305 488.172 833.672 488.172ZM881.953 437.723V487H865.547V423.602H881.016L881.953 437.723ZM896.895 423.133L896.66 439.48C895.918 439.324 895.02 439.207 893.965 439.129C892.949 439.051 892.051 439.012 891.27 439.012C889.434 439.012 887.871 439.305 886.582 439.891C885.293 440.438 884.219 441.277 883.359 442.41C882.539 443.504 881.914 444.871 881.484 446.512C881.055 448.152 880.801 450.008 880.723 452.078L877.617 450.906C877.617 446.766 877.93 442.977 878.555 439.539C879.219 436.062 880.195 433.055 881.484 430.516C882.773 427.938 884.316 425.945 886.113 424.539C887.949 423.133 890.02 422.43 892.324 422.43C893.105 422.43 893.926 422.508 894.785 422.664C895.684 422.781 896.387 422.938 896.895 423.133Z" fill="white"/>
<path d="M208.656 583.34H213.906C213.633 585.855 212.913 588.107 211.746 590.094C210.579 592.081 208.93 593.658 206.797 594.824C204.664 595.973 202.003 596.547 198.812 596.547C196.479 596.547 194.355 596.109 192.441 595.234C190.546 594.359 188.914 593.12 187.547 591.516C186.18 589.893 185.122 587.952 184.375 585.691C183.646 583.413 183.281 580.879 183.281 578.09V574.125C183.281 571.336 183.646 568.811 184.375 566.551C185.122 564.272 186.189 562.322 187.574 560.699C188.978 559.077 190.664 557.828 192.633 556.953C194.602 556.078 196.816 555.641 199.277 555.641C202.285 555.641 204.828 556.206 206.906 557.336C208.984 558.466 210.598 560.034 211.746 562.039C212.913 564.026 213.633 566.332 213.906 568.957H208.656C208.401 567.098 207.927 565.503 207.234 564.172C206.542 562.823 205.557 561.784 204.281 561.055C203.005 560.326 201.337 559.961 199.277 559.961C197.509 559.961 195.951 560.298 194.602 560.973C193.271 561.647 192.15 562.604 191.238 563.844C190.345 565.083 189.671 566.569 189.215 568.301C188.759 570.033 188.531 571.956 188.531 574.07V578.09C188.531 580.04 188.732 581.872 189.133 583.586C189.552 585.299 190.181 586.803 191.02 588.098C191.858 589.392 192.924 590.413 194.219 591.16C195.513 591.889 197.044 592.254 198.812 592.254C201.055 592.254 202.841 591.898 204.172 591.188C205.503 590.477 206.505 589.456 207.18 588.125C207.872 586.794 208.365 585.199 208.656 583.34ZM218.992 581.535V580.906C218.992 578.773 219.302 576.796 219.922 574.973C220.542 573.132 221.435 571.536 222.602 570.188C223.768 568.82 225.181 567.763 226.84 567.016C228.499 566.25 230.358 565.867 232.418 565.867C234.496 565.867 236.365 566.25 238.023 567.016C239.701 567.763 241.122 568.82 242.289 570.188C243.474 571.536 244.376 573.132 244.996 574.973C245.616 576.796 245.926 578.773 245.926 580.906V581.535C245.926 583.668 245.616 585.646 244.996 587.469C244.376 589.292 243.474 590.887 242.289 592.254C241.122 593.603 239.71 594.66 238.051 595.426C236.41 596.173 234.551 596.547 232.473 596.547C230.395 596.547 228.526 596.173 226.867 595.426C225.208 594.66 223.786 593.603 222.602 592.254C221.435 590.887 220.542 589.292 219.922 587.469C219.302 585.646 218.992 583.668 218.992 581.535ZM224.051 580.906V581.535C224.051 583.012 224.224 584.406 224.57 585.719C224.917 587.013 225.436 588.161 226.129 589.164C226.84 590.167 227.724 590.96 228.781 591.543C229.839 592.108 231.069 592.391 232.473 592.391C233.858 592.391 235.07 592.108 236.109 591.543C237.167 590.96 238.042 590.167 238.734 589.164C239.427 588.161 239.947 587.013 240.293 585.719C240.658 584.406 240.84 583.012 240.84 581.535V580.906C240.84 579.448 240.658 578.072 240.293 576.777C239.947 575.465 239.418 574.307 238.707 573.305C238.014 572.284 237.139 571.482 236.082 570.898C235.043 570.315 233.822 570.023 232.418 570.023C231.033 570.023 229.811 570.315 228.754 570.898C227.715 571.482 226.84 572.284 226.129 573.305C225.436 574.307 224.917 575.465 224.57 576.777C224.224 578.072 224.051 579.448 224.051 580.906ZM257.766 554V596H252.68V554H257.766ZM278.164 596.547C276.104 596.547 274.236 596.201 272.559 595.508C270.9 594.797 269.469 593.803 268.266 592.527C267.081 591.251 266.169 589.738 265.531 587.988C264.893 586.238 264.574 584.324 264.574 582.246V581.098C264.574 578.691 264.93 576.549 265.641 574.672C266.352 572.776 267.318 571.172 268.539 569.859C269.76 568.547 271.146 567.553 272.695 566.879C274.245 566.204 275.849 565.867 277.508 565.867C279.622 565.867 281.445 566.232 282.977 566.961C284.526 567.69 285.793 568.711 286.777 570.023C287.762 571.318 288.491 572.849 288.965 574.617C289.439 576.367 289.676 578.281 289.676 580.359V582.629H267.582V578.5H284.617V578.117C284.544 576.805 284.271 575.529 283.797 574.289C283.341 573.049 282.612 572.029 281.609 571.227C280.607 570.424 279.24 570.023 277.508 570.023C276.359 570.023 275.302 570.27 274.336 570.762C273.37 571.236 272.54 571.947 271.848 572.895C271.155 573.842 270.617 575 270.234 576.367C269.852 577.734 269.66 579.311 269.66 581.098V582.246C269.66 583.65 269.852 584.971 270.234 586.211C270.635 587.432 271.21 588.508 271.957 589.438C272.723 590.367 273.643 591.096 274.719 591.625C275.812 592.154 277.052 592.418 278.438 592.418C280.224 592.418 281.737 592.053 282.977 591.324C284.216 590.595 285.301 589.62 286.23 588.398L289.293 590.832C288.655 591.798 287.844 592.719 286.859 593.594C285.875 594.469 284.663 595.18 283.223 595.727C281.801 596.273 280.115 596.547 278.164 596.547ZM307.969 566.414V570.297H291.973V566.414H307.969ZM297.387 559.223H302.445V588.672C302.445 589.674 302.6 590.431 302.91 590.941C303.22 591.452 303.621 591.789 304.113 591.953C304.605 592.117 305.134 592.199 305.699 592.199C306.118 592.199 306.556 592.163 307.012 592.09C307.486 591.999 307.841 591.926 308.078 591.871L308.105 596C307.704 596.128 307.176 596.246 306.52 596.355C305.882 596.483 305.107 596.547 304.195 596.547C302.956 596.547 301.816 596.301 300.777 595.809C299.738 595.316 298.909 594.496 298.289 593.348C297.688 592.181 297.387 590.613 297.387 588.645V559.223ZM312.016 581.535V580.906C312.016 578.773 312.326 576.796 312.945 574.973C313.565 573.132 314.458 571.536 315.625 570.188C316.792 568.82 318.204 567.763 319.863 567.016C321.522 566.25 323.382 565.867 325.441 565.867C327.52 565.867 329.388 566.25 331.047 567.016C332.724 567.763 334.146 568.82 335.312 570.188C336.497 571.536 337.4 573.132 338.02 574.973C338.639 576.796 338.949 578.773 338.949 580.906V581.535C338.949 583.668 338.639 585.646 338.02 587.469C337.4 589.292 336.497 590.887 335.312 592.254C334.146 593.603 332.733 594.66 331.074 595.426C329.434 596.173 327.574 596.547 325.496 596.547C323.418 596.547 321.549 596.173 319.891 595.426C318.232 594.66 316.81 593.603 315.625 592.254C314.458 590.887 313.565 589.292 312.945 587.469C312.326 585.646 312.016 583.668 312.016 581.535ZM317.074 580.906V581.535C317.074 583.012 317.247 584.406 317.594 585.719C317.94 587.013 318.46 588.161 319.152 589.164C319.863 590.167 320.747 590.96 321.805 591.543C322.862 592.108 324.092 592.391 325.496 592.391C326.882 592.391 328.094 592.108 329.133 591.543C330.19 590.96 331.065 590.167 331.758 589.164C332.451 588.161 332.97 587.013 333.316 585.719C333.681 584.406 333.863 583.012 333.863 581.535V580.906C333.863 579.448 333.681 578.072 333.316 576.777C332.97 575.465 332.441 574.307 331.73 573.305C331.038 572.284 330.163 571.482 329.105 570.898C328.066 570.315 326.845 570.023 325.441 570.023C324.056 570.023 322.835 570.315 321.777 570.898C320.738 571.482 319.863 572.284 319.152 573.305C318.46 574.307 317.94 575.465 317.594 576.777C317.247 578.072 317.074 579.448 317.074 580.906ZM350.352 571.062V596H345.293V566.414H350.215L350.352 571.062ZM359.594 566.25L359.566 570.953C359.147 570.862 358.746 570.807 358.363 570.789C357.999 570.753 357.579 570.734 357.105 570.734C355.939 570.734 354.909 570.917 354.016 571.281C353.122 571.646 352.366 572.156 351.746 572.812C351.126 573.469 350.634 574.253 350.27 575.164C349.923 576.057 349.695 577.042 349.586 578.117L348.164 578.938C348.164 577.151 348.337 575.474 348.684 573.906C349.048 572.339 349.604 570.953 350.352 569.75C351.099 568.529 352.047 567.581 353.195 566.906C354.362 566.214 355.747 565.867 357.352 565.867C357.716 565.867 358.135 565.913 358.609 566.004C359.083 566.077 359.411 566.159 359.594 566.25ZM396.809 590.258V554H401.895V596H397.246L396.809 590.258ZM376.902 581.535V580.961C376.902 578.701 377.176 576.65 377.723 574.809C378.288 572.949 379.081 571.354 380.102 570.023C381.141 568.693 382.371 567.672 383.793 566.961C385.233 566.232 386.837 565.867 388.605 565.867C390.465 565.867 392.087 566.195 393.473 566.852C394.876 567.49 396.061 568.428 397.027 569.668C398.012 570.889 398.786 572.366 399.352 574.098C399.917 575.829 400.309 577.789 400.527 579.977V582.492C400.327 584.661 399.935 586.612 399.352 588.344C398.786 590.076 398.012 591.552 397.027 592.773C396.061 593.995 394.876 594.934 393.473 595.59C392.069 596.228 390.428 596.547 388.551 596.547C386.819 596.547 385.233 596.173 383.793 595.426C382.371 594.678 381.141 593.63 380.102 592.281C379.081 590.932 378.288 589.346 377.723 587.523C377.176 585.682 376.902 583.686 376.902 581.535ZM381.988 580.961V581.535C381.988 583.012 382.134 584.397 382.426 585.691C382.736 586.986 383.21 588.125 383.848 589.109C384.486 590.094 385.297 590.868 386.281 591.434C387.266 591.98 388.441 592.254 389.809 592.254C391.486 592.254 392.862 591.898 393.938 591.188C395.031 590.477 395.906 589.538 396.562 588.371C397.219 587.204 397.729 585.938 398.094 584.57V577.98C397.875 576.978 397.556 576.012 397.137 575.082C396.736 574.134 396.207 573.296 395.551 572.566C394.913 571.819 394.12 571.227 393.172 570.789C392.242 570.352 391.139 570.133 389.863 570.133C388.478 570.133 387.284 570.424 386.281 571.008C385.297 571.573 384.486 572.357 383.848 573.359C383.21 574.344 382.736 575.492 382.426 576.805C382.134 578.099 381.988 579.484 381.988 580.961ZM422.047 596.547C419.987 596.547 418.118 596.201 416.441 595.508C414.783 594.797 413.352 593.803 412.148 592.527C410.964 591.251 410.052 589.738 409.414 587.988C408.776 586.238 408.457 584.324 408.457 582.246V581.098C408.457 578.691 408.812 576.549 409.523 574.672C410.234 572.776 411.201 571.172 412.422 569.859C413.643 568.547 415.029 567.553 416.578 566.879C418.128 566.204 419.732 565.867 421.391 565.867C423.505 565.867 425.328 566.232 426.859 566.961C428.409 567.69 429.676 568.711 430.66 570.023C431.645 571.318 432.374 572.849 432.848 574.617C433.322 576.367 433.559 578.281 433.559 580.359V582.629H411.465V578.5H428.5V578.117C428.427 576.805 428.154 575.529 427.68 574.289C427.224 573.049 426.495 572.029 425.492 571.227C424.49 570.424 423.122 570.023 421.391 570.023C420.242 570.023 419.185 570.27 418.219 570.762C417.253 571.236 416.423 571.947 415.73 572.895C415.038 573.842 414.5 575 414.117 576.367C413.734 577.734 413.543 579.311 413.543 581.098V582.246C413.543 583.65 413.734 584.971 414.117 586.211C414.518 587.432 415.092 588.508 415.84 589.438C416.605 590.367 417.526 591.096 418.602 591.625C419.695 592.154 420.935 592.418 422.32 592.418C424.107 592.418 425.62 592.053 426.859 591.324C428.099 590.595 429.184 589.62 430.113 588.398L433.176 590.832C432.538 591.798 431.727 592.719 430.742 593.594C429.758 594.469 428.546 595.18 427.105 595.727C425.684 596.273 423.997 596.547 422.047 596.547ZM458.852 566.414V596H453.766V566.414H458.852ZM453.383 558.566C453.383 557.746 453.629 557.053 454.121 556.488C454.632 555.923 455.379 555.641 456.363 555.641C457.329 555.641 458.068 555.923 458.578 556.488C459.107 557.053 459.371 557.746 459.371 558.566C459.371 559.35 459.107 560.025 458.578 560.59C458.068 561.137 457.329 561.41 456.363 561.41C455.379 561.41 454.632 561.137 454.121 560.59C453.629 560.025 453.383 559.35 453.383 558.566ZM472.031 572.73V596H466.973V566.414H471.758L472.031 572.73ZM470.828 580.086L468.723 580.004C468.741 577.98 469.042 576.112 469.625 574.398C470.208 572.667 471.029 571.163 472.086 569.887C473.143 568.611 474.401 567.626 475.859 566.934C477.336 566.223 478.967 565.867 480.754 565.867C482.212 565.867 483.525 566.068 484.691 566.469C485.858 566.852 486.852 567.471 487.672 568.328C488.51 569.185 489.148 570.297 489.586 571.664C490.023 573.013 490.242 574.663 490.242 576.613V596H485.156V576.559C485.156 575.009 484.928 573.77 484.473 572.84C484.017 571.892 483.352 571.208 482.477 570.789C481.602 570.352 480.526 570.133 479.25 570.133C477.992 570.133 476.844 570.397 475.805 570.926C474.784 571.454 473.9 572.184 473.152 573.113C472.423 574.043 471.849 575.109 471.43 576.312C471.029 577.497 470.828 578.755 470.828 580.086ZM505.473 596H500.414V563.297C500.414 561.164 500.797 559.368 501.562 557.91C502.346 556.434 503.467 555.322 504.926 554.574C506.384 553.809 508.116 553.426 510.121 553.426C510.704 553.426 511.288 553.462 511.871 553.535C512.473 553.608 513.056 553.717 513.621 553.863L513.348 557.992C512.965 557.901 512.527 557.837 512.035 557.801C511.561 557.764 511.087 557.746 510.613 557.746C509.538 557.746 508.608 557.965 507.824 558.402C507.059 558.822 506.475 559.441 506.074 560.262C505.673 561.082 505.473 562.094 505.473 563.297V596ZM511.762 566.414V570.297H495.738V566.414H511.762ZM516.055 581.535V580.906C516.055 578.773 516.365 576.796 516.984 574.973C517.604 573.132 518.497 571.536 519.664 570.188C520.831 568.82 522.243 567.763 523.902 567.016C525.561 566.25 527.421 565.867 529.48 565.867C531.559 565.867 533.427 566.25 535.086 567.016C536.763 567.763 538.185 568.82 539.352 570.188C540.536 571.536 541.439 573.132 542.059 574.973C542.678 576.796 542.988 578.773 542.988 580.906V581.535C542.988 583.668 542.678 585.646 542.059 587.469C541.439 589.292 540.536 590.887 539.352 592.254C538.185 593.603 536.772 594.66 535.113 595.426C533.473 596.173 531.613 596.547 529.535 596.547C527.457 596.547 525.589 596.173 523.93 595.426C522.271 594.66 520.849 593.603 519.664 592.254C518.497 590.887 517.604 589.292 516.984 587.469C516.365 585.646 516.055 583.668 516.055 581.535ZM521.113 580.906V581.535C521.113 583.012 521.286 584.406 521.633 585.719C521.979 587.013 522.499 588.161 523.191 589.164C523.902 590.167 524.786 590.96 525.844 591.543C526.901 592.108 528.132 592.391 529.535 592.391C530.921 592.391 532.133 592.108 533.172 591.543C534.229 590.96 535.104 590.167 535.797 589.164C536.49 588.161 537.009 587.013 537.355 585.719C537.72 584.406 537.902 583.012 537.902 581.535V580.906C537.902 579.448 537.72 578.072 537.355 576.777C537.009 575.465 536.48 574.307 535.77 573.305C535.077 572.284 534.202 571.482 533.145 570.898C532.105 570.315 530.884 570.023 529.48 570.023C528.095 570.023 526.874 570.315 525.816 570.898C524.777 571.482 523.902 572.284 523.191 573.305C522.499 574.307 521.979 575.465 521.633 576.777C521.286 578.072 521.113 579.448 521.113 580.906ZM554.391 571.062V596H549.332V566.414H554.254L554.391 571.062ZM563.633 566.25L563.605 570.953C563.186 570.862 562.785 570.807 562.402 570.789C562.038 570.753 561.618 570.734 561.145 570.734C559.978 570.734 558.948 570.917 558.055 571.281C557.161 571.646 556.405 572.156 555.785 572.812C555.165 573.469 554.673 574.253 554.309 575.164C553.962 576.057 553.734 577.042 553.625 578.117L552.203 578.938C552.203 577.151 552.376 575.474 552.723 573.906C553.087 572.339 553.643 570.953 554.391 569.75C555.138 568.529 556.086 567.581 557.234 566.906C558.401 566.214 559.786 565.867 561.391 565.867C561.755 565.867 562.174 565.913 562.648 566.004C563.122 566.077 563.451 566.159 563.633 566.25ZM573.34 572.293V596H568.254V566.414H573.066L573.34 572.293ZM572.301 580.086L569.949 580.004C569.967 577.98 570.232 576.112 570.742 574.398C571.253 572.667 572.009 571.163 573.012 569.887C574.014 568.611 575.263 567.626 576.758 566.934C578.253 566.223 579.984 565.867 581.953 565.867C583.339 565.867 584.615 566.068 585.781 566.469C586.948 566.852 587.96 567.462 588.816 568.301C589.673 569.139 590.339 570.215 590.812 571.527C591.286 572.84 591.523 574.426 591.523 576.285V596H586.465V576.531C586.465 574.982 586.201 573.742 585.672 572.812C585.161 571.883 584.432 571.208 583.484 570.789C582.536 570.352 581.424 570.133 580.148 570.133C578.654 570.133 577.405 570.397 576.402 570.926C575.4 571.454 574.598 572.184 573.996 573.113C573.395 574.043 572.957 575.109 572.684 576.312C572.428 577.497 572.301 578.755 572.301 580.086ZM591.469 577.297L588.078 578.336C588.096 576.714 588.361 575.155 588.871 573.66C589.4 572.165 590.156 570.835 591.141 569.668C592.143 568.501 593.374 567.581 594.832 566.906C596.29 566.214 597.958 565.867 599.836 565.867C601.422 565.867 602.826 566.077 604.047 566.496C605.286 566.915 606.326 567.562 607.164 568.438C608.021 569.294 608.668 570.397 609.105 571.746C609.543 573.095 609.762 574.699 609.762 576.559V596H604.676V576.504C604.676 574.845 604.411 573.56 603.883 572.648C603.372 571.719 602.643 571.072 601.695 570.707C600.766 570.324 599.654 570.133 598.359 570.133C597.247 570.133 596.263 570.324 595.406 570.707C594.549 571.09 593.829 571.618 593.246 572.293C592.663 572.949 592.216 573.706 591.906 574.562C591.615 575.419 591.469 576.331 591.469 577.297ZM634.863 590.941V575.711C634.863 574.544 634.626 573.533 634.152 572.676C633.697 571.801 633.004 571.126 632.074 570.652C631.145 570.178 629.996 569.941 628.629 569.941C627.353 569.941 626.232 570.16 625.266 570.598C624.318 571.035 623.57 571.609 623.023 572.32C622.495 573.031 622.23 573.797 622.23 574.617H617.172C617.172 573.56 617.445 572.512 617.992 571.473C618.539 570.434 619.323 569.495 620.344 568.656C621.383 567.799 622.622 567.125 624.062 566.633C625.521 566.122 627.143 565.867 628.93 565.867C631.081 565.867 632.977 566.232 634.617 566.961C636.276 567.69 637.57 568.793 638.5 570.27C639.448 571.728 639.922 573.56 639.922 575.766V589.547C639.922 590.531 640.004 591.579 640.168 592.691C640.35 593.803 640.615 594.76 640.961 595.562V596H635.684C635.428 595.417 635.228 594.642 635.082 593.676C634.936 592.691 634.863 591.78 634.863 590.941ZM635.738 578.062L635.793 581.617H630.68C629.24 581.617 627.954 581.736 626.824 581.973C625.694 582.191 624.746 582.529 623.98 582.984C623.215 583.44 622.632 584.014 622.23 584.707C621.829 585.382 621.629 586.174 621.629 587.086C621.629 588.016 621.839 588.863 622.258 589.629C622.677 590.395 623.306 591.005 624.145 591.461C625.001 591.898 626.049 592.117 627.289 592.117C628.839 592.117 630.206 591.789 631.391 591.133C632.576 590.477 633.514 589.674 634.207 588.727C634.918 587.779 635.301 586.858 635.355 585.965L637.516 588.398C637.388 589.164 637.042 590.012 636.477 590.941C635.911 591.871 635.155 592.764 634.207 593.621C633.277 594.46 632.165 595.161 630.871 595.727C629.595 596.273 628.155 596.547 626.551 596.547C624.546 596.547 622.786 596.155 621.273 595.371C619.779 594.587 618.612 593.539 617.773 592.227C616.953 590.896 616.543 589.41 616.543 587.77C616.543 586.184 616.853 584.789 617.473 583.586C618.092 582.365 618.986 581.353 620.152 580.551C621.319 579.73 622.723 579.111 624.363 578.691C626.004 578.272 627.836 578.062 629.859 578.062H635.738ZM659.719 592.391C660.922 592.391 662.034 592.145 663.055 591.652C664.076 591.16 664.914 590.486 665.57 589.629C666.227 588.754 666.6 587.76 666.691 586.648H671.504C671.413 588.398 670.82 590.03 669.727 591.543C668.651 593.038 667.238 594.25 665.488 595.18C663.738 596.091 661.815 596.547 659.719 596.547C657.495 596.547 655.553 596.155 653.895 595.371C652.254 594.587 650.887 593.512 649.793 592.145C648.717 590.777 647.906 589.21 647.359 587.441C646.831 585.655 646.566 583.768 646.566 581.781V580.633C646.566 578.646 646.831 576.768 647.359 575C647.906 573.214 648.717 571.637 649.793 570.27C650.887 568.902 652.254 567.827 653.895 567.043C655.553 566.259 657.495 565.867 659.719 565.867C662.034 565.867 664.057 566.341 665.789 567.289C667.521 568.219 668.879 569.495 669.863 571.117C670.866 572.721 671.413 574.544 671.504 576.586H666.691C666.6 575.365 666.254 574.262 665.652 573.277C665.069 572.293 664.267 571.509 663.246 570.926C662.243 570.324 661.068 570.023 659.719 570.023C658.169 570.023 656.866 570.333 655.809 570.953C654.77 571.555 653.94 572.375 653.32 573.414C652.719 574.435 652.281 575.574 652.008 576.832C651.753 578.072 651.625 579.339 651.625 580.633V581.781C651.625 583.076 651.753 584.352 652.008 585.609C652.263 586.867 652.691 588.007 653.293 589.027C653.913 590.048 654.742 590.868 655.781 591.488C656.839 592.09 658.151 592.391 659.719 592.391ZM656.93 596.273H660.566L660.238 597.723C661.296 597.905 662.253 598.342 663.109 599.035C663.984 599.728 664.422 600.867 664.422 602.453C664.422 603.31 664.24 604.085 663.875 604.777C663.529 605.488 663.009 606.09 662.316 606.582C661.624 607.092 660.758 607.484 659.719 607.758C658.698 608.031 657.504 608.168 656.137 608.168L655.945 605.242C656.784 605.242 657.54 605.151 658.215 604.969C658.908 604.786 659.454 604.495 659.855 604.094C660.275 603.693 660.484 603.173 660.484 602.535C660.484 601.934 660.329 601.46 660.02 601.113C659.71 600.767 659.227 600.503 658.57 600.32C657.932 600.156 657.103 600.038 656.082 599.965L656.93 596.273ZM675.852 581.535V580.906C675.852 578.773 676.161 576.796 676.781 574.973C677.401 573.132 678.294 571.536 679.461 570.188C680.628 568.82 682.04 567.763 683.699 567.016C685.358 566.25 687.217 565.867 689.277 565.867C691.355 565.867 693.224 566.25 694.883 567.016C696.56 567.763 697.982 568.82 699.148 570.188C700.333 571.536 701.236 573.132 701.855 574.973C702.475 576.796 702.785 578.773 702.785 580.906V581.535C702.785 583.668 702.475 585.646 701.855 587.469C701.236 589.292 700.333 590.887 699.148 592.254C697.982 593.603 696.569 594.66 694.91 595.426C693.27 596.173 691.41 596.547 689.332 596.547C687.254 596.547 685.385 596.173 683.727 595.426C682.068 594.66 680.646 593.603 679.461 592.254C678.294 590.887 677.401 589.292 676.781 587.469C676.161 585.646 675.852 583.668 675.852 581.535ZM680.91 580.906V581.535C680.91 583.012 681.083 584.406 681.43 585.719C681.776 587.013 682.296 588.161 682.988 589.164C683.699 590.167 684.583 590.96 685.641 591.543C686.698 592.108 687.928 592.391 689.332 592.391C690.717 592.391 691.93 592.108 692.969 591.543C694.026 590.96 694.901 590.167 695.594 589.164C696.286 588.161 696.806 587.013 697.152 585.719C697.517 584.406 697.699 583.012 697.699 581.535V580.906C697.699 579.448 697.517 578.072 697.152 576.777C696.806 575.465 696.277 574.307 695.566 573.305C694.874 572.284 693.999 571.482 692.941 570.898C691.902 570.315 690.681 570.023 689.277 570.023C687.892 570.023 686.671 570.315 685.613 570.898C684.574 571.482 683.699 572.284 682.988 573.305C682.296 574.307 681.776 575.465 681.43 576.777C681.083 578.072 680.91 579.448 680.91 580.906ZM695.348 554.547L698.766 554.848C698.766 556.178 698.501 557.345 697.973 558.348C697.444 559.35 696.733 560.125 695.84 560.672C694.965 561.219 693.971 561.492 692.859 561.492C691.93 561.492 691.164 561.365 690.562 561.109C689.961 560.836 689.423 560.535 688.949 560.207C688.475 559.861 687.974 559.56 687.445 559.305C686.935 559.031 686.297 558.895 685.531 558.895C684.766 558.895 684.118 559.186 683.59 559.77C683.079 560.353 682.824 561.073 682.824 561.93L679.406 561.766C679.406 560.435 679.661 559.268 680.172 558.266C680.701 557.245 681.411 556.452 682.305 555.887C683.198 555.303 684.191 555.012 685.285 555.012C686.069 555.012 686.753 555.148 687.336 555.422C687.938 555.677 688.503 555.978 689.031 556.324C689.56 556.652 690.107 556.953 690.672 557.227C691.237 557.482 691.884 557.609 692.613 557.609C693.379 557.609 694.026 557.318 694.555 556.734C695.083 556.133 695.348 555.404 695.348 554.547ZM721.406 596.547C719.346 596.547 717.478 596.201 715.801 595.508C714.142 594.797 712.711 593.803 711.508 592.527C710.323 591.251 709.411 589.738 708.773 587.988C708.135 586.238 707.816 584.324 707.816 582.246V581.098C707.816 578.691 708.172 576.549 708.883 574.672C709.594 572.776 710.56 571.172 711.781 569.859C713.003 568.547 714.388 567.553 715.938 566.879C717.487 566.204 719.091 565.867 720.75 565.867C722.865 565.867 724.688 566.232 726.219 566.961C727.768 567.69 729.035 568.711 730.02 570.023C731.004 571.318 731.733 572.849 732.207 574.617C732.681 576.367 732.918 578.281 732.918 580.359V582.629H710.824V578.5H727.859V578.117C727.786 576.805 727.513 575.529 727.039 574.289C726.583 573.049 725.854 572.029 724.852 571.227C723.849 570.424 722.482 570.023 720.75 570.023C719.602 570.023 718.544 570.27 717.578 570.762C716.612 571.236 715.783 571.947 715.09 572.895C714.397 573.842 713.859 575 713.477 576.367C713.094 577.734 712.902 579.311 712.902 581.098V582.246C712.902 583.65 713.094 584.971 713.477 586.211C713.878 587.432 714.452 588.508 715.199 589.438C715.965 590.367 716.885 591.096 717.961 591.625C719.055 592.154 720.294 592.418 721.68 592.418C723.466 592.418 724.979 592.053 726.219 591.324C727.458 590.595 728.543 589.62 729.473 588.398L732.535 590.832C731.897 591.798 731.086 592.719 730.102 593.594C729.117 594.469 727.905 595.18 726.465 595.727C725.043 596.273 723.357 596.547 721.406 596.547ZM756.051 588.152C756.051 587.423 755.887 586.749 755.559 586.129C755.249 585.491 754.602 584.917 753.617 584.406C752.651 583.878 751.193 583.422 749.242 583.039C747.602 582.693 746.116 582.283 744.785 581.809C743.473 581.335 742.352 580.76 741.422 580.086C740.51 579.411 739.809 578.618 739.316 577.707C738.824 576.796 738.578 575.729 738.578 574.508C738.578 573.341 738.833 572.238 739.344 571.199C739.872 570.16 740.611 569.24 741.559 568.438C742.525 567.635 743.682 567.007 745.031 566.551C746.38 566.095 747.884 565.867 749.543 565.867C751.913 565.867 753.936 566.286 755.613 567.125C757.29 567.964 758.576 569.085 759.469 570.488C760.362 571.874 760.809 573.414 760.809 575.109H755.75C755.75 574.289 755.504 573.496 755.012 572.73C754.538 571.947 753.836 571.299 752.906 570.789C751.995 570.279 750.874 570.023 749.543 570.023C748.139 570.023 747 570.242 746.125 570.68C745.268 571.099 744.639 571.637 744.238 572.293C743.855 572.949 743.664 573.642 743.664 574.371C743.664 574.918 743.755 575.41 743.938 575.848C744.138 576.267 744.484 576.659 744.977 577.023C745.469 577.37 746.161 577.698 747.055 578.008C747.948 578.318 749.087 578.628 750.473 578.938C752.897 579.484 754.893 580.141 756.461 580.906C758.029 581.672 759.195 582.611 759.961 583.723C760.727 584.835 761.109 586.184 761.109 587.77C761.109 589.064 760.836 590.249 760.289 591.324C759.76 592.4 758.986 593.329 757.965 594.113C756.962 594.879 755.759 595.48 754.355 595.918C752.97 596.337 751.411 596.547 749.68 596.547C747.073 596.547 744.867 596.082 743.062 595.152C741.258 594.223 739.891 593.02 738.961 591.543C738.031 590.066 737.566 588.508 737.566 586.867H742.652C742.725 588.253 743.126 589.355 743.855 590.176C744.585 590.978 745.478 591.552 746.535 591.898C747.592 592.227 748.641 592.391 749.68 592.391C751.065 592.391 752.223 592.208 753.152 591.844C754.1 591.479 754.82 590.978 755.312 590.34C755.805 589.702 756.051 588.973 756.051 588.152ZM786.703 572.102V607.375H781.617V566.414H786.266L786.703 572.102ZM806.637 580.961V581.535C806.637 583.686 806.382 585.682 805.871 587.523C805.361 589.346 804.613 590.932 803.629 592.281C802.663 593.63 801.469 594.678 800.047 595.426C798.625 596.173 796.993 596.547 795.152 596.547C793.275 596.547 791.616 596.237 790.176 595.617C788.736 594.997 787.514 594.095 786.512 592.91C785.509 591.725 784.707 590.303 784.105 588.645C783.522 586.986 783.121 585.117 782.902 583.039V579.977C783.121 577.789 783.531 575.829 784.133 574.098C784.734 572.366 785.527 570.889 786.512 569.668C787.514 568.428 788.727 567.49 790.148 566.852C791.57 566.195 793.211 565.867 795.07 565.867C796.93 565.867 798.579 566.232 800.02 566.961C801.46 567.672 802.672 568.693 803.656 570.023C804.641 571.354 805.379 572.949 805.871 574.809C806.382 576.65 806.637 578.701 806.637 580.961ZM801.551 581.535V580.961C801.551 579.484 801.396 578.099 801.086 576.805C800.776 575.492 800.293 574.344 799.637 573.359C798.999 572.357 798.178 571.573 797.176 571.008C796.173 570.424 794.979 570.133 793.594 570.133C792.318 570.133 791.206 570.352 790.258 570.789C789.328 571.227 788.535 571.819 787.879 572.566C787.223 573.296 786.685 574.134 786.266 575.082C785.865 576.012 785.564 576.978 785.363 577.98V585.062C785.728 586.339 786.238 587.542 786.895 588.672C787.551 589.784 788.426 590.686 789.52 591.379C790.613 592.053 791.99 592.391 793.648 592.391C795.016 592.391 796.191 592.108 797.176 591.543C798.178 590.96 798.999 590.167 799.637 589.164C800.293 588.161 800.776 587.013 801.086 585.719C801.396 584.406 801.551 583.012 801.551 581.535ZM830.535 590.941V575.711C830.535 574.544 830.298 573.533 829.824 572.676C829.368 571.801 828.676 571.126 827.746 570.652C826.816 570.178 825.668 569.941 824.301 569.941C823.025 569.941 821.904 570.16 820.938 570.598C819.99 571.035 819.242 571.609 818.695 572.32C818.167 573.031 817.902 573.797 817.902 574.617H812.844C812.844 573.56 813.117 572.512 813.664 571.473C814.211 570.434 814.995 569.495 816.016 568.656C817.055 567.799 818.294 567.125 819.734 566.633C821.193 566.122 822.815 565.867 824.602 565.867C826.753 565.867 828.648 566.232 830.289 566.961C831.948 567.69 833.242 568.793 834.172 570.27C835.12 571.728 835.594 573.56 835.594 575.766V589.547C835.594 590.531 835.676 591.579 835.84 592.691C836.022 593.803 836.286 594.76 836.633 595.562V596H831.355C831.1 595.417 830.9 594.642 830.754 593.676C830.608 592.691 830.535 591.78 830.535 590.941ZM831.41 578.062L831.465 581.617H826.352C824.911 581.617 823.626 581.736 822.496 581.973C821.366 582.191 820.418 582.529 819.652 582.984C818.887 583.44 818.303 584.014 817.902 584.707C817.501 585.382 817.301 586.174 817.301 587.086C817.301 588.016 817.51 588.863 817.93 589.629C818.349 590.395 818.978 591.005 819.816 591.461C820.673 591.898 821.721 592.117 822.961 592.117C824.51 592.117 825.878 591.789 827.062 591.133C828.247 590.477 829.186 589.674 829.879 588.727C830.59 587.779 830.973 586.858 831.027 585.965L833.188 588.398C833.06 589.164 832.714 590.012 832.148 590.941C831.583 591.871 830.827 592.764 829.879 593.621C828.949 594.46 827.837 595.161 826.543 595.727C825.267 596.273 823.827 596.547 822.223 596.547C820.217 596.547 818.458 596.155 816.945 595.371C815.451 594.587 814.284 593.539 813.445 592.227C812.625 590.896 812.215 589.41 812.215 587.77C812.215 586.184 812.525 584.789 813.145 583.586C813.764 582.365 814.658 581.353 815.824 580.551C816.991 579.73 818.395 579.111 820.035 578.691C821.676 578.272 823.508 578.062 825.531 578.062H831.41ZM848.609 571.062V596H843.551V566.414H848.473L848.609 571.062ZM857.852 566.25L857.824 570.953C857.405 570.862 857.004 570.807 856.621 570.789C856.257 570.753 855.837 570.734 855.363 570.734C854.197 570.734 853.167 570.917 852.273 571.281C851.38 571.646 850.624 572.156 850.004 572.812C849.384 573.469 848.892 574.253 848.527 575.164C848.181 576.057 847.953 577.042 847.844 578.117L846.422 578.938C846.422 577.151 846.595 575.474 846.941 573.906C847.306 572.339 847.862 570.953 848.609 569.75C849.357 568.529 850.305 567.581 851.453 566.906C852.62 566.214 854.005 565.867 855.609 565.867C855.974 565.867 856.393 565.913 856.867 566.004C857.341 566.077 857.669 566.159 857.852 566.25ZM878.879 590.941V575.711C878.879 574.544 878.642 573.533 878.168 572.676C877.712 571.801 877.02 571.126 876.09 570.652C875.16 570.178 874.012 569.941 872.645 569.941C871.368 569.941 870.247 570.16 869.281 570.598C868.333 571.035 867.586 571.609 867.039 572.32C866.51 573.031 866.246 573.797 866.246 574.617H861.188C861.188 573.56 861.461 572.512 862.008 571.473C862.555 570.434 863.339 569.495 864.359 568.656C865.398 567.799 866.638 567.125 868.078 566.633C869.536 566.122 871.159 565.867 872.945 565.867C875.096 565.867 876.992 566.232 878.633 566.961C880.292 567.69 881.586 568.793 882.516 570.27C883.464 571.728 883.938 573.56 883.938 575.766V589.547C883.938 590.531 884.02 591.579 884.184 592.691C884.366 593.803 884.63 594.76 884.977 595.562V596H879.699C879.444 595.417 879.243 594.642 879.098 593.676C878.952 592.691 878.879 591.78 878.879 590.941ZM879.754 578.062L879.809 581.617H874.695C873.255 581.617 871.97 581.736 870.84 581.973C869.71 582.191 868.762 582.529 867.996 582.984C867.23 583.44 866.647 584.014 866.246 584.707C865.845 585.382 865.645 586.174 865.645 587.086C865.645 588.016 865.854 588.863 866.273 589.629C866.693 590.395 867.322 591.005 868.16 591.461C869.017 591.898 870.065 592.117 871.305 592.117C872.854 592.117 874.221 591.789 875.406 591.133C876.591 590.477 877.53 589.674 878.223 588.727C878.934 587.779 879.316 586.858 879.371 585.965L881.531 588.398C881.404 589.164 881.057 590.012 880.492 590.941C879.927 591.871 879.171 592.764 878.223 593.621C877.293 594.46 876.181 595.161 874.887 595.727C873.611 596.273 872.171 596.547 870.566 596.547C868.561 596.547 866.802 596.155 865.289 595.371C863.794 594.587 862.628 593.539 861.789 592.227C860.969 590.896 860.559 589.41 860.559 587.77C860.559 586.184 860.868 584.789 861.488 583.586C862.108 582.365 863.001 581.353 864.168 580.551C865.335 579.73 866.738 579.111 868.379 578.691C870.02 578.272 871.852 578.062 873.875 578.062H879.754ZM201.301 668.941V653.711C201.301 652.544 201.064 651.533 200.59 650.676C200.134 649.801 199.441 649.126 198.512 648.652C197.582 648.178 196.434 647.941 195.066 647.941C193.79 647.941 192.669 648.16 191.703 648.598C190.755 649.035 190.008 649.609 189.461 650.32C188.932 651.031 188.668 651.797 188.668 652.617H183.609C183.609 651.56 183.883 650.512 184.43 649.473C184.977 648.434 185.76 647.495 186.781 646.656C187.82 645.799 189.06 645.125 190.5 644.633C191.958 644.122 193.581 643.867 195.367 643.867C197.518 643.867 199.414 644.232 201.055 644.961C202.714 645.69 204.008 646.793 204.938 648.27C205.885 649.728 206.359 651.56 206.359 653.766V667.547C206.359 668.531 206.441 669.579 206.605 670.691C206.788 671.803 207.052 672.76 207.398 673.562V674H202.121C201.866 673.417 201.665 672.642 201.52 671.676C201.374 670.691 201.301 669.78 201.301 668.941ZM202.176 656.062L202.23 659.617H197.117C195.677 659.617 194.392 659.736 193.262 659.973C192.132 660.191 191.184 660.529 190.418 660.984C189.652 661.44 189.069 662.014 188.668 662.707C188.267 663.382 188.066 664.174 188.066 665.086C188.066 666.016 188.276 666.863 188.695 667.629C189.115 668.395 189.743 669.005 190.582 669.461C191.439 669.898 192.487 670.117 193.727 670.117C195.276 670.117 196.643 669.789 197.828 669.133C199.013 668.477 199.952 667.674 200.645 666.727C201.355 665.779 201.738 664.858 201.793 663.965L203.953 666.398C203.826 667.164 203.479 668.012 202.914 668.941C202.349 669.871 201.592 670.764 200.645 671.621C199.715 672.46 198.603 673.161 197.309 673.727C196.033 674.273 194.592 674.547 192.988 674.547C190.983 674.547 189.224 674.155 187.711 673.371C186.216 672.587 185.049 671.539 184.211 670.227C183.391 668.896 182.98 667.41 182.98 665.77C182.98 664.184 183.29 662.789 183.91 661.586C184.53 660.365 185.423 659.353 186.59 658.551C187.757 657.73 189.16 657.111 190.801 656.691C192.441 656.272 194.273 656.062 196.297 656.062H202.176ZM219.375 650.73V674H214.316V644.414H219.102L219.375 650.73ZM218.172 658.086L216.066 658.004C216.085 655.98 216.385 654.112 216.969 652.398C217.552 650.667 218.372 649.163 219.43 647.887C220.487 646.611 221.745 645.626 223.203 644.934C224.68 644.223 226.311 643.867 228.098 643.867C229.556 643.867 230.868 644.068 232.035 644.469C233.202 644.852 234.195 645.471 235.016 646.328C235.854 647.185 236.492 648.297 236.93 649.664C237.367 651.013 237.586 652.663 237.586 654.613V674H232.5V654.559C232.5 653.009 232.272 651.77 231.816 650.84C231.361 649.892 230.695 649.208 229.82 648.789C228.945 648.352 227.87 648.133 226.594 648.133C225.336 648.133 224.188 648.397 223.148 648.926C222.128 649.454 221.243 650.184 220.496 651.113C219.767 652.043 219.193 653.109 218.773 654.312C218.372 655.497 218.172 656.755 218.172 658.086ZM262.715 668.941V653.711C262.715 652.544 262.478 651.533 262.004 650.676C261.548 649.801 260.855 649.126 259.926 648.652C258.996 648.178 257.848 647.941 256.48 647.941C255.204 647.941 254.083 648.16 253.117 648.598C252.169 649.035 251.422 649.609 250.875 650.32C250.346 651.031 250.082 651.797 250.082 652.617H245.023C245.023 651.56 245.297 650.512 245.844 649.473C246.391 648.434 247.174 647.495 248.195 646.656C249.234 645.799 250.474 645.125 251.914 644.633C253.372 644.122 254.995 643.867 256.781 643.867C258.932 643.867 260.828 644.232 262.469 644.961C264.128 645.69 265.422 646.793 266.352 648.27C267.299 649.728 267.773 651.56 267.773 653.766V667.547C267.773 668.531 267.855 669.579 268.02 670.691C268.202 671.803 268.466 672.76 268.812 673.562V674H263.535C263.28 673.417 263.079 672.642 262.934 671.676C262.788 670.691 262.715 669.78 262.715 668.941ZM263.59 656.062L263.645 659.617H258.531C257.091 659.617 255.806 659.736 254.676 659.973C253.546 660.191 252.598 660.529 251.832 660.984C251.066 661.44 250.483 662.014 250.082 662.707C249.681 663.382 249.48 664.174 249.48 665.086C249.48 666.016 249.69 666.863 250.109 667.629C250.529 668.395 251.158 669.005 251.996 669.461C252.853 669.898 253.901 670.117 255.141 670.117C256.69 670.117 258.057 669.789 259.242 669.133C260.427 668.477 261.366 667.674 262.059 666.727C262.77 665.779 263.152 664.858 263.207 663.965L265.367 666.398C265.24 667.164 264.893 668.012 264.328 668.941C263.763 669.871 263.007 670.764 262.059 671.621C261.129 672.46 260.017 673.161 258.723 673.727C257.447 674.273 256.007 674.547 254.402 674.547C252.397 674.547 250.638 674.155 249.125 673.371C247.63 672.587 246.464 671.539 245.625 670.227C244.805 668.896 244.395 667.41 244.395 665.77C244.395 664.184 244.704 662.789 245.324 661.586C245.944 660.365 246.837 659.353 248.004 658.551C249.171 657.73 250.574 657.111 252.215 656.691C253.855 656.272 255.688 656.062 257.711 656.062H263.59ZM254.539 640.039L259.844 632H265.941L258.613 640.039H254.539ZM281.227 632V674H276.141V632H281.227ZM294.844 644.414V674H289.758V644.414H294.844ZM289.375 636.566C289.375 635.746 289.621 635.053 290.113 634.488C290.624 633.923 291.371 633.641 292.355 633.641C293.322 633.641 294.06 633.923 294.57 634.488C295.099 635.053 295.363 635.746 295.363 636.566C295.363 637.35 295.099 638.025 294.57 638.59C294.06 639.137 293.322 639.41 292.355 639.41C291.371 639.41 290.624 639.137 290.113 638.59C289.621 638.025 289.375 637.35 289.375 636.566ZM320.191 666.152C320.191 665.423 320.027 664.749 319.699 664.129C319.389 663.491 318.742 662.917 317.758 662.406C316.792 661.878 315.333 661.422 313.383 661.039C311.742 660.693 310.257 660.283 308.926 659.809C307.613 659.335 306.492 658.76 305.562 658.086C304.651 657.411 303.949 656.618 303.457 655.707C302.965 654.796 302.719 653.729 302.719 652.508C302.719 651.341 302.974 650.238 303.484 649.199C304.013 648.16 304.751 647.24 305.699 646.438C306.665 645.635 307.823 645.007 309.172 644.551C310.521 644.095 312.025 643.867 313.684 643.867C316.053 643.867 318.077 644.286 319.754 645.125C321.431 645.964 322.716 647.085 323.609 648.488C324.503 649.874 324.949 651.414 324.949 653.109H319.891C319.891 652.289 319.645 651.496 319.152 650.73C318.678 649.947 317.977 649.299 317.047 648.789C316.135 648.279 315.014 648.023 313.684 648.023C312.28 648.023 311.141 648.242 310.266 648.68C309.409 649.099 308.78 649.637 308.379 650.293C307.996 650.949 307.805 651.642 307.805 652.371C307.805 652.918 307.896 653.41 308.078 653.848C308.279 654.267 308.625 654.659 309.117 655.023C309.609 655.37 310.302 655.698 311.195 656.008C312.089 656.318 313.228 656.628 314.613 656.938C317.038 657.484 319.034 658.141 320.602 658.906C322.169 659.672 323.336 660.611 324.102 661.723C324.867 662.835 325.25 664.184 325.25 665.77C325.25 667.064 324.977 668.249 324.43 669.324C323.901 670.4 323.126 671.329 322.105 672.113C321.103 672.879 319.9 673.48 318.496 673.918C317.111 674.337 315.552 674.547 313.82 674.547C311.214 674.547 309.008 674.082 307.203 673.152C305.398 672.223 304.031 671.02 303.102 669.543C302.172 668.066 301.707 666.508 301.707 664.867H306.793C306.866 666.253 307.267 667.355 307.996 668.176C308.725 668.978 309.618 669.552 310.676 669.898C311.733 670.227 312.781 670.391 313.82 670.391C315.206 670.391 316.363 670.208 317.293 669.844C318.241 669.479 318.961 668.978 319.453 668.34C319.945 667.702 320.191 666.973 320.191 666.152ZM344.172 674.547C342.112 674.547 340.243 674.201 338.566 673.508C336.908 672.797 335.477 671.803 334.273 670.527C333.089 669.251 332.177 667.738 331.539 665.988C330.901 664.238 330.582 662.324 330.582 660.246V659.098C330.582 656.691 330.938 654.549 331.648 652.672C332.359 650.776 333.326 649.172 334.547 647.859C335.768 646.547 337.154 645.553 338.703 644.879C340.253 644.204 341.857 643.867 343.516 643.867C345.63 643.867 347.453 644.232 348.984 644.961C350.534 645.69 351.801 646.711 352.785 648.023C353.77 649.318 354.499 650.849 354.973 652.617C355.447 654.367 355.684 656.281 355.684 658.359V660.629H333.59V656.5H350.625V656.117C350.552 654.805 350.279 653.529 349.805 652.289C349.349 651.049 348.62 650.029 347.617 649.227C346.615 648.424 345.247 648.023 343.516 648.023C342.367 648.023 341.31 648.27 340.344 648.762C339.378 649.236 338.548 649.947 337.855 650.895C337.163 651.842 336.625 653 336.242 654.367C335.859 655.734 335.668 657.311 335.668 659.098V660.246C335.668 661.65 335.859 662.971 336.242 664.211C336.643 665.432 337.217 666.508 337.965 667.438C338.73 668.367 339.651 669.096 340.727 669.625C341.82 670.154 343.06 670.418 344.445 670.418C346.232 670.418 347.745 670.053 348.984 669.324C350.224 668.595 351.309 667.62 352.238 666.398L355.301 668.832C354.663 669.798 353.852 670.719 352.867 671.594C351.883 672.469 350.671 673.18 349.23 673.727C347.809 674.273 346.122 674.547 344.172 674.547ZM394.129 668.258V632H399.215V674H394.566L394.129 668.258ZM374.223 659.535V658.961C374.223 656.701 374.496 654.65 375.043 652.809C375.608 650.949 376.401 649.354 377.422 648.023C378.461 646.693 379.691 645.672 381.113 644.961C382.553 644.232 384.158 643.867 385.926 643.867C387.785 643.867 389.408 644.195 390.793 644.852C392.197 645.49 393.382 646.428 394.348 647.668C395.332 648.889 396.107 650.366 396.672 652.098C397.237 653.829 397.629 655.789 397.848 657.977V660.492C397.647 662.661 397.255 664.612 396.672 666.344C396.107 668.076 395.332 669.552 394.348 670.773C393.382 671.995 392.197 672.934 390.793 673.59C389.389 674.228 387.749 674.547 385.871 674.547C384.139 674.547 382.553 674.173 381.113 673.426C379.691 672.678 378.461 671.63 377.422 670.281C376.401 668.932 375.608 667.346 375.043 665.523C374.496 663.682 374.223 661.686 374.223 659.535ZM379.309 658.961V659.535C379.309 661.012 379.454 662.397 379.746 663.691C380.056 664.986 380.53 666.125 381.168 667.109C381.806 668.094 382.617 668.868 383.602 669.434C384.586 669.98 385.762 670.254 387.129 670.254C388.806 670.254 390.182 669.898 391.258 669.188C392.352 668.477 393.227 667.538 393.883 666.371C394.539 665.204 395.049 663.938 395.414 662.57V655.98C395.195 654.978 394.876 654.012 394.457 653.082C394.056 652.134 393.527 651.296 392.871 650.566C392.233 649.819 391.44 649.227 390.492 648.789C389.562 648.352 388.46 648.133 387.184 648.133C385.798 648.133 384.604 648.424 383.602 649.008C382.617 649.573 381.806 650.357 381.168 651.359C380.53 652.344 380.056 653.492 379.746 654.805C379.454 656.099 379.309 657.484 379.309 658.961ZM405.75 659.535V658.906C405.75 656.773 406.06 654.796 406.68 652.973C407.299 651.132 408.193 649.536 409.359 648.188C410.526 646.82 411.939 645.763 413.598 645.016C415.257 644.25 417.116 643.867 419.176 643.867C421.254 643.867 423.122 644.25 424.781 645.016C426.458 645.763 427.88 646.82 429.047 648.188C430.232 649.536 431.134 651.132 431.754 652.973C432.374 654.796 432.684 656.773 432.684 658.906V659.535C432.684 661.668 432.374 663.646 431.754 665.469C431.134 667.292 430.232 668.887 429.047 670.254C427.88 671.603 426.467 672.66 424.809 673.426C423.168 674.173 421.309 674.547 419.23 674.547C417.152 674.547 415.284 674.173 413.625 673.426C411.966 672.66 410.544 671.603 409.359 670.254C408.193 668.887 407.299 667.292 406.68 665.469C406.06 663.646 405.75 661.668 405.75 659.535ZM410.809 658.906V659.535C410.809 661.012 410.982 662.406 411.328 663.719C411.674 665.013 412.194 666.161 412.887 667.164C413.598 668.167 414.482 668.96 415.539 669.543C416.596 670.108 417.827 670.391 419.23 670.391C420.616 670.391 421.828 670.108 422.867 669.543C423.924 668.96 424.799 668.167 425.492 667.164C426.185 666.161 426.704 665.013 427.051 663.719C427.415 662.406 427.598 661.012 427.598 659.535V658.906C427.598 657.448 427.415 656.072 427.051 654.777C426.704 653.465 426.176 652.307 425.465 651.305C424.772 650.284 423.897 649.482 422.84 648.898C421.801 648.315 420.579 648.023 419.176 648.023C417.79 648.023 416.569 648.315 415.512 648.898C414.473 649.482 413.598 650.284 412.887 651.305C412.194 652.307 411.674 653.465 411.328 654.777C410.982 656.072 410.809 657.448 410.809 658.906ZM470.145 666.152C470.145 665.423 469.98 664.749 469.652 664.129C469.342 663.491 468.695 662.917 467.711 662.406C466.745 661.878 465.286 661.422 463.336 661.039C461.695 660.693 460.21 660.283 458.879 659.809C457.566 659.335 456.445 658.76 455.516 658.086C454.604 657.411 453.902 656.618 453.41 655.707C452.918 654.796 452.672 653.729 452.672 652.508C452.672 651.341 452.927 650.238 453.438 649.199C453.966 648.16 454.704 647.24 455.652 646.438C456.618 645.635 457.776 645.007 459.125 644.551C460.474 644.095 461.978 643.867 463.637 643.867C466.007 643.867 468.03 644.286 469.707 645.125C471.384 645.964 472.669 647.085 473.562 648.488C474.456 649.874 474.902 651.414 474.902 653.109H469.844C469.844 652.289 469.598 651.496 469.105 650.73C468.632 649.947 467.93 649.299 467 648.789C466.089 648.279 464.967 648.023 463.637 648.023C462.233 648.023 461.094 648.242 460.219 648.68C459.362 649.099 458.733 649.637 458.332 650.293C457.949 650.949 457.758 651.642 457.758 652.371C457.758 652.918 457.849 653.41 458.031 653.848C458.232 654.267 458.578 654.659 459.07 655.023C459.562 655.37 460.255 655.698 461.148 656.008C462.042 656.318 463.181 656.628 464.566 656.938C466.991 657.484 468.987 658.141 470.555 658.906C472.122 659.672 473.289 660.611 474.055 661.723C474.82 662.835 475.203 664.184 475.203 665.77C475.203 667.064 474.93 668.249 474.383 669.324C473.854 670.4 473.079 671.329 472.059 672.113C471.056 672.879 469.853 673.48 468.449 673.918C467.064 674.337 465.505 674.547 463.773 674.547C461.167 674.547 458.961 674.082 457.156 673.152C455.352 672.223 453.984 671.02 453.055 669.543C452.125 668.066 451.66 666.508 451.66 664.867H456.746C456.819 666.253 457.22 667.355 457.949 668.176C458.678 668.978 459.572 669.552 460.629 669.898C461.686 670.227 462.734 670.391 463.773 670.391C465.159 670.391 466.316 670.208 467.246 669.844C468.194 669.479 468.914 668.978 469.406 668.34C469.898 667.702 470.145 666.973 470.145 666.152ZM487.344 644.414V674H482.258V644.414H487.344ZM481.875 636.566C481.875 635.746 482.121 635.053 482.613 634.488C483.124 633.923 483.871 633.641 484.855 633.641C485.822 633.641 486.56 633.923 487.07 634.488C487.599 635.053 487.863 635.746 487.863 636.566C487.863 637.35 487.599 638.025 487.07 638.59C486.56 639.137 485.822 639.41 484.855 639.41C483.871 639.41 483.124 639.137 482.613 638.59C482.121 638.025 481.875 637.35 481.875 636.566ZM507.852 644.414V648.297H491.855V644.414H507.852ZM497.27 637.223H502.328V666.672C502.328 667.674 502.483 668.431 502.793 668.941C503.103 669.452 503.504 669.789 503.996 669.953C504.488 670.117 505.017 670.199 505.582 670.199C506.001 670.199 506.439 670.163 506.895 670.09C507.368 669.999 507.724 669.926 507.961 669.871L507.988 674C507.587 674.128 507.059 674.246 506.402 674.355C505.764 674.483 504.99 674.547 504.078 674.547C502.839 674.547 501.699 674.301 500.66 673.809C499.621 673.316 498.792 672.496 498.172 671.348C497.57 670.181 497.27 668.613 497.27 666.645V637.223ZM526.062 674.547C524.003 674.547 522.134 674.201 520.457 673.508C518.798 672.797 517.367 671.803 516.164 670.527C514.979 669.251 514.068 667.738 513.43 665.988C512.792 664.238 512.473 662.324 512.473 660.246V659.098C512.473 656.691 512.828 654.549 513.539 652.672C514.25 650.776 515.216 649.172 516.438 647.859C517.659 646.547 519.044 645.553 520.594 644.879C522.143 644.204 523.747 643.867 525.406 643.867C527.521 643.867 529.344 644.232 530.875 644.961C532.424 645.69 533.691 646.711 534.676 648.023C535.66 649.318 536.389 650.849 536.863 652.617C537.337 654.367 537.574 656.281 537.574 658.359V660.629H515.48V656.5H532.516V656.117C532.443 654.805 532.169 653.529 531.695 652.289C531.24 651.049 530.51 650.029 529.508 649.227C528.505 648.424 527.138 648.023 525.406 648.023C524.258 648.023 523.201 648.27 522.234 648.762C521.268 649.236 520.439 649.947 519.746 650.895C519.053 651.842 518.516 653 518.133 654.367C517.75 655.734 517.559 657.311 517.559 659.098V660.246C517.559 661.65 517.75 662.971 518.133 664.211C518.534 665.432 519.108 666.508 519.855 667.438C520.621 668.367 521.542 669.096 522.617 669.625C523.711 670.154 524.951 670.418 526.336 670.418C528.122 670.418 529.635 670.053 530.875 669.324C532.115 668.595 533.199 667.62 534.129 666.398L537.191 668.832C536.553 669.798 535.742 670.719 534.758 671.594C533.773 672.469 532.561 673.18 531.121 673.727C529.699 674.273 528.013 674.547 526.062 674.547ZM576.02 668.258V632H581.105V674H576.457L576.02 668.258ZM556.113 659.535V658.961C556.113 656.701 556.387 654.65 556.934 652.809C557.499 650.949 558.292 649.354 559.312 648.023C560.352 646.693 561.582 645.672 563.004 644.961C564.444 644.232 566.048 643.867 567.816 643.867C569.676 643.867 571.298 644.195 572.684 644.852C574.087 645.49 575.272 646.428 576.238 647.668C577.223 648.889 577.997 650.366 578.562 652.098C579.128 653.829 579.52 655.789 579.738 657.977V660.492C579.538 662.661 579.146 664.612 578.562 666.344C577.997 668.076 577.223 669.552 576.238 670.773C575.272 671.995 574.087 672.934 572.684 673.59C571.28 674.228 569.639 674.547 567.762 674.547C566.03 674.547 564.444 674.173 563.004 673.426C561.582 672.678 560.352 671.63 559.312 670.281C558.292 668.932 557.499 667.346 556.934 665.523C556.387 663.682 556.113 661.686 556.113 659.535ZM561.199 658.961V659.535C561.199 661.012 561.345 662.397 561.637 663.691C561.947 664.986 562.421 666.125 563.059 667.109C563.697 668.094 564.508 668.868 565.492 669.434C566.477 669.98 567.652 670.254 569.02 670.254C570.697 670.254 572.073 669.898 573.148 669.188C574.242 668.477 575.117 667.538 575.773 666.371C576.43 665.204 576.94 663.938 577.305 662.57V655.98C577.086 654.978 576.767 654.012 576.348 653.082C575.947 652.134 575.418 651.296 574.762 650.566C574.124 649.819 573.331 649.227 572.383 648.789C571.453 648.352 570.35 648.133 569.074 648.133C567.689 648.133 566.495 648.424 565.492 649.008C564.508 649.573 563.697 650.357 563.059 651.359C562.421 652.344 561.947 653.492 561.637 654.805C561.345 656.099 561.199 657.484 561.199 658.961ZM606.426 668.941V653.711C606.426 652.544 606.189 651.533 605.715 650.676C605.259 649.801 604.566 649.126 603.637 648.652C602.707 648.178 601.559 647.941 600.191 647.941C598.915 647.941 597.794 648.16 596.828 648.598C595.88 649.035 595.133 649.609 594.586 650.32C594.057 651.031 593.793 651.797 593.793 652.617H588.734C588.734 651.56 589.008 650.512 589.555 649.473C590.102 648.434 590.885 647.495 591.906 646.656C592.945 645.799 594.185 645.125 595.625 644.633C597.083 644.122 598.706 643.867 600.492 643.867C602.643 643.867 604.539 644.232 606.18 644.961C607.839 645.69 609.133 646.793 610.062 648.27C611.01 649.728 611.484 651.56 611.484 653.766V667.547C611.484 668.531 611.566 669.579 611.73 670.691C611.913 671.803 612.177 672.76 612.523 673.562V674H607.246C606.991 673.417 606.79 672.642 606.645 671.676C606.499 670.691 606.426 669.78 606.426 668.941ZM607.301 656.062L607.355 659.617H602.242C600.802 659.617 599.517 659.736 598.387 659.973C597.257 660.191 596.309 660.529 595.543 660.984C594.777 661.44 594.194 662.014 593.793 662.707C593.392 663.382 593.191 664.174 593.191 665.086C593.191 666.016 593.401 666.863 593.82 667.629C594.24 668.395 594.868 669.005 595.707 669.461C596.564 669.898 597.612 670.117 598.852 670.117C600.401 670.117 601.768 669.789 602.953 669.133C604.138 668.477 605.077 667.674 605.77 666.727C606.48 665.779 606.863 664.858 606.918 663.965L609.078 666.398C608.951 667.164 608.604 668.012 608.039 668.941C607.474 669.871 606.717 670.764 605.77 671.621C604.84 672.46 603.728 673.161 602.434 673.727C601.158 674.273 599.717 674.547 598.113 674.547C596.108 674.547 594.349 674.155 592.836 673.371C591.341 672.587 590.174 671.539 589.336 670.227C588.516 668.896 588.105 667.41 588.105 665.77C588.105 664.184 588.415 662.789 589.035 661.586C589.655 660.365 590.548 659.353 591.715 658.551C592.882 657.73 594.285 657.111 595.926 656.691C597.566 656.272 599.398 656.062 601.422 656.062H607.301ZM644.871 674H636.559L636.613 669.707H644.871C647.715 669.707 650.085 669.115 651.98 667.93C653.876 666.727 655.298 665.049 656.246 662.898C657.212 660.729 657.695 658.195 657.695 655.297V652.863C657.695 650.585 657.422 648.561 656.875 646.793C656.328 645.007 655.526 643.503 654.469 642.281C653.411 641.042 652.117 640.103 650.586 639.465C649.073 638.827 647.332 638.508 645.363 638.508H636.395V634.188H645.363C647.97 634.188 650.349 634.625 652.5 635.5C654.651 636.357 656.501 637.605 658.051 639.246C659.618 640.868 660.822 642.837 661.66 645.152C662.499 647.449 662.918 650.038 662.918 652.918V655.297C662.918 658.177 662.499 660.775 661.66 663.09C660.822 665.387 659.609 667.346 658.023 668.969C656.456 670.591 654.56 671.84 652.336 672.715C650.13 673.572 647.642 674 644.871 674ZM639.375 634.188V674H634.098V634.188H639.375ZM668.742 659.535V658.906C668.742 656.773 669.052 654.796 669.672 652.973C670.292 651.132 671.185 649.536 672.352 648.188C673.518 646.82 674.931 645.763 676.59 645.016C678.249 644.25 680.108 643.867 682.168 643.867C684.246 643.867 686.115 644.25 687.773 645.016C689.451 645.763 690.872 646.82 692.039 648.188C693.224 649.536 694.126 651.132 694.746 652.973C695.366 654.796 695.676 656.773 695.676 658.906V659.535C695.676 661.668 695.366 663.646 694.746 665.469C694.126 667.292 693.224 668.887 692.039 670.254C690.872 671.603 689.46 672.66 687.801 673.426C686.16 674.173 684.301 674.547 682.223 674.547C680.145 674.547 678.276 674.173 676.617 673.426C674.958 672.66 673.536 671.603 672.352 670.254C671.185 668.887 670.292 667.292 669.672 665.469C669.052 663.646 668.742 661.668 668.742 659.535ZM673.801 658.906V659.535C673.801 661.012 673.974 662.406 674.32 663.719C674.667 665.013 675.186 666.161 675.879 667.164C676.59 668.167 677.474 668.96 678.531 669.543C679.589 670.108 680.819 670.391 682.223 670.391C683.608 670.391 684.82 670.108 685.859 669.543C686.917 668.96 687.792 668.167 688.484 667.164C689.177 666.161 689.697 665.013 690.043 663.719C690.408 662.406 690.59 661.012 690.59 659.535V658.906C690.59 657.448 690.408 656.072 690.043 654.777C689.697 653.465 689.168 652.307 688.457 651.305C687.764 650.284 686.889 649.482 685.832 648.898C684.793 648.315 683.572 648.023 682.168 648.023C680.783 648.023 679.561 648.315 678.504 648.898C677.465 649.482 676.59 650.284 675.879 651.305C675.186 652.307 674.667 653.465 674.32 654.777C673.974 656.072 673.801 657.448 673.801 658.906ZM707.516 632V674H702.43V632H707.516ZM727.477 670.391C728.68 670.391 729.792 670.145 730.812 669.652C731.833 669.16 732.672 668.486 733.328 667.629C733.984 666.754 734.358 665.76 734.449 664.648H739.262C739.171 666.398 738.578 668.03 737.484 669.543C736.409 671.038 734.996 672.25 733.246 673.18C731.496 674.091 729.573 674.547 727.477 674.547C725.253 674.547 723.311 674.155 721.652 673.371C720.012 672.587 718.645 671.512 717.551 670.145C716.475 668.777 715.664 667.21 715.117 665.441C714.589 663.655 714.324 661.768 714.324 659.781V658.633C714.324 656.646 714.589 654.768 715.117 653C715.664 651.214 716.475 649.637 717.551 648.27C718.645 646.902 720.012 645.827 721.652 645.043C723.311 644.259 725.253 643.867 727.477 643.867C729.792 643.867 731.815 644.341 733.547 645.289C735.279 646.219 736.637 647.495 737.621 649.117C738.624 650.721 739.171 652.544 739.262 654.586H734.449C734.358 653.365 734.012 652.262 733.41 651.277C732.827 650.293 732.025 649.509 731.004 648.926C730.001 648.324 728.826 648.023 727.477 648.023C725.927 648.023 724.624 648.333 723.566 648.953C722.527 649.555 721.698 650.375 721.078 651.414C720.477 652.435 720.039 653.574 719.766 654.832C719.51 656.072 719.383 657.339 719.383 658.633V659.781C719.383 661.076 719.51 662.352 719.766 663.609C720.021 664.867 720.449 666.007 721.051 667.027C721.671 668.048 722.5 668.868 723.539 669.488C724.596 670.09 725.909 670.391 727.477 670.391ZM757.227 674.547C755.167 674.547 753.298 674.201 751.621 673.508C749.962 672.797 748.531 671.803 747.328 670.527C746.143 669.251 745.232 667.738 744.594 665.988C743.956 664.238 743.637 662.324 743.637 660.246V659.098C743.637 656.691 743.992 654.549 744.703 652.672C745.414 650.776 746.38 649.172 747.602 647.859C748.823 646.547 750.208 645.553 751.758 644.879C753.307 644.204 754.911 643.867 756.57 643.867C758.685 643.867 760.508 644.232 762.039 644.961C763.589 645.69 764.855 646.711 765.84 648.023C766.824 649.318 767.553 650.849 768.027 652.617C768.501 654.367 768.738 656.281 768.738 658.359V660.629H746.645V656.5H763.68V656.117C763.607 654.805 763.333 653.529 762.859 652.289C762.404 651.049 761.674 650.029 760.672 649.227C759.669 648.424 758.302 648.023 756.57 648.023C755.422 648.023 754.365 648.27 753.398 648.762C752.432 649.236 751.603 649.947 750.91 650.895C750.217 651.842 749.68 653 749.297 654.367C748.914 655.734 748.723 657.311 748.723 659.098V660.246C748.723 661.65 748.914 662.971 749.297 664.211C749.698 665.432 750.272 666.508 751.02 667.438C751.785 668.367 752.706 669.096 753.781 669.625C754.875 670.154 756.115 670.418 757.5 670.418C759.286 670.418 760.799 670.053 762.039 669.324C763.279 668.595 764.363 667.62 765.293 666.398L768.355 668.832C767.717 669.798 766.906 670.719 765.922 671.594C764.938 672.469 763.725 673.18 762.285 673.727C760.863 674.273 759.177 674.547 757.227 674.547ZM804.832 654.176V668.75C804.34 669.479 803.556 670.299 802.48 671.211C801.405 672.104 799.919 672.888 798.023 673.562C796.146 674.219 793.721 674.547 790.75 674.547C788.326 674.547 786.092 674.128 784.051 673.289C782.027 672.432 780.268 671.193 778.773 669.57C777.297 667.93 776.148 665.943 775.328 663.609C774.526 661.258 774.125 658.596 774.125 655.625V652.535C774.125 649.564 774.471 646.911 775.164 644.578C775.875 642.245 776.914 640.267 778.281 638.645C779.648 637.004 781.326 635.764 783.312 634.926C785.299 634.069 787.578 633.641 790.148 633.641C793.193 633.641 795.736 634.169 797.777 635.227C799.837 636.266 801.441 637.706 802.59 639.547C803.757 641.388 804.504 643.484 804.832 645.836H799.555C799.318 644.396 798.844 643.083 798.133 641.898C797.44 640.714 796.447 639.766 795.152 639.055C793.858 638.326 792.19 637.961 790.148 637.961C788.307 637.961 786.712 638.298 785.363 638.973C784.014 639.647 782.902 640.613 782.027 641.871C781.152 643.129 780.496 644.651 780.059 646.438C779.639 648.224 779.43 650.238 779.43 652.48V655.625C779.43 657.922 779.694 659.973 780.223 661.777C780.77 663.582 781.544 665.122 782.547 666.398C783.549 667.656 784.743 668.613 786.129 669.27C787.533 669.926 789.082 670.254 790.777 670.254C792.655 670.254 794.177 670.099 795.344 669.789C796.51 669.461 797.422 669.078 798.078 668.641C798.734 668.185 799.236 667.757 799.582 667.355V658.441H790.367V654.176H804.832ZM830.918 667.164V644.414H836.004V674H831.164L830.918 667.164ZM831.875 660.93L833.98 660.875C833.98 662.844 833.771 664.667 833.352 666.344C832.951 668.003 832.294 669.443 831.383 670.664C830.471 671.885 829.277 672.842 827.801 673.535C826.324 674.21 824.529 674.547 822.414 674.547C820.974 674.547 819.652 674.337 818.449 673.918C817.264 673.499 816.243 672.852 815.387 671.977C814.53 671.102 813.865 669.962 813.391 668.559C812.935 667.155 812.707 665.469 812.707 663.5V644.414H817.766V663.555C817.766 664.885 817.911 665.988 818.203 666.863C818.513 667.72 818.923 668.404 819.434 668.914C819.962 669.406 820.546 669.753 821.184 669.953C821.84 670.154 822.514 670.254 823.207 670.254C825.358 670.254 827.062 669.844 828.32 669.023C829.578 668.185 830.48 667.064 831.027 665.66C831.592 664.238 831.875 662.661 831.875 660.93ZM860.941 666.152C860.941 665.423 860.777 664.749 860.449 664.129C860.139 663.491 859.492 662.917 858.508 662.406C857.542 661.878 856.083 661.422 854.133 661.039C852.492 660.693 851.007 660.283 849.676 659.809C848.363 659.335 847.242 658.76 846.312 658.086C845.401 657.411 844.699 656.618 844.207 655.707C843.715 654.796 843.469 653.729 843.469 652.508C843.469 651.341 843.724 650.238 844.234 649.199C844.763 648.16 845.501 647.24 846.449 646.438C847.415 645.635 848.573 645.007 849.922 644.551C851.271 644.095 852.775 643.867 854.434 643.867C856.803 643.867 858.827 644.286 860.504 645.125C862.181 645.964 863.466 647.085 864.359 648.488C865.253 649.874 865.699 651.414 865.699 653.109H860.641C860.641 652.289 860.395 651.496 859.902 650.73C859.428 649.947 858.727 649.299 857.797 648.789C856.885 648.279 855.764 648.023 854.434 648.023C853.03 648.023 851.891 648.242 851.016 648.68C850.159 649.099 849.53 649.637 849.129 650.293C848.746 650.949 848.555 651.642 848.555 652.371C848.555 652.918 848.646 653.41 848.828 653.848C849.029 654.267 849.375 654.659 849.867 655.023C850.359 655.37 851.052 655.698 851.945 656.008C852.839 656.318 853.978 656.628 855.363 656.938C857.788 657.484 859.784 658.141 861.352 658.906C862.919 659.672 864.086 660.611 864.852 661.723C865.617 662.835 866 664.184 866 665.77C866 667.064 865.727 668.249 865.18 669.324C864.651 670.4 863.876 671.329 862.855 672.113C861.853 672.879 860.65 673.48 859.246 673.918C857.861 674.337 856.302 674.547 854.57 674.547C851.964 674.547 849.758 674.082 847.953 673.152C846.148 672.223 844.781 671.02 843.852 669.543C842.922 668.066 842.457 666.508 842.457 664.867H847.543C847.616 666.253 848.017 667.355 848.746 668.176C849.475 668.978 850.368 669.552 851.426 669.898C852.483 670.227 853.531 670.391 854.57 670.391C855.956 670.391 857.113 670.208 858.043 669.844C858.991 669.479 859.711 668.978 860.203 668.34C860.695 667.702 860.941 666.973 860.941 666.152ZM885.031 644.414V648.297H869.035V644.414H885.031ZM874.449 637.223H879.508V666.672C879.508 667.674 879.663 668.431 879.973 668.941C880.283 669.452 880.684 669.789 881.176 669.953C881.668 670.117 882.197 670.199 882.762 670.199C883.181 670.199 883.618 670.163 884.074 670.09C884.548 669.999 884.904 669.926 885.141 669.871L885.168 674C884.767 674.128 884.238 674.246 883.582 674.355C882.944 674.483 882.169 674.547 881.258 674.547C880.018 674.547 878.879 674.301 877.84 673.809C876.801 673.316 875.971 672.496 875.352 671.348C874.75 670.181 874.449 668.613 874.449 666.645V637.223ZM889.078 659.535V658.906C889.078 656.773 889.388 654.796 890.008 652.973C890.628 651.132 891.521 649.536 892.688 648.188C893.854 646.82 895.267 645.763 896.926 645.016C898.585 644.25 900.444 643.867 902.504 643.867C904.582 643.867 906.451 644.25 908.109 645.016C909.786 645.763 911.208 646.82 912.375 648.188C913.56 649.536 914.462 651.132 915.082 652.973C915.702 654.796 916.012 656.773 916.012 658.906V659.535C916.012 661.668 915.702 663.646 915.082 665.469C914.462 667.292 913.56 668.887 912.375 670.254C911.208 671.603 909.796 672.66 908.137 673.426C906.496 674.173 904.637 674.547 902.559 674.547C900.48 674.547 898.612 674.173 896.953 673.426C895.294 672.66 893.872 671.603 892.688 670.254C891.521 668.887 890.628 667.292 890.008 665.469C889.388 663.646 889.078 661.668 889.078 659.535ZM894.137 658.906V659.535C894.137 661.012 894.31 662.406 894.656 663.719C895.003 665.013 895.522 666.161 896.215 667.164C896.926 668.167 897.81 668.96 898.867 669.543C899.924 670.108 901.155 670.391 902.559 670.391C903.944 670.391 905.156 670.108 906.195 669.543C907.253 668.96 908.128 668.167 908.82 667.164C909.513 666.161 910.033 665.013 910.379 663.719C910.743 662.406 910.926 661.012 910.926 659.535V658.906C910.926 657.448 910.743 656.072 910.379 654.777C910.033 653.465 909.504 652.307 908.793 651.305C908.1 650.284 907.225 649.482 906.168 648.898C905.129 648.315 903.908 648.023 902.504 648.023C901.118 648.023 899.897 648.315 898.84 648.898C897.801 649.482 896.926 650.284 896.215 651.305C895.522 652.307 895.003 653.465 894.656 654.777C894.31 656.072 894.137 657.448 894.137 658.906Z" fill="#8D8D99"/>
<defs>
<linearGradient id="paint0_linear_7901_4" x1="0" y1="540" x2="2435.5" y2="540" gradientUnits="userSpaceOnUse">
<stop stop-color="#09090A"/>
<stop offset="0.375" stop-color="#181719"/>
<stop offset="1" stop-color="#36343B"/>
<stop offset="1" stop-color="#39363D"/>
</linearGradient>
</defs>
</svg>
