<svg width="1920" height="1080" viewBox="0 0 1920 1080" fill="none" xmlns="http://www.w3.org/2000/svg">
<rect width="1920" height="1080" fill="url(#paint0_linear_7901_4)"/>
<path d="M234.258 472.82V487H198.809V472.82H234.258ZM204.082 401.688V487H186.914V401.688H204.082ZM269.062 488.172C264.727 488.172 260.879 487.508 257.52 486.18C254.199 484.852 251.387 482.938 249.082 480.438C246.777 477.898 245.02 474.832 243.809 471.238C242.598 467.645 241.992 463.543 241.992 458.934V453.719C241.992 448.562 242.578 444.051 243.75 440.184C244.922 436.277 246.582 432.996 248.73 430.34C250.879 427.684 253.516 425.711 256.641 424.422C259.805 423.094 263.379 422.43 267.363 422.43C271.348 422.43 274.844 423.094 277.852 424.422C280.898 425.711 283.418 427.664 285.41 430.281C287.402 432.859 288.906 436.062 289.922 439.891C290.938 443.719 291.445 448.172 291.445 453.25V460.75H248.965V449.207H275.332V447.742C275.332 445.164 275.059 443.016 274.512 441.297C273.965 439.539 273.105 438.23 271.934 437.371C270.762 436.512 269.199 436.082 267.246 436.082C265.605 436.082 264.219 436.414 263.086 437.078C261.953 437.742 261.055 438.777 260.391 440.184C259.727 441.59 259.238 443.426 258.926 445.691C258.613 447.918 258.457 450.594 258.457 453.719V458.934C258.457 461.863 258.711 464.324 259.219 466.316C259.727 468.27 260.469 469.871 261.445 471.121C262.461 472.332 263.691 473.211 265.137 473.758C266.582 474.266 268.262 474.52 270.176 474.52C273.066 474.52 275.664 474.012 277.969 472.996C280.312 471.941 282.305 470.516 283.945 468.719L290.508 478.68C289.375 480.164 287.812 481.648 285.82 483.133C283.828 484.617 281.445 485.828 278.672 486.766C275.898 487.703 272.695 488.172 269.062 488.172ZM318.164 423.602V487H301.699V423.602H318.164ZM300.938 407.137C300.938 404.598 301.738 402.508 303.34 400.867C304.98 399.227 307.188 398.406 309.961 398.406C312.695 398.406 314.863 399.227 316.465 400.867C318.066 402.508 318.867 404.598 318.867 407.137C318.867 409.676 318.066 411.785 316.465 413.465C314.863 415.105 312.695 415.926 309.961 415.926C307.188 415.926 304.98 415.105 303.34 413.465C301.738 411.785 300.938 409.676 300.938 407.137ZM358.828 423.602V435.965H326.484V423.602H358.828ZM333.926 407.957H350.273V467.664C350.273 469.383 350.449 470.73 350.801 471.707C351.152 472.645 351.68 473.309 352.383 473.699C353.125 474.051 354.082 474.227 355.254 474.227C356.113 474.227 356.895 474.188 357.598 474.109C358.301 473.992 358.828 473.875 359.18 473.758V486.59C357.891 487.098 356.523 487.488 355.078 487.762C353.672 488.035 351.992 488.172 350.039 488.172C346.758 488.172 343.906 487.566 341.484 486.355C339.102 485.105 337.246 483.094 335.918 480.32C334.59 477.547 333.926 473.914 333.926 469.422V407.957ZM364.336 457.469V453.191C364.336 448.23 364.922 443.836 366.094 440.008C367.305 436.18 369.023 432.977 371.25 430.398C373.477 427.781 376.152 425.809 379.277 424.48C382.441 423.113 385.977 422.43 389.883 422.43C393.828 422.43 397.363 423.113 400.488 424.48C403.652 425.809 406.348 427.781 408.574 430.398C410.84 432.977 412.578 436.18 413.789 440.008C415 443.836 415.605 448.23 415.605 453.191V457.469C415.605 462.391 415 466.766 413.789 470.594C412.578 474.422 410.84 477.645 408.574 480.262C406.348 482.879 403.672 484.852 400.547 486.18C397.422 487.508 393.906 488.172 390 488.172C386.094 488.172 382.559 487.508 379.395 486.18C376.27 484.852 373.574 482.879 371.309 480.262C369.043 477.645 367.305 474.422 366.094 470.594C364.922 466.766 364.336 462.391 364.336 457.469ZM380.742 453.191V457.469C380.742 460.398 380.938 462.938 381.328 465.086C381.758 467.234 382.363 469.012 383.145 470.418C383.965 471.824 384.941 472.859 386.074 473.523C387.207 474.188 388.516 474.52 390 474.52C391.484 474.52 392.812 474.188 393.984 473.523C395.156 472.859 396.113 471.824 396.855 470.418C397.637 469.012 398.203 467.234 398.555 465.086C398.945 462.938 399.141 460.398 399.141 457.469V453.191C399.141 450.34 398.926 447.84 398.496 445.691C398.066 443.504 397.461 441.727 396.68 440.359C395.898 438.953 394.922 437.898 393.75 437.195C392.617 436.453 391.328 436.082 389.883 436.082C388.438 436.082 387.148 436.453 386.016 437.195C384.922 437.898 383.965 438.953 383.145 440.359C382.363 441.727 381.758 443.504 381.328 445.691C380.938 447.84 380.742 450.34 380.742 453.191ZM442.383 437.723V487H425.977V423.602H441.445L442.383 437.723ZM457.324 423.133L457.09 439.48C456.348 439.324 455.449 439.207 454.395 439.129C453.379 439.051 452.48 439.012 451.699 439.012C449.863 439.012 448.301 439.305 447.012 439.891C445.723 440.438 444.648 441.277 443.789 442.41C442.969 443.504 442.344 444.871 441.914 446.512C441.484 448.152 441.23 450.008 441.152 452.078L438.047 450.906C438.047 446.766 438.359 442.977 438.984 439.539C439.648 436.062 440.625 433.055 441.914 430.516C443.203 427.938 444.746 425.945 446.543 424.539C448.379 423.133 450.449 422.43 452.754 422.43C453.535 422.43 454.355 422.508 455.215 422.664C456.113 422.781 456.816 422.938 457.324 423.133ZM553.828 401.688V487H537.246L510.469 433.621V487H494.18V401.688H510.527L537.539 455.652V401.688H553.828ZM584.824 401.688V487H567.656V401.688H584.824ZM611.543 437.957V452.137H580.488V437.957H611.543ZM614.824 401.688V415.926H580.488V401.688H614.824ZM665.508 458.582H682.559C682.324 464.988 681.035 470.398 678.691 474.812C676.348 479.188 673.008 482.508 668.672 484.773C664.375 487.039 659.18 488.172 653.086 488.172C648.359 488.172 644.16 487.391 640.488 485.828C636.816 484.227 633.691 481.883 631.113 478.797C628.535 475.711 626.582 471.902 625.254 467.371C623.965 462.801 623.32 457.547 623.32 451.609V437.137C623.32 431.199 624.004 425.945 625.371 421.375C626.777 416.805 628.77 412.977 631.348 409.891C633.965 406.766 637.109 404.422 640.781 402.859C644.492 401.258 648.672 400.457 653.32 400.457C659.531 400.457 664.727 401.629 668.906 403.973C673.086 406.316 676.309 409.734 678.574 414.227C680.879 418.68 682.266 424.129 682.734 430.574H665.566C665.488 426.512 665.039 423.328 664.219 421.023C663.438 418.68 662.188 417.039 660.469 416.102C658.75 415.125 656.367 414.637 653.32 414.637C651.055 414.637 649.102 415.047 647.461 415.867C645.82 416.648 644.473 417.918 643.418 419.676C642.363 421.434 641.582 423.738 641.074 426.59C640.605 429.441 640.371 432.918 640.371 437.02V451.609C640.371 455.633 640.586 459.07 641.016 461.922C641.445 464.734 642.129 467.039 643.066 468.836C644.004 470.633 645.273 471.941 646.875 472.762C648.516 473.582 650.586 473.992 653.086 473.992C655.977 473.992 658.301 473.562 660.059 472.703C661.855 471.844 663.184 470.301 664.043 468.074C664.902 465.848 665.391 462.684 665.508 458.582ZM718.008 488.172C713.672 488.172 709.824 487.508 706.465 486.18C703.145 484.852 700.332 482.938 698.027 480.438C695.723 477.898 693.965 474.832 692.754 471.238C691.543 467.645 690.938 463.543 690.938 458.934V453.719C690.938 448.562 691.523 444.051 692.695 440.184C693.867 436.277 695.527 432.996 697.676 430.34C699.824 427.684 702.461 425.711 705.586 424.422C708.75 423.094 712.324 422.43 716.309 422.43C720.293 422.43 723.789 423.094 726.797 424.422C729.844 425.711 732.363 427.664 734.355 430.281C736.348 432.859 737.852 436.062 738.867 439.891C739.883 443.719 740.391 448.172 740.391 453.25V460.75H697.91V449.207H724.277V447.742C724.277 445.164 724.004 443.016 723.457 441.297C722.91 439.539 722.051 438.23 720.879 437.371C719.707 436.512 718.145 436.082 716.191 436.082C714.551 436.082 713.164 436.414 712.031 437.078C710.898 437.742 710 438.777 709.336 440.184C708.672 441.59 708.184 443.426 707.871 445.691C707.559 447.918 707.402 450.594 707.402 453.719V458.934C707.402 461.863 707.656 464.324 708.164 466.316C708.672 468.27 709.414 469.871 710.391 471.121C711.406 472.332 712.637 473.211 714.082 473.758C715.527 474.266 717.207 474.52 719.121 474.52C722.012 474.52 724.609 474.012 726.914 472.996C729.258 471.941 731.25 470.516 732.891 468.719L739.453 478.68C738.32 480.164 736.758 481.648 734.766 483.133C732.773 484.617 730.391 485.828 727.617 486.766C724.844 487.703 721.641 488.172 718.008 488.172Z" fill="white"/>
<path d="M208.766 591.707V596H188.859V591.707H208.766ZM189.898 556.188V596H184.621V556.188H189.898ZM226.32 596.547C224.26 596.547 222.392 596.201 220.715 595.508C219.056 594.797 217.625 593.803 216.422 592.527C215.237 591.251 214.326 589.738 213.688 587.988C213.049 586.238 212.73 584.324 212.73 582.246V581.098C212.73 578.691 213.086 576.549 213.797 574.672C214.508 572.776 215.474 571.172 216.695 569.859C217.917 568.547 219.302 567.553 220.852 566.879C222.401 566.204 224.005 565.867 225.664 565.867C227.779 565.867 229.602 566.232 231.133 566.961C232.682 567.69 233.949 568.711 234.934 570.023C235.918 571.318 236.647 572.849 237.121 574.617C237.595 576.367 237.832 578.281 237.832 580.359V582.629H215.738V578.5H232.773V578.117C232.701 576.805 232.427 575.529 231.953 574.289C231.497 573.049 230.768 572.029 229.766 571.227C228.763 570.424 227.396 570.023 225.664 570.023C224.516 570.023 223.458 570.27 222.492 570.762C221.526 571.236 220.697 571.947 220.004 572.895C219.311 573.842 218.773 575 218.391 576.367C218.008 577.734 217.816 579.311 217.816 581.098V582.246C217.816 583.65 218.008 584.971 218.391 586.211C218.792 587.432 219.366 588.508 220.113 589.438C220.879 590.367 221.799 591.096 222.875 591.625C223.969 592.154 225.208 592.418 226.594 592.418C228.38 592.418 229.893 592.053 231.133 591.324C232.372 590.595 233.457 589.62 234.387 588.398L237.449 590.832C236.811 591.798 236 592.719 235.016 593.594C234.031 594.469 232.819 595.18 231.379 595.727C229.957 596.273 228.271 596.547 226.32 596.547ZM249.234 566.414V596H244.148V566.414H249.234ZM243.766 558.566C243.766 557.746 244.012 557.053 244.504 556.488C245.014 555.923 245.762 555.641 246.746 555.641C247.712 555.641 248.451 555.923 248.961 556.488C249.49 557.053 249.754 557.746 249.754 558.566C249.754 559.35 249.49 560.025 248.961 560.59C248.451 561.137 247.712 561.41 246.746 561.41C245.762 561.41 245.014 561.137 244.504 560.59C244.012 560.025 243.766 559.35 243.766 558.566ZM269.742 566.414V570.297H253.746V566.414H269.742ZM259.16 559.223H264.219V588.672C264.219 589.674 264.374 590.431 264.684 590.941C264.993 591.452 265.395 591.789 265.887 591.953C266.379 592.117 266.908 592.199 267.473 592.199C267.892 592.199 268.329 592.163 268.785 592.09C269.259 591.999 269.615 591.926 269.852 591.871L269.879 596C269.478 596.128 268.949 596.246 268.293 596.355C267.655 596.483 266.88 596.547 265.969 596.547C264.729 596.547 263.59 596.301 262.551 595.809C261.512 595.316 260.682 594.496 260.062 593.348C259.461 592.181 259.16 590.613 259.16 588.645V559.223ZM273.789 581.535V580.906C273.789 578.773 274.099 576.796 274.719 574.973C275.339 573.132 276.232 571.536 277.398 570.188C278.565 568.82 279.978 567.763 281.637 567.016C283.296 566.25 285.155 565.867 287.215 565.867C289.293 565.867 291.161 566.25 292.82 567.016C294.497 567.763 295.919 568.82 297.086 570.188C298.271 571.536 299.173 573.132 299.793 574.973C300.413 576.796 300.723 578.773 300.723 580.906V581.535C300.723 583.668 300.413 585.646 299.793 587.469C299.173 589.292 298.271 590.887 297.086 592.254C295.919 593.603 294.507 594.66 292.848 595.426C291.207 596.173 289.348 596.547 287.27 596.547C285.191 596.547 283.323 596.173 281.664 595.426C280.005 594.66 278.583 593.603 277.398 592.254C276.232 590.887 275.339 589.292 274.719 587.469C274.099 585.646 273.789 583.668 273.789 581.535ZM278.848 580.906V581.535C278.848 583.012 279.021 584.406 279.367 585.719C279.714 587.013 280.233 588.161 280.926 589.164C281.637 590.167 282.521 590.96 283.578 591.543C284.635 592.108 285.866 592.391 287.27 592.391C288.655 592.391 289.867 592.108 290.906 591.543C291.964 590.96 292.839 590.167 293.531 589.164C294.224 588.161 294.743 587.013 295.09 585.719C295.454 584.406 295.637 583.012 295.637 581.535V580.906C295.637 579.448 295.454 578.072 295.09 576.777C294.743 575.465 294.215 574.307 293.504 573.305C292.811 572.284 291.936 571.482 290.879 570.898C289.84 570.315 288.618 570.023 287.215 570.023C285.829 570.023 284.608 570.315 283.551 570.898C282.512 571.482 281.637 572.284 280.926 573.305C280.233 574.307 279.714 575.465 279.367 576.777C279.021 578.072 278.848 579.448 278.848 580.906ZM312.125 571.062V596H307.066V566.414H311.988L312.125 571.062ZM321.367 566.25L321.34 570.953C320.921 570.862 320.52 570.807 320.137 570.789C319.772 570.753 319.353 570.734 318.879 570.734C317.712 570.734 316.682 570.917 315.789 571.281C314.896 571.646 314.139 572.156 313.52 572.812C312.9 573.469 312.408 574.253 312.043 575.164C311.697 576.057 311.469 577.042 311.359 578.117L309.938 578.938C309.938 577.151 310.111 575.474 310.457 573.906C310.822 572.339 311.378 570.953 312.125 569.75C312.872 568.529 313.82 567.581 314.969 566.906C316.135 566.214 317.521 565.867 319.125 565.867C319.49 565.867 319.909 565.913 320.383 566.004C320.857 566.077 321.185 566.159 321.367 566.25ZM358.582 590.258V554H363.668V596H359.02L358.582 590.258ZM338.676 581.535V580.961C338.676 578.701 338.949 576.65 339.496 574.809C340.061 572.949 340.854 571.354 341.875 570.023C342.914 568.693 344.145 567.672 345.566 566.961C347.007 566.232 348.611 565.867 350.379 565.867C352.238 565.867 353.861 566.195 355.246 566.852C356.65 567.49 357.835 568.428 358.801 569.668C359.785 570.889 360.56 572.366 361.125 574.098C361.69 575.829 362.082 577.789 362.301 579.977V582.492C362.1 584.661 361.708 586.612 361.125 588.344C360.56 590.076 359.785 591.552 358.801 592.773C357.835 593.995 356.65 594.934 355.246 595.59C353.842 596.228 352.202 596.547 350.324 596.547C348.592 596.547 347.007 596.173 345.566 595.426C344.145 594.678 342.914 593.63 341.875 592.281C340.854 590.932 340.061 589.346 339.496 587.523C338.949 585.682 338.676 583.686 338.676 581.535ZM343.762 580.961V581.535C343.762 583.012 343.908 584.397 344.199 585.691C344.509 586.986 344.983 588.125 345.621 589.109C346.259 590.094 347.07 590.868 348.055 591.434C349.039 591.98 350.215 592.254 351.582 592.254C353.259 592.254 354.635 591.898 355.711 591.188C356.805 590.477 357.68 589.538 358.336 588.371C358.992 587.204 359.503 585.938 359.867 584.57V577.98C359.648 576.978 359.329 576.012 358.91 575.082C358.509 574.134 357.98 573.296 357.324 572.566C356.686 571.819 355.893 571.227 354.945 570.789C354.016 570.352 352.913 570.133 351.637 570.133C350.251 570.133 349.057 570.424 348.055 571.008C347.07 571.573 346.259 572.357 345.621 573.359C344.983 574.344 344.509 575.492 344.199 576.805C343.908 578.099 343.762 579.484 343.762 580.961ZM370.203 581.535V580.906C370.203 578.773 370.513 576.796 371.133 574.973C371.753 573.132 372.646 571.536 373.812 570.188C374.979 568.82 376.392 567.763 378.051 567.016C379.71 566.25 381.569 565.867 383.629 565.867C385.707 565.867 387.576 566.25 389.234 567.016C390.911 567.763 392.333 568.82 393.5 570.188C394.685 571.536 395.587 573.132 396.207 574.973C396.827 576.796 397.137 578.773 397.137 580.906V581.535C397.137 583.668 396.827 585.646 396.207 587.469C395.587 589.292 394.685 590.887 393.5 592.254C392.333 593.603 390.921 594.66 389.262 595.426C387.621 596.173 385.762 596.547 383.684 596.547C381.605 596.547 379.737 596.173 378.078 595.426C376.419 594.66 374.997 593.603 373.812 592.254C372.646 590.887 371.753 589.292 371.133 587.469C370.513 585.646 370.203 583.668 370.203 581.535ZM375.262 580.906V581.535C375.262 583.012 375.435 584.406 375.781 585.719C376.128 587.013 376.647 588.161 377.34 589.164C378.051 590.167 378.935 590.96 379.992 591.543C381.049 592.108 382.28 592.391 383.684 592.391C385.069 592.391 386.281 592.108 387.32 591.543C388.378 590.96 389.253 590.167 389.945 589.164C390.638 588.161 391.158 587.013 391.504 585.719C391.868 584.406 392.051 583.012 392.051 581.535V580.906C392.051 579.448 391.868 578.072 391.504 576.777C391.158 575.465 390.629 574.307 389.918 573.305C389.225 572.284 388.35 571.482 387.293 570.898C386.254 570.315 385.033 570.023 383.629 570.023C382.243 570.023 381.022 570.315 379.965 570.898C378.926 571.482 378.051 572.284 377.34 573.305C376.647 574.307 376.128 575.465 375.781 576.777C375.435 578.072 375.262 579.448 375.262 580.906ZM438.562 591.434L448.68 599.445L445.125 602.727L435.172 594.824L438.562 591.434ZM448.543 574.836V577.352C448.543 580.341 448.169 583.021 447.422 585.391C446.674 587.76 445.599 589.775 444.195 591.434C442.792 593.092 441.105 594.359 439.137 595.234C437.186 596.109 434.999 596.547 432.574 596.547C430.223 596.547 428.062 596.109 426.094 595.234C424.143 594.359 422.448 593.092 421.008 591.434C419.586 589.775 418.483 587.76 417.699 585.391C416.915 583.021 416.523 580.341 416.523 577.352V574.836C416.523 571.846 416.906 569.176 417.672 566.824C418.456 564.454 419.559 562.44 420.98 560.781C422.402 559.104 424.089 557.828 426.039 556.953C428.008 556.078 430.168 555.641 432.52 555.641C434.944 555.641 437.141 556.078 439.109 556.953C441.078 557.828 442.764 559.104 444.168 560.781C445.572 562.44 446.647 564.454 447.395 566.824C448.16 569.176 448.543 571.846 448.543 574.836ZM443.32 577.352V574.781C443.32 572.411 443.074 570.315 442.582 568.492C442.108 566.669 441.406 565.138 440.477 563.898C439.547 562.659 438.417 561.72 437.086 561.082C435.755 560.444 434.233 560.125 432.52 560.125C430.897 560.125 429.421 560.444 428.09 561.082C426.777 561.72 425.647 562.659 424.699 563.898C423.751 565.138 423.022 566.669 422.512 568.492C422.001 570.315 421.746 572.411 421.746 574.781V577.352C421.746 579.74 422.001 581.854 422.512 583.695C423.022 585.518 423.751 587.059 424.699 588.316C425.665 589.556 426.814 590.495 428.145 591.133C429.475 591.771 430.952 592.09 432.574 592.09C434.288 592.09 435.81 591.771 437.141 591.133C438.471 590.495 439.592 589.556 440.504 588.316C441.434 587.059 442.135 585.518 442.609 583.695C443.083 581.854 443.32 579.74 443.32 577.352ZM456.691 556.188H469.871C472.861 556.188 475.385 556.643 477.445 557.555C479.523 558.466 481.1 559.815 482.176 561.602C483.27 563.37 483.816 565.548 483.816 568.137C483.816 569.96 483.443 571.628 482.695 573.141C481.966 574.635 480.909 575.911 479.523 576.969C478.156 578.008 476.516 578.783 474.602 579.293L473.125 579.867H460.738L460.684 575.574H470.035C471.931 575.574 473.508 575.246 474.766 574.59C476.023 573.915 476.971 573.013 477.609 571.883C478.247 570.753 478.566 569.504 478.566 568.137C478.566 566.605 478.266 565.266 477.664 564.117C477.062 562.969 476.115 562.085 474.82 561.465C473.544 560.827 471.895 560.508 469.871 560.508H461.969V596H456.691V556.188ZM479.961 596L470.281 577.953L475.777 577.926L485.594 595.672V596H479.961ZM529.125 583.34H534.375C534.102 585.855 533.382 588.107 532.215 590.094C531.048 592.081 529.398 593.658 527.266 594.824C525.133 595.973 522.471 596.547 519.281 596.547C516.948 596.547 514.824 596.109 512.91 595.234C511.014 594.359 509.383 593.12 508.016 591.516C506.648 589.893 505.591 587.952 504.844 585.691C504.115 583.413 503.75 580.879 503.75 578.09V574.125C503.75 571.336 504.115 568.811 504.844 566.551C505.591 564.272 506.658 562.322 508.043 560.699C509.447 559.077 511.133 557.828 513.102 556.953C515.07 556.078 517.285 555.641 519.746 555.641C522.754 555.641 525.297 556.206 527.375 557.336C529.453 558.466 531.066 560.034 532.215 562.039C533.382 564.026 534.102 566.332 534.375 568.957H529.125C528.87 567.098 528.396 565.503 527.703 564.172C527.01 562.823 526.026 561.784 524.75 561.055C523.474 560.326 521.806 559.961 519.746 559.961C517.978 559.961 516.419 560.298 515.07 560.973C513.74 561.647 512.618 562.604 511.707 563.844C510.814 565.083 510.139 566.569 509.684 568.301C509.228 570.033 509 571.956 509 574.07V578.09C509 580.04 509.201 581.872 509.602 583.586C510.021 585.299 510.65 586.803 511.488 588.098C512.327 589.392 513.393 590.413 514.688 591.16C515.982 591.889 517.513 592.254 519.281 592.254C521.523 592.254 523.31 591.898 524.641 591.188C525.971 590.477 526.974 589.456 527.648 588.125C528.341 586.794 528.833 585.199 529.125 583.34ZM539.461 581.535V580.906C539.461 578.773 539.771 576.796 540.391 574.973C541.01 573.132 541.904 571.536 543.07 570.188C544.237 568.82 545.65 567.763 547.309 567.016C548.967 566.25 550.827 565.867 552.887 565.867C554.965 565.867 556.833 566.25 558.492 567.016C560.169 567.763 561.591 568.82 562.758 570.188C563.943 571.536 564.845 573.132 565.465 574.973C566.085 576.796 566.395 578.773 566.395 580.906V581.535C566.395 583.668 566.085 585.646 565.465 587.469C564.845 589.292 563.943 590.887 562.758 592.254C561.591 593.603 560.178 594.66 558.52 595.426C556.879 596.173 555.02 596.547 552.941 596.547C550.863 596.547 548.995 596.173 547.336 595.426C545.677 594.66 544.255 593.603 543.07 592.254C541.904 590.887 541.01 589.292 540.391 587.469C539.771 585.646 539.461 583.668 539.461 581.535ZM544.52 580.906V581.535C544.52 583.012 544.693 584.406 545.039 585.719C545.385 587.013 545.905 588.161 546.598 589.164C547.309 590.167 548.193 590.96 549.25 591.543C550.307 592.108 551.538 592.391 552.941 592.391C554.327 592.391 555.539 592.108 556.578 591.543C557.635 590.96 558.51 590.167 559.203 589.164C559.896 588.161 560.415 587.013 560.762 585.719C561.126 584.406 561.309 583.012 561.309 581.535V580.906C561.309 579.448 561.126 578.072 560.762 576.777C560.415 575.465 559.887 574.307 559.176 573.305C558.483 572.284 557.608 571.482 556.551 570.898C555.512 570.315 554.29 570.023 552.887 570.023C551.501 570.023 550.28 570.315 549.223 570.898C548.184 571.482 547.309 572.284 546.598 573.305C545.905 574.307 545.385 575.465 545.039 576.777C544.693 578.072 544.52 579.448 544.52 580.906ZM591.387 590.258V554H596.473V596H591.824L591.387 590.258ZM571.48 581.535V580.961C571.48 578.701 571.754 576.65 572.301 574.809C572.866 572.949 573.659 571.354 574.68 570.023C575.719 568.693 576.949 567.672 578.371 566.961C579.811 566.232 581.415 565.867 583.184 565.867C585.043 565.867 586.665 566.195 588.051 566.852C589.454 567.49 590.639 568.428 591.605 569.668C592.59 570.889 593.365 572.366 593.93 574.098C594.495 575.829 594.887 577.789 595.105 579.977V582.492C594.905 584.661 594.513 586.612 593.93 588.344C593.365 590.076 592.59 591.552 591.605 592.773C590.639 593.995 589.454 594.934 588.051 595.59C586.647 596.228 585.007 596.547 583.129 596.547C581.397 596.547 579.811 596.173 578.371 595.426C576.949 594.678 575.719 593.63 574.68 592.281C573.659 590.932 572.866 589.346 572.301 587.523C571.754 585.682 571.48 583.686 571.48 581.535ZM576.566 580.961V581.535C576.566 583.012 576.712 584.397 577.004 585.691C577.314 586.986 577.788 588.125 578.426 589.109C579.064 590.094 579.875 590.868 580.859 591.434C581.844 591.98 583.02 592.254 584.387 592.254C586.064 592.254 587.44 591.898 588.516 591.188C589.609 590.477 590.484 589.538 591.141 588.371C591.797 587.204 592.307 585.938 592.672 584.57V577.98C592.453 576.978 592.134 576.012 591.715 575.082C591.314 574.134 590.785 573.296 590.129 572.566C589.491 571.819 588.698 571.227 587.75 570.789C586.82 570.352 585.717 570.133 584.441 570.133C583.056 570.133 581.862 570.424 580.859 571.008C579.875 571.573 579.064 572.357 578.426 573.359C577.788 574.344 577.314 575.492 577.004 576.805C576.712 578.099 576.566 579.484 576.566 580.961ZM616.625 596.547C614.565 596.547 612.697 596.201 611.02 595.508C609.361 594.797 607.93 593.803 606.727 592.527C605.542 591.251 604.63 589.738 603.992 587.988C603.354 586.238 603.035 584.324 603.035 582.246V581.098C603.035 578.691 603.391 576.549 604.102 574.672C604.812 572.776 605.779 571.172 607 569.859C608.221 568.547 609.607 567.553 611.156 566.879C612.706 566.204 614.31 565.867 615.969 565.867C618.083 565.867 619.906 566.232 621.438 566.961C622.987 567.69 624.254 568.711 625.238 570.023C626.223 571.318 626.952 572.849 627.426 574.617C627.9 576.367 628.137 578.281 628.137 580.359V582.629H606.043V578.5H623.078V578.117C623.005 576.805 622.732 575.529 622.258 574.289C621.802 573.049 621.073 572.029 620.07 571.227C619.068 570.424 617.701 570.023 615.969 570.023C614.82 570.023 613.763 570.27 612.797 570.762C611.831 571.236 611.001 571.947 610.309 572.895C609.616 573.842 609.078 575 608.695 576.367C608.312 577.734 608.121 579.311 608.121 581.098V582.246C608.121 583.65 608.312 584.971 608.695 586.211C609.096 587.432 609.671 588.508 610.418 589.438C611.184 590.367 612.104 591.096 613.18 591.625C614.273 592.154 615.513 592.418 616.898 592.418C618.685 592.418 620.198 592.053 621.438 591.324C622.677 590.595 623.762 589.62 624.691 588.398L627.754 590.832C627.116 591.798 626.305 592.719 625.32 593.594C624.336 594.469 623.124 595.18 621.684 595.727C620.262 596.273 618.576 596.547 616.625 596.547ZM666.582 590.258V554H671.668V596H667.02L666.582 590.258ZM646.676 581.535V580.961C646.676 578.701 646.949 576.65 647.496 574.809C648.061 572.949 648.854 571.354 649.875 570.023C650.914 568.693 652.145 567.672 653.566 566.961C655.007 566.232 656.611 565.867 658.379 565.867C660.238 565.867 661.861 566.195 663.246 566.852C664.65 567.49 665.835 568.428 666.801 569.668C667.785 570.889 668.56 572.366 669.125 574.098C669.69 575.829 670.082 577.789 670.301 579.977V582.492C670.1 584.661 669.708 586.612 669.125 588.344C668.56 590.076 667.785 591.552 666.801 592.773C665.835 593.995 664.65 594.934 663.246 595.59C661.842 596.228 660.202 596.547 658.324 596.547C656.592 596.547 655.007 596.173 653.566 595.426C652.145 594.678 650.914 593.63 649.875 592.281C648.854 590.932 648.061 589.346 647.496 587.523C646.949 585.682 646.676 583.686 646.676 581.535ZM651.762 580.961V581.535C651.762 583.012 651.908 584.397 652.199 585.691C652.509 586.986 652.983 588.125 653.621 589.109C654.259 590.094 655.07 590.868 656.055 591.434C657.039 591.98 658.215 592.254 659.582 592.254C661.259 592.254 662.635 591.898 663.711 591.188C664.805 590.477 665.68 589.538 666.336 588.371C666.992 587.204 667.503 585.938 667.867 584.57V577.98C667.648 576.978 667.329 576.012 666.91 575.082C666.509 574.134 665.98 573.296 665.324 572.566C664.686 571.819 663.893 571.227 662.945 570.789C662.016 570.352 660.913 570.133 659.637 570.133C658.251 570.133 657.057 570.424 656.055 571.008C655.07 571.573 654.259 572.357 653.621 573.359C652.983 574.344 652.509 575.492 652.199 576.805C651.908 578.099 651.762 579.484 651.762 580.961ZM696.988 590.941V575.711C696.988 574.544 696.751 573.533 696.277 572.676C695.822 571.801 695.129 571.126 694.199 570.652C693.27 570.178 692.121 569.941 690.754 569.941C689.478 569.941 688.357 570.16 687.391 570.598C686.443 571.035 685.695 571.609 685.148 572.32C684.62 573.031 684.355 573.797 684.355 574.617H679.297C679.297 573.56 679.57 572.512 680.117 571.473C680.664 570.434 681.448 569.495 682.469 568.656C683.508 567.799 684.747 567.125 686.188 566.633C687.646 566.122 689.268 565.867 691.055 565.867C693.206 565.867 695.102 566.232 696.742 566.961C698.401 567.69 699.695 568.793 700.625 570.27C701.573 571.728 702.047 573.56 702.047 575.766V589.547C702.047 590.531 702.129 591.579 702.293 592.691C702.475 593.803 702.74 594.76 703.086 595.562V596H697.809C697.553 595.417 697.353 594.642 697.207 593.676C697.061 592.691 696.988 591.78 696.988 590.941ZM697.863 578.062L697.918 581.617H692.805C691.365 581.617 690.079 581.736 688.949 581.973C687.819 582.191 686.871 582.529 686.105 582.984C685.34 583.44 684.757 584.014 684.355 584.707C683.954 585.382 683.754 586.174 683.754 587.086C683.754 588.016 683.964 588.863 684.383 589.629C684.802 590.395 685.431 591.005 686.27 591.461C687.126 591.898 688.174 592.117 689.414 592.117C690.964 592.117 692.331 591.789 693.516 591.133C694.701 590.477 695.639 589.674 696.332 588.727C697.043 587.779 697.426 586.858 697.48 585.965L699.641 588.398C699.513 589.164 699.167 590.012 698.602 590.941C698.036 591.871 697.28 592.764 696.332 593.621C695.402 594.46 694.29 595.161 692.996 595.727C691.72 596.273 690.28 596.547 688.676 596.547C686.671 596.547 684.911 596.155 683.398 595.371C681.904 594.587 680.737 593.539 679.898 592.227C679.078 590.896 678.668 589.41 678.668 587.77C678.668 586.184 678.978 584.789 679.598 583.586C680.217 582.365 681.111 581.353 682.277 580.551C683.444 579.73 684.848 579.111 686.488 578.691C688.129 578.272 689.961 578.062 691.984 578.062H697.863ZM727.23 588.152C727.23 587.423 727.066 586.749 726.738 586.129C726.428 585.491 725.781 584.917 724.797 584.406C723.831 583.878 722.372 583.422 720.422 583.039C718.781 582.693 717.296 582.283 715.965 581.809C714.652 581.335 713.531 580.76 712.602 580.086C711.69 579.411 710.988 578.618 710.496 577.707C710.004 576.796 709.758 575.729 709.758 574.508C709.758 573.341 710.013 572.238 710.523 571.199C711.052 570.16 711.79 569.24 712.738 568.438C713.704 567.635 714.862 567.007 716.211 566.551C717.56 566.095 719.064 565.867 720.723 565.867C723.092 565.867 725.116 566.286 726.793 567.125C728.47 567.964 729.755 569.085 730.648 570.488C731.542 571.874 731.988 573.414 731.988 575.109H726.93C726.93 574.289 726.684 573.496 726.191 572.73C725.717 571.947 725.016 571.299 724.086 570.789C723.174 570.279 722.053 570.023 720.723 570.023C719.319 570.023 718.18 570.242 717.305 570.68C716.448 571.099 715.819 571.637 715.418 572.293C715.035 572.949 714.844 573.642 714.844 574.371C714.844 574.918 714.935 575.41 715.117 575.848C715.318 576.267 715.664 576.659 716.156 577.023C716.648 577.37 717.341 577.698 718.234 578.008C719.128 578.318 720.267 578.628 721.652 578.938C724.077 579.484 726.073 580.141 727.641 580.906C729.208 581.672 730.375 582.611 731.141 583.723C731.906 584.835 732.289 586.184 732.289 587.77C732.289 589.064 732.016 590.249 731.469 591.324C730.94 592.4 730.165 593.329 729.145 594.113C728.142 594.879 726.939 595.48 725.535 595.918C724.15 596.337 722.591 596.547 720.859 596.547C718.253 596.547 716.047 596.082 714.242 595.152C712.438 594.223 711.07 593.02 710.141 591.543C709.211 590.066 708.746 588.508 708.746 586.867H713.832C713.905 588.253 714.306 589.355 715.035 590.176C715.764 590.978 716.658 591.552 717.715 591.898C718.772 592.227 719.82 592.391 720.859 592.391C722.245 592.391 723.402 592.208 724.332 591.844C725.28 591.479 726 590.978 726.492 590.34C726.984 589.702 727.23 588.973 727.23 588.152ZM757.883 572.73V596H752.824V566.414H757.609L757.883 572.73ZM756.68 580.086L754.574 580.004C754.592 577.98 754.893 576.112 755.477 574.398C756.06 572.667 756.88 571.163 757.938 569.887C758.995 568.611 760.253 567.626 761.711 566.934C763.188 566.223 764.819 565.867 766.605 565.867C768.064 565.867 769.376 566.068 770.543 566.469C771.71 566.852 772.703 567.471 773.523 568.328C774.362 569.185 775 570.297 775.438 571.664C775.875 573.013 776.094 574.663 776.094 576.613V596H771.008V576.559C771.008 575.009 770.78 573.77 770.324 572.84C769.868 571.892 769.203 571.208 768.328 570.789C767.453 570.352 766.378 570.133 765.102 570.133C763.844 570.133 762.695 570.397 761.656 570.926C760.635 571.454 759.751 572.184 759.004 573.113C758.275 574.043 757.701 575.109 757.281 576.312C756.88 577.497 756.68 578.755 756.68 580.086ZM782.438 581.535V580.906C782.438 578.773 782.747 576.796 783.367 574.973C783.987 573.132 784.88 571.536 786.047 570.188C787.214 568.82 788.626 567.763 790.285 567.016C791.944 566.25 793.803 565.867 795.863 565.867C797.941 565.867 799.81 566.25 801.469 567.016C803.146 567.763 804.568 568.82 805.734 570.188C806.919 571.536 807.822 573.132 808.441 574.973C809.061 576.796 809.371 578.773 809.371 580.906V581.535C809.371 583.668 809.061 585.646 808.441 587.469C807.822 589.292 806.919 590.887 805.734 592.254C804.568 593.603 803.155 594.66 801.496 595.426C799.855 596.173 797.996 596.547 795.918 596.547C793.84 596.547 791.971 596.173 790.312 595.426C788.654 594.66 787.232 593.603 786.047 592.254C784.88 590.887 783.987 589.292 783.367 587.469C782.747 585.646 782.438 583.668 782.438 581.535ZM787.496 580.906V581.535C787.496 583.012 787.669 584.406 788.016 585.719C788.362 587.013 788.882 588.161 789.574 589.164C790.285 590.167 791.169 590.96 792.227 591.543C793.284 592.108 794.514 592.391 795.918 592.391C797.303 592.391 798.516 592.108 799.555 591.543C800.612 590.96 801.487 590.167 802.18 589.164C802.872 588.161 803.392 587.013 803.738 585.719C804.103 584.406 804.285 583.012 804.285 581.535V580.906C804.285 579.448 804.103 578.072 803.738 576.777C803.392 575.465 802.863 574.307 802.152 573.305C801.46 572.284 800.585 571.482 799.527 570.898C798.488 570.315 797.267 570.023 795.863 570.023C794.478 570.023 793.257 570.315 792.199 570.898C791.16 571.482 790.285 572.284 789.574 573.305C788.882 574.307 788.362 575.465 788.016 576.777C787.669 578.072 787.496 579.448 787.496 580.906ZM828.102 566.414V570.297H812.105V566.414H828.102ZM817.52 559.223H822.578V588.672C822.578 589.674 822.733 590.431 823.043 590.941C823.353 591.452 823.754 591.789 824.246 591.953C824.738 592.117 825.267 592.199 825.832 592.199C826.251 592.199 826.689 592.163 827.145 592.09C827.618 591.999 827.974 591.926 828.211 591.871L828.238 596C827.837 596.128 827.309 596.246 826.652 596.355C826.014 596.483 825.24 596.547 824.328 596.547C823.089 596.547 821.949 596.301 820.91 595.809C819.871 595.316 819.042 594.496 818.422 593.348C817.82 592.181 817.52 590.613 817.52 588.645V559.223ZM851.48 590.941V575.711C851.48 574.544 851.243 573.533 850.77 572.676C850.314 571.801 849.621 571.126 848.691 570.652C847.762 570.178 846.613 569.941 845.246 569.941C843.97 569.941 842.849 570.16 841.883 570.598C840.935 571.035 840.188 571.609 839.641 572.32C839.112 573.031 838.848 573.797 838.848 574.617H833.789C833.789 573.56 834.062 572.512 834.609 571.473C835.156 570.434 835.94 569.495 836.961 568.656C838 567.799 839.24 567.125 840.68 566.633C842.138 566.122 843.76 565.867 845.547 565.867C847.698 565.867 849.594 566.232 851.234 566.961C852.893 567.69 854.188 568.793 855.117 570.27C856.065 571.728 856.539 573.56 856.539 575.766V589.547C856.539 590.531 856.621 591.579 856.785 592.691C856.967 593.803 857.232 594.76 857.578 595.562V596H852.301C852.046 595.417 851.845 594.642 851.699 593.676C851.553 592.691 851.48 591.78 851.48 590.941ZM852.355 578.062L852.41 581.617H847.297C845.857 581.617 844.572 581.736 843.441 581.973C842.311 582.191 841.363 582.529 840.598 582.984C839.832 583.44 839.249 584.014 838.848 584.707C838.447 585.382 838.246 586.174 838.246 587.086C838.246 588.016 838.456 588.863 838.875 589.629C839.294 590.395 839.923 591.005 840.762 591.461C841.618 591.898 842.667 592.117 843.906 592.117C845.456 592.117 846.823 591.789 848.008 591.133C849.193 590.477 850.132 589.674 850.824 588.727C851.535 587.779 851.918 586.858 851.973 585.965L854.133 588.398C854.005 589.164 853.659 590.012 853.094 590.941C852.529 591.871 851.772 592.764 850.824 593.621C849.895 594.46 848.783 595.161 847.488 595.727C846.212 596.273 844.772 596.547 843.168 596.547C841.163 596.547 839.404 596.155 837.891 595.371C836.396 594.587 835.229 593.539 834.391 592.227C833.57 590.896 833.16 589.41 833.16 587.77C833.16 586.184 833.47 584.789 834.09 583.586C834.71 582.365 835.603 581.353 836.77 580.551C837.936 579.73 839.34 579.111 840.98 578.691C842.621 578.272 844.453 578.062 846.477 578.062H852.355ZM881.723 588.152C881.723 587.423 881.559 586.749 881.23 586.129C880.921 585.491 880.273 584.917 879.289 584.406C878.323 583.878 876.865 583.422 874.914 583.039C873.273 582.693 871.788 582.283 870.457 581.809C869.145 581.335 868.023 580.76 867.094 580.086C866.182 579.411 865.48 578.618 864.988 577.707C864.496 576.796 864.25 575.729 864.25 574.508C864.25 573.341 864.505 572.238 865.016 571.199C865.544 570.16 866.283 569.24 867.23 568.438C868.197 567.635 869.354 567.007 870.703 566.551C872.052 566.095 873.556 565.867 875.215 565.867C877.585 565.867 879.608 566.286 881.285 567.125C882.962 567.964 884.247 569.085 885.141 570.488C886.034 571.874 886.48 573.414 886.48 575.109H881.422C881.422 574.289 881.176 573.496 880.684 572.73C880.21 571.947 879.508 571.299 878.578 570.789C877.667 570.279 876.546 570.023 875.215 570.023C873.811 570.023 872.672 570.242 871.797 570.68C870.94 571.099 870.311 571.637 869.91 572.293C869.527 572.949 869.336 573.642 869.336 574.371C869.336 574.918 869.427 575.41 869.609 575.848C869.81 576.267 870.156 576.659 870.648 577.023C871.141 577.37 871.833 577.698 872.727 578.008C873.62 578.318 874.759 578.628 876.145 578.938C878.569 579.484 880.565 580.141 882.133 580.906C883.701 581.672 884.867 582.611 885.633 583.723C886.398 584.835 886.781 586.184 886.781 587.77C886.781 589.064 886.508 590.249 885.961 591.324C885.432 592.4 884.658 593.329 883.637 594.113C882.634 594.879 881.431 595.48 880.027 595.918C878.642 596.337 877.083 596.547 875.352 596.547C872.745 596.547 870.539 596.082 868.734 595.152C866.93 594.223 865.562 593.02 864.633 591.543C863.703 590.066 863.238 588.508 863.238 586.867H868.324C868.397 588.253 868.798 589.355 869.527 590.176C870.257 590.978 871.15 591.552 872.207 591.898C873.264 592.227 874.312 592.391 875.352 592.391C876.737 592.391 877.895 592.208 878.824 591.844C879.772 591.479 880.492 590.978 880.984 590.34C881.477 589.702 881.723 588.973 881.723 588.152ZM914.07 596H909.012V563.844C909.012 561.602 909.449 559.706 910.324 558.156C911.199 556.607 912.448 555.431 914.07 554.629C915.693 553.827 917.616 553.426 919.84 553.426C921.152 553.426 922.438 553.59 923.695 553.918C924.953 554.228 926.247 554.62 927.578 555.094L926.73 559.359C925.892 559.031 924.917 558.721 923.805 558.43C922.711 558.12 921.508 557.965 920.195 557.965C918.026 557.965 916.458 558.457 915.492 559.441C914.544 560.408 914.07 561.875 914.07 563.844V596ZM920.113 566.414V570.297H904.336V566.414H920.113ZM930.066 566.414V596H925.008V566.414H930.066ZM955.605 588.152C955.605 587.423 955.441 586.749 955.113 586.129C954.803 585.491 954.156 584.917 953.172 584.406C952.206 583.878 950.747 583.422 948.797 583.039C947.156 582.693 945.671 582.283 944.34 581.809C943.027 581.335 941.906 580.76 940.977 580.086C940.065 579.411 939.363 578.618 938.871 577.707C938.379 576.796 938.133 575.729 938.133 574.508C938.133 573.341 938.388 572.238 938.898 571.199C939.427 570.16 940.165 569.24 941.113 568.438C942.079 567.635 943.237 567.007 944.586 566.551C945.935 566.095 947.439 565.867 949.098 565.867C951.467 565.867 953.491 566.286 955.168 567.125C956.845 567.964 958.13 569.085 959.023 570.488C959.917 571.874 960.363 573.414 960.363 575.109H955.305C955.305 574.289 955.059 573.496 954.566 572.73C954.092 571.947 953.391 571.299 952.461 570.789C951.549 570.279 950.428 570.023 949.098 570.023C947.694 570.023 946.555 570.242 945.68 570.68C944.823 571.099 944.194 571.637 943.793 572.293C943.41 572.949 943.219 573.642 943.219 574.371C943.219 574.918 943.31 575.41 943.492 575.848C943.693 576.267 944.039 576.659 944.531 577.023C945.023 577.37 945.716 577.698 946.609 578.008C947.503 578.318 948.642 578.628 950.027 578.938C952.452 579.484 954.448 580.141 956.016 580.906C957.583 581.672 958.75 582.611 959.516 583.723C960.281 584.835 960.664 586.184 960.664 587.77C960.664 589.064 960.391 590.249 959.844 591.324C959.315 592.4 958.54 593.329 957.52 594.113C956.517 594.879 955.314 595.48 953.91 595.918C952.525 596.337 950.966 596.547 949.234 596.547C946.628 596.547 944.422 596.082 942.617 595.152C940.812 594.223 939.445 593.02 938.516 591.543C937.586 590.066 937.121 588.508 937.121 586.867H942.207C942.28 588.253 942.681 589.355 943.41 590.176C944.139 590.978 945.033 591.552 946.09 591.898C947.147 592.227 948.195 592.391 949.234 592.391C950.62 592.391 951.777 592.208 952.707 591.844C953.655 591.479 954.375 590.978 954.867 590.34C955.359 589.702 955.605 588.973 955.605 588.152ZM979.148 592.391C980.352 592.391 981.464 592.145 982.484 591.652C983.505 591.16 984.344 590.486 985 589.629C985.656 588.754 986.03 587.76 986.121 586.648H990.934C990.842 588.398 990.25 590.03 989.156 591.543C988.081 593.038 986.668 594.25 984.918 595.18C983.168 596.091 981.245 596.547 979.148 596.547C976.924 596.547 974.983 596.155 973.324 595.371C971.684 594.587 970.316 593.512 969.223 592.145C968.147 590.777 967.336 589.21 966.789 587.441C966.26 585.655 965.996 583.768 965.996 581.781V580.633C965.996 578.646 966.26 576.768 966.789 575C967.336 573.214 968.147 571.637 969.223 570.27C970.316 568.902 971.684 567.827 973.324 567.043C974.983 566.259 976.924 565.867 979.148 565.867C981.464 565.867 983.487 566.341 985.219 567.289C986.951 568.219 988.309 569.495 989.293 571.117C990.296 572.721 990.842 574.544 990.934 576.586H986.121C986.03 575.365 985.684 574.262 985.082 573.277C984.499 572.293 983.697 571.509 982.676 570.926C981.673 570.324 980.497 570.023 979.148 570.023C977.599 570.023 976.296 570.333 975.238 570.953C974.199 571.555 973.37 572.375 972.75 573.414C972.148 574.435 971.711 575.574 971.438 576.832C971.182 578.072 971.055 579.339 971.055 580.633V581.781C971.055 583.076 971.182 584.352 971.438 585.609C971.693 586.867 972.121 588.007 972.723 589.027C973.342 590.048 974.172 590.868 975.211 591.488C976.268 592.09 977.581 592.391 979.148 592.391ZM1014.07 590.941V575.711C1014.07 574.544 1013.83 573.533 1013.36 572.676C1012.9 571.801 1012.21 571.126 1011.28 570.652C1010.35 570.178 1009.2 569.941 1007.83 569.941C1006.56 569.941 1005.43 570.16 1004.47 570.598C1003.52 571.035 1002.77 571.609 1002.23 572.32C1001.7 573.031 1001.43 573.797 1001.43 574.617H996.375C996.375 573.56 996.648 572.512 997.195 571.473C997.742 570.434 998.526 569.495 999.547 568.656C1000.59 567.799 1001.83 567.125 1003.27 566.633C1004.72 566.122 1006.35 565.867 1008.13 565.867C1010.28 565.867 1012.18 566.232 1013.82 566.961C1015.48 567.69 1016.77 568.793 1017.7 570.27C1018.65 571.728 1019.12 573.56 1019.12 575.766V589.547C1019.12 590.531 1019.21 591.579 1019.37 592.691C1019.55 593.803 1019.82 594.76 1020.16 595.562V596H1014.89C1014.63 595.417 1014.43 594.642 1014.29 593.676C1014.14 592.691 1014.07 591.78 1014.07 590.941ZM1014.94 578.062L1015 581.617H1009.88C1008.44 581.617 1007.16 581.736 1006.03 581.973C1004.9 582.191 1003.95 582.529 1003.18 582.984C1002.42 583.44 1001.83 584.014 1001.43 584.707C1001.03 585.382 1000.83 586.174 1000.83 587.086C1000.83 588.016 1001.04 588.863 1001.46 589.629C1001.88 590.395 1002.51 591.005 1003.35 591.461C1004.2 591.898 1005.25 592.117 1006.49 592.117C1008.04 592.117 1009.41 591.789 1010.59 591.133C1011.78 590.477 1012.72 589.674 1013.41 588.727C1014.12 587.779 1014.5 586.858 1014.56 585.965L1016.72 588.398C1016.59 589.164 1016.24 590.012 1015.68 590.941C1015.11 591.871 1014.36 592.764 1013.41 593.621C1012.48 594.46 1011.37 595.161 1010.07 595.727C1008.8 596.273 1007.36 596.547 1005.75 596.547C1003.75 596.547 1001.99 596.155 1000.48 595.371C998.982 594.587 997.815 593.539 996.977 592.227C996.156 590.896 995.746 589.41 995.746 587.77C995.746 586.184 996.056 584.789 996.676 583.586C997.296 582.365 998.189 581.353 999.355 580.551C1000.52 579.73 1001.93 579.111 1003.57 578.691C1005.21 578.272 1007.04 578.062 1009.06 578.062H1014.94ZM1032.58 566.414V596H1027.49V566.414H1032.58ZM1027.11 558.566C1027.11 557.746 1027.36 557.053 1027.85 556.488C1028.36 555.923 1029.11 555.641 1030.09 555.641C1031.06 555.641 1031.79 555.923 1032.3 556.488C1032.83 557.053 1033.1 557.746 1033.1 558.566C1033.1 559.35 1032.83 560.025 1032.3 560.59C1031.79 561.137 1031.06 561.41 1030.09 561.41C1029.11 561.41 1028.36 561.137 1027.85 560.59C1027.36 560.025 1027.11 559.35 1027.11 558.566ZM1057.93 588.152C1057.93 587.423 1057.76 586.749 1057.43 586.129C1057.12 585.491 1056.48 584.917 1055.49 584.406C1054.53 583.878 1053.07 583.422 1051.12 583.039C1049.48 582.693 1047.99 582.283 1046.66 581.809C1045.35 581.335 1044.23 580.76 1043.3 580.086C1042.39 579.411 1041.68 578.618 1041.19 577.707C1040.7 576.796 1040.45 575.729 1040.45 574.508C1040.45 573.341 1040.71 572.238 1041.22 571.199C1041.75 570.16 1042.49 569.24 1043.43 568.438C1044.4 567.635 1045.56 567.007 1046.91 566.551C1048.26 566.095 1049.76 565.867 1051.42 565.867C1053.79 565.867 1055.81 566.286 1057.49 567.125C1059.17 567.964 1060.45 569.085 1061.34 570.488C1062.24 571.874 1062.68 573.414 1062.68 575.109H1057.62C1057.62 574.289 1057.38 573.496 1056.89 572.73C1056.41 571.947 1055.71 571.299 1054.78 570.789C1053.87 570.279 1052.75 570.023 1051.42 570.023C1050.01 570.023 1048.88 570.242 1048 570.68C1047.14 571.099 1046.51 571.637 1046.11 572.293C1045.73 572.949 1045.54 573.642 1045.54 574.371C1045.54 574.918 1045.63 575.41 1045.81 575.848C1046.01 576.267 1046.36 576.659 1046.85 577.023C1047.34 577.37 1048.04 577.698 1048.93 578.008C1049.82 578.318 1050.96 578.628 1052.35 578.938C1054.77 579.484 1056.77 580.141 1058.34 580.906C1059.9 581.672 1061.07 582.611 1061.84 583.723C1062.6 584.835 1062.98 586.184 1062.98 587.77C1062.98 589.064 1062.71 590.249 1062.16 591.324C1061.64 592.4 1060.86 593.329 1059.84 594.113C1058.84 594.879 1057.63 595.48 1056.23 595.918C1054.85 596.337 1053.29 596.547 1051.55 596.547C1048.95 596.547 1046.74 596.082 1044.94 595.152C1043.13 594.223 1041.77 593.02 1040.84 591.543C1039.91 590.066 1039.44 588.508 1039.44 586.867H1044.53C1044.6 588.253 1045 589.355 1045.73 590.176C1046.46 590.978 1047.35 591.552 1048.41 591.898C1049.47 592.227 1050.52 592.391 1051.55 592.391C1052.94 592.391 1054.1 592.208 1055.03 591.844C1055.98 591.479 1056.7 590.978 1057.19 590.34C1057.68 589.702 1057.93 588.973 1057.93 588.152ZM1088.58 572.102V607.375H1083.49V566.414H1088.14L1088.58 572.102ZM1108.51 580.961V581.535C1108.51 583.686 1108.26 585.682 1107.75 587.523C1107.24 589.346 1106.49 590.932 1105.5 592.281C1104.54 593.63 1103.34 594.678 1101.92 595.426C1100.5 596.173 1098.87 596.547 1097.03 596.547C1095.15 596.547 1093.49 596.237 1092.05 595.617C1090.61 594.997 1089.39 594.095 1088.39 592.91C1087.38 591.725 1086.58 590.303 1085.98 588.645C1085.4 586.986 1085 585.117 1084.78 583.039V579.977C1085 577.789 1085.41 575.829 1086.01 574.098C1086.61 572.366 1087.4 570.889 1088.39 569.668C1089.39 568.428 1090.6 567.49 1092.02 566.852C1093.45 566.195 1095.09 565.867 1096.95 565.867C1098.8 565.867 1100.45 566.232 1101.89 566.961C1103.33 567.672 1104.55 568.693 1105.53 570.023C1106.52 571.354 1107.25 572.949 1107.75 574.809C1108.26 576.65 1108.51 578.701 1108.51 580.961ZM1103.43 581.535V580.961C1103.43 579.484 1103.27 578.099 1102.96 576.805C1102.65 575.492 1102.17 574.344 1101.51 573.359C1100.87 572.357 1100.05 571.573 1099.05 571.008C1098.05 570.424 1096.85 570.133 1095.47 570.133C1094.19 570.133 1093.08 570.352 1092.13 570.789C1091.2 571.227 1090.41 571.819 1089.75 572.566C1089.1 573.296 1088.56 574.134 1088.14 575.082C1087.74 576.012 1087.44 576.978 1087.24 577.98V585.062C1087.6 586.339 1088.11 587.542 1088.77 588.672C1089.43 589.784 1090.3 590.686 1091.39 591.379C1092.49 592.053 1093.86 592.391 1095.52 592.391C1096.89 592.391 1098.07 592.108 1099.05 591.543C1100.05 590.96 1100.87 590.167 1101.51 589.164C1102.17 588.161 1102.65 587.013 1102.96 585.719C1103.27 584.406 1103.43 583.012 1103.43 581.535ZM1132.41 590.941V575.711C1132.41 574.544 1132.17 573.533 1131.7 572.676C1131.24 571.801 1130.55 571.126 1129.62 570.652C1128.69 570.178 1127.54 569.941 1126.18 569.941C1124.9 569.941 1123.78 570.16 1122.81 570.598C1121.86 571.035 1121.12 571.609 1120.57 572.32C1120.04 573.031 1119.78 573.797 1119.78 574.617H1114.72C1114.72 573.56 1114.99 572.512 1115.54 571.473C1116.09 570.434 1116.87 569.495 1117.89 568.656C1118.93 567.799 1120.17 567.125 1121.61 566.633C1123.07 566.122 1124.69 565.867 1126.48 565.867C1128.63 565.867 1130.52 566.232 1132.16 566.961C1133.82 567.69 1135.12 568.793 1136.05 570.27C1136.99 571.728 1137.47 573.56 1137.47 575.766V589.547C1137.47 590.531 1137.55 591.579 1137.71 592.691C1137.9 593.803 1138.16 594.76 1138.51 595.562V596H1133.23C1132.98 595.417 1132.77 594.642 1132.63 593.676C1132.48 592.691 1132.41 591.78 1132.41 590.941ZM1133.29 578.062L1133.34 581.617H1128.23C1126.79 581.617 1125.5 581.736 1124.37 581.973C1123.24 582.191 1122.29 582.529 1121.53 582.984C1120.76 583.44 1120.18 584.014 1119.78 584.707C1119.38 585.382 1119.18 586.174 1119.18 587.086C1119.18 588.016 1119.39 588.863 1119.8 589.629C1120.22 590.395 1120.85 591.005 1121.69 591.461C1122.55 591.898 1123.6 592.117 1124.84 592.117C1126.39 592.117 1127.75 591.789 1128.94 591.133C1130.12 590.477 1131.06 589.674 1131.75 588.727C1132.46 587.779 1132.85 586.858 1132.9 585.965L1135.06 588.398C1134.93 589.164 1134.59 590.012 1134.02 590.941C1133.46 591.871 1132.7 592.764 1131.75 593.621C1130.82 594.46 1129.71 595.161 1128.42 595.727C1127.14 596.273 1125.7 596.547 1124.1 596.547C1122.09 596.547 1120.33 596.155 1118.82 595.371C1117.33 594.587 1116.16 593.539 1115.32 592.227C1114.5 590.896 1114.09 589.41 1114.09 587.77C1114.09 586.184 1114.4 584.789 1115.02 583.586C1115.64 582.365 1116.53 581.353 1117.7 580.551C1118.87 579.73 1120.27 579.111 1121.91 578.691C1123.55 578.272 1125.38 578.062 1127.41 578.062H1133.29ZM1150.48 571.062V596H1145.43V566.414H1150.35L1150.48 571.062ZM1159.73 566.25L1159.7 570.953C1159.28 570.862 1158.88 570.807 1158.5 570.789C1158.13 570.753 1157.71 570.734 1157.24 570.734C1156.07 570.734 1155.04 570.917 1154.15 571.281C1153.26 571.646 1152.5 572.156 1151.88 572.812C1151.26 573.469 1150.77 574.253 1150.4 575.164C1150.06 576.057 1149.83 577.042 1149.72 578.117L1148.3 578.938C1148.3 577.151 1148.47 575.474 1148.82 573.906C1149.18 572.339 1149.74 570.953 1150.48 569.75C1151.23 568.529 1152.18 567.581 1153.33 566.906C1154.49 566.214 1155.88 565.867 1157.48 565.867C1157.85 565.867 1158.27 565.913 1158.74 566.004C1159.22 566.077 1159.54 566.159 1159.73 566.25ZM1180.75 590.941V575.711C1180.75 574.544 1180.52 573.533 1180.04 572.676C1179.59 571.801 1178.89 571.126 1177.96 570.652C1177.04 570.178 1175.89 569.941 1174.52 569.941C1173.24 569.941 1172.12 570.16 1171.16 570.598C1170.21 571.035 1169.46 571.609 1168.91 572.32C1168.39 573.031 1168.12 573.797 1168.12 574.617H1163.06C1163.06 573.56 1163.34 572.512 1163.88 571.473C1164.43 570.434 1165.21 569.495 1166.23 568.656C1167.27 567.799 1168.51 567.125 1169.95 566.633C1171.41 566.122 1173.03 565.867 1174.82 565.867C1176.97 565.867 1178.87 566.232 1180.51 566.961C1182.17 567.69 1183.46 568.793 1184.39 570.27C1185.34 571.728 1185.81 573.56 1185.81 575.766V589.547C1185.81 590.531 1185.89 591.579 1186.06 592.691C1186.24 593.803 1186.51 594.76 1186.85 595.562V596H1181.57C1181.32 595.417 1181.12 594.642 1180.97 593.676C1180.83 592.691 1180.75 591.78 1180.75 590.941ZM1181.63 578.062L1181.68 581.617H1176.57C1175.13 581.617 1173.85 581.736 1172.71 581.973C1171.58 582.191 1170.64 582.529 1169.87 582.984C1169.11 583.44 1168.52 584.014 1168.12 584.707C1167.72 585.382 1167.52 586.174 1167.52 587.086C1167.52 588.016 1167.73 588.863 1168.15 589.629C1168.57 590.395 1169.2 591.005 1170.04 591.461C1170.89 591.898 1171.94 592.117 1173.18 592.117C1174.73 592.117 1176.1 591.789 1177.28 591.133C1178.47 590.477 1179.4 589.674 1180.1 588.727C1180.81 587.779 1181.19 586.858 1181.25 585.965L1183.41 588.398C1183.28 589.164 1182.93 590.012 1182.37 590.941C1181.8 591.871 1181.05 592.764 1180.1 593.621C1179.17 594.46 1178.06 595.161 1176.76 595.727C1175.49 596.273 1174.05 596.547 1172.44 596.547C1170.44 596.547 1168.68 596.155 1167.16 595.371C1165.67 594.587 1164.5 593.539 1163.66 592.227C1162.84 590.896 1162.43 589.41 1162.43 587.77C1162.43 586.184 1162.74 584.789 1163.36 583.586C1163.98 582.365 1164.88 581.353 1166.04 580.551C1167.21 579.73 1168.61 579.111 1170.25 578.691C1171.89 578.272 1173.73 578.062 1175.75 578.062H1181.63ZM1215.21 596H1210.15V563.297C1210.15 561.164 1210.53 559.368 1211.3 557.91C1212.08 556.434 1213.2 555.322 1214.66 554.574C1216.12 553.809 1217.85 553.426 1219.86 553.426C1220.44 553.426 1221.02 553.462 1221.61 553.535C1222.21 553.608 1222.79 553.717 1223.36 553.863L1223.08 557.992C1222.7 557.901 1222.26 557.837 1221.77 557.801C1221.3 557.764 1220.82 557.746 1220.35 557.746C1219.27 557.746 1218.34 557.965 1217.56 558.402C1216.79 558.822 1216.21 559.441 1215.81 560.262C1215.41 561.082 1215.21 562.094 1215.21 563.297V596ZM1221.5 566.414V570.297H1205.47V566.414H1221.5ZM1244.57 590.941V575.711C1244.57 574.544 1244.34 573.533 1243.86 572.676C1243.41 571.801 1242.71 571.126 1241.79 570.652C1240.86 570.178 1239.71 569.941 1238.34 569.941C1237.06 569.941 1235.94 570.16 1234.98 570.598C1234.03 571.035 1233.28 571.609 1232.73 572.32C1232.21 573.031 1231.94 573.797 1231.94 574.617H1226.88C1226.88 573.56 1227.16 572.512 1227.7 571.473C1228.25 570.434 1229.03 569.495 1230.05 568.656C1231.09 567.799 1232.33 567.125 1233.77 566.633C1235.23 566.122 1236.85 565.867 1238.64 565.867C1240.79 565.867 1242.69 566.232 1244.33 566.961C1245.99 567.69 1247.28 568.793 1248.21 570.27C1249.16 571.728 1249.63 573.56 1249.63 575.766V589.547C1249.63 590.531 1249.71 591.579 1249.88 592.691C1250.06 593.803 1250.33 594.76 1250.67 595.562V596H1245.39C1245.14 595.417 1244.94 594.642 1244.79 593.676C1244.65 592.691 1244.57 591.78 1244.57 590.941ZM1245.45 578.062L1245.5 581.617H1240.39C1238.95 581.617 1237.67 581.736 1236.54 581.973C1235.4 582.191 1234.46 582.529 1233.69 582.984C1232.93 583.44 1232.34 584.014 1231.94 584.707C1231.54 585.382 1231.34 586.174 1231.34 587.086C1231.34 588.016 1231.55 588.863 1231.97 589.629C1232.39 590.395 1233.02 591.005 1233.86 591.461C1234.71 591.898 1235.76 592.117 1237 592.117C1238.55 592.117 1239.92 591.789 1241.1 591.133C1242.29 590.477 1243.23 589.674 1243.92 588.727C1244.63 587.779 1245.01 586.858 1245.07 585.965L1247.23 588.398C1247.1 589.164 1246.75 590.012 1246.19 590.941C1245.62 591.871 1244.87 592.764 1243.92 593.621C1242.99 594.46 1241.88 595.161 1240.58 595.727C1239.31 596.273 1237.87 596.547 1236.26 596.547C1234.26 596.547 1232.5 596.155 1230.98 595.371C1229.49 594.587 1228.32 593.539 1227.48 592.227C1226.66 590.896 1226.25 589.41 1226.25 587.77C1226.25 586.184 1226.56 584.789 1227.18 583.586C1227.8 582.365 1228.7 581.353 1229.86 580.551C1231.03 579.73 1232.43 579.111 1234.07 578.691C1235.71 578.272 1237.55 578.062 1239.57 578.062H1245.45ZM1269.43 592.391C1270.63 592.391 1271.74 592.145 1272.77 591.652C1273.79 591.16 1274.62 590.486 1275.28 589.629C1275.94 588.754 1276.31 587.76 1276.4 586.648H1281.21C1281.12 588.398 1280.53 590.03 1279.44 591.543C1278.36 593.038 1276.95 594.25 1275.2 595.18C1273.45 596.091 1271.53 596.547 1269.43 596.547C1267.21 596.547 1265.26 596.155 1263.61 595.371C1261.96 594.587 1260.6 593.512 1259.5 592.145C1258.43 590.777 1257.62 589.21 1257.07 587.441C1256.54 585.655 1256.28 583.768 1256.28 581.781V580.633C1256.28 578.646 1256.54 576.768 1257.07 575C1257.62 573.214 1258.43 571.637 1259.5 570.27C1260.6 568.902 1261.96 567.827 1263.61 567.043C1265.26 566.259 1267.21 565.867 1269.43 565.867C1271.74 565.867 1273.77 566.341 1275.5 567.289C1277.23 568.219 1278.59 569.495 1279.57 571.117C1280.58 572.721 1281.12 574.544 1281.21 576.586H1276.4C1276.31 575.365 1275.96 574.262 1275.36 573.277C1274.78 572.293 1273.98 571.509 1272.96 570.926C1271.95 570.324 1270.78 570.023 1269.43 570.023C1267.88 570.023 1266.58 570.333 1265.52 570.953C1264.48 571.555 1263.65 572.375 1263.03 573.414C1262.43 574.435 1261.99 575.574 1261.72 576.832C1261.46 578.072 1261.34 579.339 1261.34 580.633V581.781C1261.34 583.076 1261.46 584.352 1261.72 585.609C1261.97 586.867 1262.4 588.007 1263 589.027C1263.62 590.048 1264.45 590.868 1265.49 591.488C1266.55 592.09 1267.86 592.391 1269.43 592.391ZM1292.4 566.414V596H1287.31V566.414H1292.4ZM1286.93 558.566C1286.93 557.746 1287.18 557.053 1287.67 556.488C1288.18 555.923 1288.93 555.641 1289.91 555.641C1290.88 555.641 1291.61 555.923 1292.12 556.488C1292.65 557.053 1292.92 557.746 1292.92 558.566C1292.92 559.35 1292.65 560.025 1292.12 560.59C1291.61 561.137 1290.88 561.41 1289.91 561.41C1288.93 561.41 1288.18 561.137 1287.67 560.59C1287.18 560.025 1286.93 559.35 1286.93 558.566ZM1306.02 554V596H1300.93V554H1306.02ZM1319.63 566.414V596H1314.55V566.414H1319.63ZM1314.16 558.566C1314.16 557.746 1314.41 557.053 1314.9 556.488C1315.41 555.923 1316.16 555.641 1317.14 555.641C1318.11 555.641 1318.85 555.923 1319.36 556.488C1319.89 557.053 1320.15 557.746 1320.15 558.566C1320.15 559.35 1319.89 560.025 1319.36 560.59C1318.85 561.137 1318.11 561.41 1317.14 561.41C1316.16 561.41 1315.41 561.137 1314.9 560.59C1314.41 560.025 1314.16 559.35 1314.16 558.566ZM1340.14 566.414V570.297H1324.14V566.414H1340.14ZM1329.56 559.223H1334.62V588.672C1334.62 589.674 1334.77 590.431 1335.08 590.941C1335.39 591.452 1335.79 591.789 1336.29 591.953C1336.78 592.117 1337.31 592.199 1337.87 592.199C1338.29 592.199 1338.73 592.163 1339.18 592.09C1339.66 591.999 1340.01 591.926 1340.25 591.871L1340.28 596C1339.88 596.128 1339.35 596.246 1338.69 596.355C1338.05 596.483 1337.28 596.547 1336.37 596.547C1335.13 596.547 1333.99 596.301 1332.95 595.809C1331.91 595.316 1331.08 594.496 1330.46 593.348C1329.86 592.181 1329.56 590.613 1329.56 588.645V559.223ZM1363.52 590.941V575.711C1363.52 574.544 1363.28 573.533 1362.81 572.676C1362.35 571.801 1361.66 571.126 1360.73 570.652C1359.8 570.178 1358.65 569.941 1357.29 569.941C1356.01 569.941 1354.89 570.16 1353.92 570.598C1352.97 571.035 1352.23 571.609 1351.68 572.32C1351.15 573.031 1350.89 573.797 1350.89 574.617H1345.83C1345.83 573.56 1346.1 572.512 1346.65 571.473C1347.2 570.434 1347.98 569.495 1349 568.656C1350.04 567.799 1351.28 567.125 1352.72 566.633C1354.18 566.122 1355.8 565.867 1357.59 565.867C1359.74 565.867 1361.63 566.232 1363.27 566.961C1364.93 567.69 1366.23 568.793 1367.16 570.27C1368.1 571.728 1368.58 573.56 1368.58 575.766V589.547C1368.58 590.531 1368.66 591.579 1368.82 592.691C1369.01 593.803 1369.27 594.76 1369.62 595.562V596H1364.34C1364.08 595.417 1363.88 594.642 1363.74 593.676C1363.59 592.691 1363.52 591.78 1363.52 590.941ZM1364.39 578.062L1364.45 581.617H1359.34C1357.9 581.617 1356.61 581.736 1355.48 581.973C1354.35 582.191 1353.4 582.529 1352.64 582.984C1351.87 583.44 1351.29 584.014 1350.89 584.707C1350.49 585.382 1350.29 586.174 1350.29 587.086C1350.29 588.016 1350.49 588.863 1350.91 589.629C1351.33 590.395 1351.96 591.005 1352.8 591.461C1353.66 591.898 1354.71 592.117 1355.95 592.117C1357.49 592.117 1358.86 591.789 1360.05 591.133C1361.23 590.477 1362.17 589.674 1362.86 588.727C1363.57 587.779 1363.96 586.858 1364.01 585.965L1366.17 588.398C1366.04 589.164 1365.7 590.012 1365.13 590.941C1364.57 591.871 1363.81 592.764 1362.86 593.621C1361.93 594.46 1360.82 595.161 1359.53 595.727C1358.25 596.273 1356.81 596.547 1355.21 596.547C1353.2 596.547 1351.44 596.155 1349.93 595.371C1348.43 594.587 1347.27 593.539 1346.43 592.227C1345.61 590.896 1345.2 589.41 1345.2 587.77C1345.2 586.184 1345.51 584.789 1346.13 583.586C1346.75 582.365 1347.64 581.353 1348.81 580.551C1349.98 579.73 1351.38 579.111 1353.02 578.691C1354.66 578.272 1356.49 578.062 1358.52 578.062H1364.39ZM1381.59 571.062V596H1376.54V566.414H1381.46L1381.59 571.062ZM1390.84 566.25L1390.81 570.953C1390.39 570.862 1389.99 570.807 1389.61 570.789C1389.24 570.753 1388.82 570.734 1388.35 570.734C1387.18 570.734 1386.15 570.917 1385.26 571.281C1384.36 571.646 1383.61 572.156 1382.99 572.812C1382.37 573.469 1381.88 574.253 1381.51 575.164C1381.17 576.057 1380.94 577.042 1380.83 578.117L1379.41 578.938C1379.41 577.151 1379.58 575.474 1379.93 573.906C1380.29 572.339 1380.85 570.953 1381.59 569.75C1382.34 568.529 1383.29 567.581 1384.44 566.906C1385.6 566.214 1386.99 565.867 1388.59 565.867C1388.96 565.867 1389.38 565.913 1389.85 566.004C1390.33 566.077 1390.65 566.159 1390.84 566.25ZM188.914 650.102V685.375H183.828V644.414H188.477L188.914 650.102ZM208.848 658.961V659.535C208.848 661.686 208.592 663.682 208.082 665.523C207.572 667.346 206.824 668.932 205.84 670.281C204.874 671.63 203.68 672.678 202.258 673.426C200.836 674.173 199.204 674.547 197.363 674.547C195.486 674.547 193.827 674.237 192.387 673.617C190.947 672.997 189.725 672.095 188.723 670.91C187.72 669.725 186.918 668.303 186.316 666.645C185.733 664.986 185.332 663.117 185.113 661.039V657.977C185.332 655.789 185.742 653.829 186.344 652.098C186.945 650.366 187.738 648.889 188.723 647.668C189.725 646.428 190.938 645.49 192.359 644.852C193.781 644.195 195.422 643.867 197.281 643.867C199.141 643.867 200.79 644.232 202.23 644.961C203.671 645.672 204.883 646.693 205.867 648.023C206.852 649.354 207.59 650.949 208.082 652.809C208.592 654.65 208.848 656.701 208.848 658.961ZM203.762 659.535V658.961C203.762 657.484 203.607 656.099 203.297 654.805C202.987 653.492 202.504 652.344 201.848 651.359C201.21 650.357 200.389 649.573 199.387 649.008C198.384 648.424 197.19 648.133 195.805 648.133C194.529 648.133 193.417 648.352 192.469 648.789C191.539 649.227 190.746 649.819 190.09 650.566C189.434 651.296 188.896 652.134 188.477 653.082C188.076 654.012 187.775 654.978 187.574 655.98V663.062C187.939 664.339 188.449 665.542 189.105 666.672C189.762 667.784 190.637 668.686 191.73 669.379C192.824 670.053 194.201 670.391 195.859 670.391C197.227 670.391 198.402 670.108 199.387 669.543C200.389 668.96 201.21 668.167 201.848 667.164C202.504 666.161 202.987 665.013 203.297 663.719C203.607 662.406 203.762 661.012 203.762 659.535ZM220.797 632V674H215.711V632H220.797ZM246.363 668.941V653.711C246.363 652.544 246.126 651.533 245.652 650.676C245.197 649.801 244.504 649.126 243.574 648.652C242.645 648.178 241.496 647.941 240.129 647.941C238.853 647.941 237.732 648.16 236.766 648.598C235.818 649.035 235.07 649.609 234.523 650.32C233.995 651.031 233.73 651.797 233.73 652.617H228.672C228.672 651.56 228.945 650.512 229.492 649.473C230.039 648.434 230.823 647.495 231.844 646.656C232.883 645.799 234.122 645.125 235.562 644.633C237.021 644.122 238.643 643.867 240.43 643.867C242.581 643.867 244.477 644.232 246.117 644.961C247.776 645.69 249.07 646.793 250 648.27C250.948 649.728 251.422 651.56 251.422 653.766V667.547C251.422 668.531 251.504 669.579 251.668 670.691C251.85 671.803 252.115 672.76 252.461 673.562V674H247.184C246.928 673.417 246.728 672.642 246.582 671.676C246.436 670.691 246.363 669.78 246.363 668.941ZM247.238 656.062L247.293 659.617H242.18C240.74 659.617 239.454 659.736 238.324 659.973C237.194 660.191 236.246 660.529 235.48 660.984C234.715 661.44 234.132 662.014 233.73 662.707C233.329 663.382 233.129 664.174 233.129 665.086C233.129 666.016 233.339 666.863 233.758 667.629C234.177 668.395 234.806 669.005 235.645 669.461C236.501 669.898 237.549 670.117 238.789 670.117C240.339 670.117 241.706 669.789 242.891 669.133C244.076 668.477 245.014 667.674 245.707 666.727C246.418 665.779 246.801 664.858 246.855 663.965L249.016 666.398C248.888 667.164 248.542 668.012 247.977 668.941C247.411 669.871 246.655 670.764 245.707 671.621C244.777 672.46 243.665 673.161 242.371 673.727C241.095 674.273 239.655 674.547 238.051 674.547C236.046 674.547 234.286 674.155 232.773 673.371C231.279 672.587 230.112 671.539 229.273 670.227C228.453 668.896 228.043 667.41 228.043 665.77C228.043 664.184 228.353 662.789 228.973 661.586C229.592 660.365 230.486 659.353 231.652 658.551C232.819 657.73 234.223 657.111 235.863 656.691C237.504 656.272 239.336 656.062 241.359 656.062H247.238ZM264.438 650.73V674H259.379V644.414H264.164L264.438 650.73ZM263.234 658.086L261.129 658.004C261.147 655.98 261.448 654.112 262.031 652.398C262.615 650.667 263.435 649.163 264.492 647.887C265.549 646.611 266.807 645.626 268.266 644.934C269.742 644.223 271.374 643.867 273.16 643.867C274.618 643.867 275.931 644.068 277.098 644.469C278.264 644.852 279.258 645.471 280.078 646.328C280.917 647.185 281.555 648.297 281.992 649.664C282.43 651.013 282.648 652.663 282.648 654.613V674H277.562V654.559C277.562 653.009 277.335 651.77 276.879 650.84C276.423 649.892 275.758 649.208 274.883 648.789C274.008 648.352 272.932 648.133 271.656 648.133C270.398 648.133 269.25 648.397 268.211 648.926C267.19 649.454 266.306 650.184 265.559 651.113C264.829 652.043 264.255 653.109 263.836 654.312C263.435 655.497 263.234 656.755 263.234 658.086ZM295.828 644.414V674H290.742V644.414H295.828ZM290.359 636.566C290.359 635.746 290.605 635.053 291.098 634.488C291.608 633.923 292.355 633.641 293.34 633.641C294.306 633.641 295.044 633.923 295.555 634.488C296.083 635.053 296.348 635.746 296.348 636.566C296.348 637.35 296.083 638.025 295.555 638.59C295.044 639.137 294.306 639.41 293.34 639.41C292.355 639.41 291.608 639.137 291.098 638.59C290.605 638.025 290.359 637.35 290.359 636.566ZM309.445 632V674H304.359V632H309.445ZM322.625 632V674H317.566V632H322.625ZM321.422 658.086L319.316 658.004C319.335 655.98 319.635 654.112 320.219 652.398C320.802 650.667 321.622 649.163 322.68 647.887C323.737 646.611 324.995 645.626 326.453 644.934C327.93 644.223 329.561 643.867 331.348 643.867C332.806 643.867 334.118 644.068 335.285 644.469C336.452 644.852 337.445 645.471 338.266 646.328C339.104 647.185 339.742 648.297 340.18 649.664C340.617 651.013 340.836 652.663 340.836 654.613V674H335.75V654.559C335.75 653.009 335.522 651.77 335.066 650.84C334.611 649.892 333.945 649.208 333.07 648.789C332.195 648.352 331.12 648.133 329.844 648.133C328.586 648.133 327.438 648.397 326.398 648.926C325.378 649.454 324.493 650.184 323.746 651.113C323.017 652.043 322.443 653.109 322.023 654.312C321.622 655.497 321.422 656.755 321.422 658.086ZM365.855 668.941V653.711C365.855 652.544 365.618 651.533 365.145 650.676C364.689 649.801 363.996 649.126 363.066 648.652C362.137 648.178 360.988 647.941 359.621 647.941C358.345 647.941 357.224 648.16 356.258 648.598C355.31 649.035 354.562 649.609 354.016 650.32C353.487 651.031 353.223 651.797 353.223 652.617H348.164C348.164 651.56 348.438 650.512 348.984 649.473C349.531 648.434 350.315 647.495 351.336 646.656C352.375 645.799 353.615 645.125 355.055 644.633C356.513 644.122 358.135 643.867 359.922 643.867C362.073 643.867 363.969 644.232 365.609 644.961C367.268 645.69 368.562 646.793 369.492 648.27C370.44 649.728 370.914 651.56 370.914 653.766V667.547C370.914 668.531 370.996 669.579 371.16 670.691C371.342 671.803 371.607 672.76 371.953 673.562V674H366.676C366.421 673.417 366.22 672.642 366.074 671.676C365.928 670.691 365.855 669.78 365.855 668.941ZM366.73 656.062L366.785 659.617H361.672C360.232 659.617 358.947 659.736 357.816 659.973C356.686 660.191 355.738 660.529 354.973 660.984C354.207 661.44 353.624 662.014 353.223 662.707C352.822 663.382 352.621 664.174 352.621 665.086C352.621 666.016 352.831 666.863 353.25 667.629C353.669 668.395 354.298 669.005 355.137 669.461C355.993 669.898 357.042 670.117 358.281 670.117C359.831 670.117 361.198 669.789 362.383 669.133C363.568 668.477 364.507 667.674 365.199 666.727C365.91 665.779 366.293 664.858 366.348 663.965L368.508 666.398C368.38 667.164 368.034 668.012 367.469 668.941C366.904 669.871 366.147 670.764 365.199 671.621C364.27 672.46 363.158 673.161 361.863 673.727C360.587 674.273 359.147 674.547 357.543 674.547C355.538 674.547 353.779 674.155 352.266 673.371C350.771 672.587 349.604 671.539 348.766 670.227C347.945 668.896 347.535 667.41 347.535 665.77C347.535 664.184 347.845 662.789 348.465 661.586C349.085 660.365 349.978 659.353 351.145 658.551C352.311 657.73 353.715 657.111 355.355 656.691C356.996 656.272 358.828 656.062 360.852 656.062H366.73ZM383.902 650.293V674H378.816V644.414H383.629L383.902 650.293ZM382.863 658.086L380.512 658.004C380.53 655.98 380.794 654.112 381.305 652.398C381.815 650.667 382.572 649.163 383.574 647.887C384.577 646.611 385.826 645.626 387.32 644.934C388.815 644.223 390.547 643.867 392.516 643.867C393.901 643.867 395.177 644.068 396.344 644.469C397.51 644.852 398.522 645.462 399.379 646.301C400.236 647.139 400.901 648.215 401.375 649.527C401.849 650.84 402.086 652.426 402.086 654.285V674H397.027V654.531C397.027 652.982 396.763 651.742 396.234 650.812C395.724 649.883 394.995 649.208 394.047 648.789C393.099 648.352 391.987 648.133 390.711 648.133C389.216 648.133 387.967 648.397 386.965 648.926C385.962 649.454 385.16 650.184 384.559 651.113C383.957 652.043 383.52 653.109 383.246 654.312C382.991 655.497 382.863 656.755 382.863 658.086ZM402.031 655.297L398.641 656.336C398.659 654.714 398.923 653.155 399.434 651.66C399.962 650.165 400.719 648.835 401.703 647.668C402.706 646.501 403.936 645.581 405.395 644.906C406.853 644.214 408.521 643.867 410.398 643.867C411.984 643.867 413.388 644.077 414.609 644.496C415.849 644.915 416.888 645.562 417.727 646.438C418.583 647.294 419.23 648.397 419.668 649.746C420.105 651.095 420.324 652.699 420.324 654.559V674H415.238V654.504C415.238 652.845 414.974 651.56 414.445 650.648C413.935 649.719 413.206 649.072 412.258 648.707C411.328 648.324 410.216 648.133 408.922 648.133C407.81 648.133 406.826 648.324 405.969 648.707C405.112 649.09 404.392 649.618 403.809 650.293C403.225 650.949 402.779 651.706 402.469 652.562C402.177 653.419 402.031 654.331 402.031 655.297ZM440.258 674.547C438.198 674.547 436.329 674.201 434.652 673.508C432.993 672.797 431.562 671.803 430.359 670.527C429.174 669.251 428.263 667.738 427.625 665.988C426.987 664.238 426.668 662.324 426.668 660.246V659.098C426.668 656.691 427.023 654.549 427.734 652.672C428.445 650.776 429.411 649.172 430.633 647.859C431.854 646.547 433.24 645.553 434.789 644.879C436.339 644.204 437.943 643.867 439.602 643.867C441.716 643.867 443.539 644.232 445.07 644.961C446.62 645.69 447.887 646.711 448.871 648.023C449.855 649.318 450.585 650.849 451.059 652.617C451.533 654.367 451.77 656.281 451.77 658.359V660.629H429.676V656.5H446.711V656.117C446.638 654.805 446.365 653.529 445.891 652.289C445.435 651.049 444.706 650.029 443.703 649.227C442.701 648.424 441.333 648.023 439.602 648.023C438.453 648.023 437.396 648.27 436.43 648.762C435.464 649.236 434.634 649.947 433.941 650.895C433.249 651.842 432.711 653 432.328 654.367C431.945 655.734 431.754 657.311 431.754 659.098V660.246C431.754 661.65 431.945 662.971 432.328 664.211C432.729 665.432 433.303 666.508 434.051 667.438C434.816 668.367 435.737 669.096 436.812 669.625C437.906 670.154 439.146 670.418 440.531 670.418C442.318 670.418 443.831 670.053 445.07 669.324C446.31 668.595 447.395 667.62 448.324 666.398L451.387 668.832C450.749 669.798 449.938 670.719 448.953 671.594C447.969 672.469 446.757 673.18 445.316 673.727C443.895 674.273 442.208 674.547 440.258 674.547ZM462.734 650.73V674H457.676V644.414H462.461L462.734 650.73ZM461.531 658.086L459.426 658.004C459.444 655.98 459.745 654.112 460.328 652.398C460.911 650.667 461.732 649.163 462.789 647.887C463.846 646.611 465.104 645.626 466.562 644.934C468.039 644.223 469.671 643.867 471.457 643.867C472.915 643.867 474.228 644.068 475.395 644.469C476.561 644.852 477.555 645.471 478.375 646.328C479.214 647.185 479.852 648.297 480.289 649.664C480.727 651.013 480.945 652.663 480.945 654.613V674H475.859V654.559C475.859 653.009 475.632 651.77 475.176 650.84C474.72 649.892 474.055 649.208 473.18 648.789C472.305 648.352 471.229 648.133 469.953 648.133C468.695 648.133 467.547 648.397 466.508 648.926C465.487 649.454 464.603 650.184 463.855 651.113C463.126 652.043 462.552 653.109 462.133 654.312C461.732 655.497 461.531 656.755 461.531 658.086ZM501.016 644.414V648.297H485.02V644.414H501.016ZM490.434 637.223H495.492V666.672C495.492 667.674 495.647 668.431 495.957 668.941C496.267 669.452 496.668 669.789 497.16 669.953C497.652 670.117 498.181 670.199 498.746 670.199C499.165 670.199 499.603 670.163 500.059 670.09C500.533 669.999 500.888 669.926 501.125 669.871L501.152 674C500.751 674.128 500.223 674.246 499.566 674.355C498.928 674.483 498.154 674.547 497.242 674.547C496.003 674.547 494.863 674.301 493.824 673.809C492.785 673.316 491.956 672.496 491.336 671.348C490.734 670.181 490.434 668.613 490.434 666.645V637.223ZM505.062 659.535V658.906C505.062 656.773 505.372 654.796 505.992 652.973C506.612 651.132 507.505 649.536 508.672 648.188C509.839 646.82 511.251 645.763 512.91 645.016C514.569 644.25 516.428 643.867 518.488 643.867C520.566 643.867 522.435 644.25 524.094 645.016C525.771 645.763 527.193 646.82 528.359 648.188C529.544 649.536 530.447 651.132 531.066 652.973C531.686 654.796 531.996 656.773 531.996 658.906V659.535C531.996 661.668 531.686 663.646 531.066 665.469C530.447 667.292 529.544 668.887 528.359 670.254C527.193 671.603 525.78 672.66 524.121 673.426C522.48 674.173 520.621 674.547 518.543 674.547C516.465 674.547 514.596 674.173 512.938 673.426C511.279 672.66 509.857 671.603 508.672 670.254C507.505 668.887 506.612 667.292 505.992 665.469C505.372 663.646 505.062 661.668 505.062 659.535ZM510.121 658.906V659.535C510.121 661.012 510.294 662.406 510.641 663.719C510.987 665.013 511.507 666.161 512.199 667.164C512.91 668.167 513.794 668.96 514.852 669.543C515.909 670.108 517.139 670.391 518.543 670.391C519.928 670.391 521.141 670.108 522.18 669.543C523.237 668.96 524.112 668.167 524.805 667.164C525.497 666.161 526.017 665.013 526.363 663.719C526.728 662.406 526.91 661.012 526.91 659.535V658.906C526.91 657.448 526.728 656.072 526.363 654.777C526.017 653.465 525.488 652.307 524.777 651.305C524.085 650.284 523.21 649.482 522.152 648.898C521.113 648.315 519.892 648.023 518.488 648.023C517.103 648.023 515.882 648.315 514.824 648.898C513.785 649.482 512.91 650.284 512.199 651.305C511.507 652.307 510.987 653.465 510.641 654.777C510.294 656.072 510.121 657.448 510.121 658.906ZM558.984 674H553.926V641.844C553.926 639.602 554.363 637.706 555.238 636.156C556.113 634.607 557.362 633.431 558.984 632.629C560.607 631.827 562.53 631.426 564.754 631.426C566.066 631.426 567.352 631.59 568.609 631.918C569.867 632.228 571.161 632.62 572.492 633.094L571.645 637.359C570.806 637.031 569.831 636.721 568.719 636.43C567.625 636.12 566.422 635.965 565.109 635.965C562.94 635.965 561.372 636.457 560.406 637.441C559.458 638.408 558.984 639.875 558.984 641.844V674ZM565.027 644.414V648.297H549.25V644.414H565.027ZM574.98 644.414V674H569.922V644.414H574.98ZM588.352 650.73V674H583.293V644.414H588.078L588.352 650.73ZM587.148 658.086L585.043 658.004C585.061 655.98 585.362 654.112 585.945 652.398C586.529 650.667 587.349 649.163 588.406 647.887C589.464 646.611 590.721 645.626 592.18 644.934C593.656 644.223 595.288 643.867 597.074 643.867C598.533 643.867 599.845 644.068 601.012 644.469C602.178 644.852 603.172 645.471 603.992 646.328C604.831 647.185 605.469 648.297 605.906 649.664C606.344 651.013 606.562 652.663 606.562 654.613V674H601.477V654.559C601.477 653.009 601.249 651.77 600.793 650.84C600.337 649.892 599.672 649.208 598.797 648.789C597.922 648.352 596.846 648.133 595.57 648.133C594.312 648.133 593.164 648.397 592.125 648.926C591.104 649.454 590.22 650.184 589.473 651.113C588.743 652.043 588.169 653.109 587.75 654.312C587.349 655.497 587.148 656.755 587.148 658.086ZM631.691 668.941V653.711C631.691 652.544 631.454 651.533 630.98 650.676C630.525 649.801 629.832 649.126 628.902 648.652C627.973 648.178 626.824 647.941 625.457 647.941C624.181 647.941 623.06 648.16 622.094 648.598C621.146 649.035 620.398 649.609 619.852 650.32C619.323 651.031 619.059 651.797 619.059 652.617H614C614 651.56 614.273 650.512 614.82 649.473C615.367 648.434 616.151 647.495 617.172 646.656C618.211 645.799 619.451 645.125 620.891 644.633C622.349 644.122 623.971 643.867 625.758 643.867C627.909 643.867 629.805 644.232 631.445 644.961C633.104 645.69 634.398 646.793 635.328 648.27C636.276 649.728 636.75 651.56 636.75 653.766V667.547C636.75 668.531 636.832 669.579 636.996 670.691C637.178 671.803 637.443 672.76 637.789 673.562V674H632.512C632.257 673.417 632.056 672.642 631.91 671.676C631.764 670.691 631.691 669.78 631.691 668.941ZM632.566 656.062L632.621 659.617H627.508C626.068 659.617 624.783 659.736 623.652 659.973C622.522 660.191 621.574 660.529 620.809 660.984C620.043 661.44 619.46 662.014 619.059 662.707C618.658 663.382 618.457 664.174 618.457 665.086C618.457 666.016 618.667 666.863 619.086 667.629C619.505 668.395 620.134 669.005 620.973 669.461C621.829 669.898 622.878 670.117 624.117 670.117C625.667 670.117 627.034 669.789 628.219 669.133C629.404 668.477 630.342 667.674 631.035 666.727C631.746 665.779 632.129 664.858 632.184 663.965L634.344 666.398C634.216 667.164 633.87 668.012 633.305 668.941C632.74 669.871 631.983 670.764 631.035 671.621C630.105 672.46 628.993 673.161 627.699 673.727C626.423 674.273 624.983 674.547 623.379 674.547C621.374 674.547 619.615 674.155 618.102 673.371C616.607 672.587 615.44 671.539 614.602 670.227C613.781 668.896 613.371 667.41 613.371 665.77C613.371 664.184 613.681 662.789 614.301 661.586C614.921 660.365 615.814 659.353 616.98 658.551C618.147 657.73 619.551 657.111 621.191 656.691C622.832 656.272 624.664 656.062 626.688 656.062H632.566ZM649.766 650.73V674H644.707V644.414H649.492L649.766 650.73ZM648.562 658.086L646.457 658.004C646.475 655.98 646.776 654.112 647.359 652.398C647.943 650.667 648.763 649.163 649.82 647.887C650.878 646.611 652.135 645.626 653.594 644.934C655.07 644.223 656.702 643.867 658.488 643.867C659.947 643.867 661.259 644.068 662.426 644.469C663.592 644.852 664.586 645.471 665.406 646.328C666.245 647.185 666.883 648.297 667.32 649.664C667.758 651.013 667.977 652.663 667.977 654.613V674H662.891V654.559C662.891 653.009 662.663 651.77 662.207 650.84C661.751 649.892 661.086 649.208 660.211 648.789C659.336 648.352 658.26 648.133 656.984 648.133C655.727 648.133 654.578 648.397 653.539 648.926C652.518 649.454 651.634 650.184 650.887 651.113C650.158 652.043 649.583 653.109 649.164 654.312C648.763 655.497 648.562 656.755 648.562 658.086ZM687.5 670.391C688.703 670.391 689.815 670.145 690.836 669.652C691.857 669.16 692.695 668.486 693.352 667.629C694.008 666.754 694.382 665.76 694.473 664.648H699.285C699.194 666.398 698.602 668.03 697.508 669.543C696.432 671.038 695.02 672.25 693.27 673.18C691.52 674.091 689.596 674.547 687.5 674.547C685.276 674.547 683.335 674.155 681.676 673.371C680.035 672.587 678.668 671.512 677.574 670.145C676.499 668.777 675.688 667.21 675.141 665.441C674.612 663.655 674.348 661.768 674.348 659.781V658.633C674.348 656.646 674.612 654.768 675.141 653C675.688 651.214 676.499 649.637 677.574 648.27C678.668 646.902 680.035 645.827 681.676 645.043C683.335 644.259 685.276 643.867 687.5 643.867C689.815 643.867 691.839 644.341 693.57 645.289C695.302 646.219 696.66 647.495 697.645 649.117C698.647 650.721 699.194 652.544 699.285 654.586H694.473C694.382 653.365 694.035 652.262 693.434 651.277C692.85 650.293 692.048 649.509 691.027 648.926C690.025 648.324 688.849 648.023 687.5 648.023C685.951 648.023 684.647 648.333 683.59 648.953C682.551 649.555 681.721 650.375 681.102 651.414C680.5 652.435 680.062 653.574 679.789 654.832C679.534 656.072 679.406 657.339 679.406 658.633V659.781C679.406 661.076 679.534 662.352 679.789 663.609C680.044 664.867 680.473 666.007 681.074 667.027C681.694 668.048 682.523 668.868 683.562 669.488C684.62 670.09 685.932 670.391 687.5 670.391ZM717.25 674.547C715.19 674.547 713.322 674.201 711.645 673.508C709.986 672.797 708.555 671.803 707.352 670.527C706.167 669.251 705.255 667.738 704.617 665.988C703.979 664.238 703.66 662.324 703.66 660.246V659.098C703.66 656.691 704.016 654.549 704.727 652.672C705.438 650.776 706.404 649.172 707.625 647.859C708.846 646.547 710.232 645.553 711.781 644.879C713.331 644.204 714.935 643.867 716.594 643.867C718.708 643.867 720.531 644.232 722.062 644.961C723.612 645.69 724.879 646.711 725.863 648.023C726.848 649.318 727.577 650.849 728.051 652.617C728.525 654.367 728.762 656.281 728.762 658.359V660.629H706.668V656.5H723.703V656.117C723.63 654.805 723.357 653.529 722.883 652.289C722.427 651.049 721.698 650.029 720.695 649.227C719.693 648.424 718.326 648.023 716.594 648.023C715.445 648.023 714.388 648.27 713.422 648.762C712.456 649.236 711.626 649.947 710.934 650.895C710.241 651.842 709.703 653 709.32 654.367C708.938 655.734 708.746 657.311 708.746 659.098V660.246C708.746 661.65 708.938 662.971 709.32 664.211C709.721 665.432 710.296 666.508 711.043 667.438C711.809 668.367 712.729 669.096 713.805 669.625C714.898 670.154 716.138 670.418 717.523 670.418C719.31 670.418 720.823 670.053 722.062 669.324C723.302 668.595 724.387 667.62 725.316 666.398L728.379 668.832C727.741 669.798 726.93 670.719 725.945 671.594C724.961 672.469 723.749 673.18 722.309 673.727C720.887 674.273 719.201 674.547 717.25 674.547ZM740.164 644.414V674H735.078V644.414H740.164ZM734.695 636.566C734.695 635.746 734.941 635.053 735.434 634.488C735.944 633.923 736.691 633.641 737.676 633.641C738.642 633.641 739.38 633.923 739.891 634.488C740.419 635.053 740.684 635.746 740.684 636.566C740.684 637.35 740.419 638.025 739.891 638.59C739.38 639.137 738.642 639.41 737.676 639.41C736.691 639.41 735.944 639.137 735.434 638.59C734.941 638.025 734.695 637.35 734.695 636.566ZM753.344 649.062V674H748.285V644.414H753.207L753.344 649.062ZM762.586 644.25L762.559 648.953C762.139 648.862 761.738 648.807 761.355 648.789C760.991 648.753 760.572 648.734 760.098 648.734C758.931 648.734 757.901 648.917 757.008 649.281C756.115 649.646 755.358 650.156 754.738 650.812C754.118 651.469 753.626 652.253 753.262 653.164C752.915 654.057 752.688 655.042 752.578 656.117L751.156 656.938C751.156 655.151 751.329 653.474 751.676 651.906C752.04 650.339 752.596 648.953 753.344 647.75C754.091 646.529 755.039 645.581 756.188 644.906C757.354 644.214 758.74 643.867 760.344 643.867C760.708 643.867 761.128 643.913 761.602 644.004C762.076 644.077 762.404 644.159 762.586 644.25ZM765.375 659.535V658.906C765.375 656.773 765.685 654.796 766.305 652.973C766.924 651.132 767.818 649.536 768.984 648.188C770.151 646.82 771.564 645.763 773.223 645.016C774.882 644.25 776.741 643.867 778.801 643.867C780.879 643.867 782.747 644.25 784.406 645.016C786.083 645.763 787.505 646.82 788.672 648.188C789.857 649.536 790.759 651.132 791.379 652.973C791.999 654.796 792.309 656.773 792.309 658.906V659.535C792.309 661.668 791.999 663.646 791.379 665.469C790.759 667.292 789.857 668.887 788.672 670.254C787.505 671.603 786.092 672.66 784.434 673.426C782.793 674.173 780.934 674.547 778.855 674.547C776.777 674.547 774.909 674.173 773.25 673.426C771.591 672.66 770.169 671.603 768.984 670.254C767.818 668.887 766.924 667.292 766.305 665.469C765.685 663.646 765.375 661.668 765.375 659.535ZM770.434 658.906V659.535C770.434 661.012 770.607 662.406 770.953 663.719C771.299 665.013 771.819 666.161 772.512 667.164C773.223 668.167 774.107 668.96 775.164 669.543C776.221 670.108 777.452 670.391 778.855 670.391C780.241 670.391 781.453 670.108 782.492 669.543C783.549 668.96 784.424 668.167 785.117 667.164C785.81 666.161 786.329 665.013 786.676 663.719C787.04 662.406 787.223 661.012 787.223 659.535V658.906C787.223 657.448 787.04 656.072 786.676 654.777C786.329 653.465 785.801 652.307 785.09 651.305C784.397 650.284 783.522 649.482 782.465 648.898C781.426 648.315 780.204 648.023 778.801 648.023C777.415 648.023 776.194 648.315 775.137 648.898C774.098 649.482 773.223 650.284 772.512 651.305C771.819 652.307 771.299 653.465 770.953 654.777C770.607 656.072 770.434 657.448 770.434 658.906ZM798.734 671.32C798.734 670.464 798.999 669.743 799.527 669.16C800.074 668.559 800.858 668.258 801.879 668.258C802.9 668.258 803.674 668.559 804.203 669.16C804.75 669.743 805.023 670.464 805.023 671.32C805.023 672.159 804.75 672.87 804.203 673.453C803.674 674.036 802.9 674.328 801.879 674.328C800.858 674.328 800.074 674.036 799.527 673.453C798.999 672.87 798.734 672.159 798.734 671.32Z" fill="#8D8D99"/>
<defs>
<linearGradient id="paint0_linear_7901_4" x1="0" y1="540" x2="2435.5" y2="540" gradientUnits="userSpaceOnUse">
<stop stop-color="#09090A"/>
<stop offset="0.375" stop-color="#181719"/>
<stop offset="1" stop-color="#36343B"/>
<stop offset="1" stop-color="#39363D"/>
</linearGradient>
</defs>
</svg>
