<svg width="1920" height="1080" viewBox="0 0 1920 1080" fill="none" xmlns="http://www.w3.org/2000/svg">
<rect width="1920" height="1080" fill="url(#paint0_linear_7901_3)"/>
<path d="M215.977 495.941H198.516V481.703H215.977C218.438 481.703 220.43 481.156 221.953 480.062C223.477 478.969 224.59 477.465 225.293 475.551C225.996 473.598 226.348 471.41 226.348 468.988C226.348 466.527 225.996 464.223 225.293 462.074C224.59 459.926 223.477 458.207 221.953 456.918C220.43 455.59 218.438 454.926 215.977 454.926H204.082V526H186.914V440.688H215.977C221.719 440.688 226.641 441.898 230.742 444.32C234.883 446.742 238.066 450.082 240.293 454.34C242.52 458.559 243.633 463.402 243.633 468.871C243.633 474.379 242.52 479.164 240.293 483.227C238.066 487.25 234.883 490.375 230.742 492.602C226.641 494.828 221.719 495.941 215.977 495.941ZM281.543 511.41V482.113C281.543 480.199 281.309 478.676 280.84 477.543C280.41 476.41 279.746 475.59 278.848 475.082C277.988 474.535 276.934 474.262 275.684 474.262C274.277 474.262 273.105 474.555 272.168 475.141C271.23 475.727 270.527 476.566 270.059 477.66C269.629 478.754 269.414 480.062 269.414 481.586H252.949C252.949 478.852 253.477 476.273 254.531 473.852C255.586 471.391 257.129 469.242 259.16 467.406C261.23 465.531 263.691 464.066 266.543 463.012C269.395 461.957 272.598 461.43 276.152 461.43C280.371 461.43 284.121 462.152 287.402 463.598C290.684 465.004 293.281 467.25 295.195 470.336C297.109 473.422 298.066 477.426 298.066 482.348V510.59C298.066 514.145 298.242 517.035 298.594 519.262C298.984 521.488 299.551 523.402 300.293 525.004V526H283.77C283.027 524.242 282.461 522.055 282.07 519.438C281.719 516.781 281.543 514.105 281.543 511.41ZM283.535 487.27L283.594 497.113H277.559C275.996 497.113 274.629 497.367 273.457 497.875C272.324 498.383 271.367 499.105 270.586 500.043C269.805 500.941 269.219 501.996 268.828 503.207C268.477 504.418 268.301 505.707 268.301 507.074C268.301 508.598 268.516 509.887 268.945 510.941C269.375 511.996 270.02 512.797 270.879 513.344C271.738 513.891 272.754 514.164 273.926 514.164C275.723 514.164 277.285 513.793 278.613 513.051C279.941 512.309 280.918 511.41 281.543 510.355C282.207 509.301 282.422 508.324 282.188 507.426L285.938 513.812C285.469 515.258 284.824 516.762 284.004 518.324C283.223 519.887 282.227 521.332 281.016 522.66C279.805 523.988 278.301 525.082 276.504 525.941C274.746 526.762 272.656 527.172 270.234 527.172C266.836 527.172 263.73 526.391 260.918 524.828C258.105 523.266 255.879 521.078 254.238 518.266C252.637 515.453 251.836 512.113 251.836 508.246C251.836 505.043 252.344 502.152 253.359 499.574C254.414 496.957 255.977 494.75 258.047 492.953C260.117 491.117 262.734 489.711 265.898 488.734C269.062 487.758 272.773 487.27 277.031 487.27H283.535ZM338.32 508.891C338.32 507.797 337.949 506.82 337.207 505.961C336.465 505.102 335.293 504.223 333.691 503.324C332.09 502.387 329.961 501.352 327.305 500.219C324.414 499.047 321.855 497.836 319.629 496.586C317.402 495.336 315.508 493.949 313.945 492.426C312.422 490.902 311.27 489.164 310.488 487.211C309.707 485.258 309.316 483.031 309.316 480.531C309.316 477.836 309.805 475.355 310.781 473.09C311.797 470.785 313.242 468.773 315.117 467.055C316.992 465.297 319.277 463.93 321.973 462.953C324.707 461.938 327.773 461.43 331.172 461.43C335.938 461.43 340.02 462.27 343.418 463.949C346.855 465.59 349.492 467.895 351.328 470.863C353.164 473.832 354.082 477.289 354.082 481.234H337.676C337.676 479.828 337.461 478.578 337.031 477.484C336.602 476.352 335.898 475.473 334.922 474.848C333.984 474.223 332.715 473.91 331.113 473.91C329.941 473.91 328.887 474.164 327.949 474.672C327.051 475.18 326.328 475.863 325.781 476.723C325.273 477.543 325.02 478.52 325.02 479.652C325.02 480.512 325.195 481.273 325.547 481.938C325.938 482.602 326.543 483.246 327.363 483.871C328.184 484.496 329.277 485.16 330.645 485.863C332.051 486.527 333.77 487.27 335.801 488.09C340.02 489.652 343.477 491.332 346.172 493.129C348.906 494.926 350.938 497.035 352.266 499.457C353.594 501.84 354.258 504.789 354.258 508.305C354.258 511.117 353.711 513.676 352.617 515.98C351.562 518.285 350.02 520.277 347.988 521.957C345.957 523.637 343.516 524.926 340.664 525.824C337.852 526.723 334.707 527.172 331.23 527.172C326.113 527.172 321.797 526.156 318.281 524.125C314.766 522.094 312.109 519.496 310.312 516.332C308.516 513.129 307.617 509.809 307.617 506.371H323.203C323.281 508.48 323.672 510.141 324.375 511.352C325.117 512.523 326.113 513.344 327.363 513.812C328.613 514.281 330 514.516 331.523 514.516C333.047 514.516 334.297 514.32 335.273 513.93C336.289 513.5 337.051 512.855 337.559 511.996C338.066 511.098 338.32 510.062 338.32 508.891ZM392.812 508.891C392.812 507.797 392.441 506.82 391.699 505.961C390.957 505.102 389.785 504.223 388.184 503.324C386.582 502.387 384.453 501.352 381.797 500.219C378.906 499.047 376.348 497.836 374.121 496.586C371.895 495.336 370 493.949 368.438 492.426C366.914 490.902 365.762 489.164 364.98 487.211C364.199 485.258 363.809 483.031 363.809 480.531C363.809 477.836 364.297 475.355 365.273 473.09C366.289 470.785 367.734 468.773 369.609 467.055C371.484 465.297 373.77 463.93 376.465 462.953C379.199 461.938 382.266 461.43 385.664 461.43C390.43 461.43 394.512 462.27 397.91 463.949C401.348 465.59 403.984 467.895 405.82 470.863C407.656 473.832 408.574 477.289 408.574 481.234H392.168C392.168 479.828 391.953 478.578 391.523 477.484C391.094 476.352 390.391 475.473 389.414 474.848C388.477 474.223 387.207 473.91 385.605 473.91C384.434 473.91 383.379 474.164 382.441 474.672C381.543 475.18 380.82 475.863 380.273 476.723C379.766 477.543 379.512 478.52 379.512 479.652C379.512 480.512 379.688 481.273 380.039 481.938C380.43 482.602 381.035 483.246 381.855 483.871C382.676 484.496 383.77 485.16 385.137 485.863C386.543 486.527 388.262 487.27 390.293 488.09C394.512 489.652 397.969 491.332 400.664 493.129C403.398 494.926 405.43 497.035 406.758 499.457C408.086 501.84 408.75 504.789 408.75 508.305C408.75 511.117 408.203 513.676 407.109 515.98C406.055 518.285 404.512 520.277 402.48 521.957C400.449 523.637 398.008 524.926 395.156 525.824C392.344 526.723 389.199 527.172 385.723 527.172C380.605 527.172 376.289 526.156 372.773 524.125C369.258 522.094 366.602 519.496 364.805 516.332C363.008 513.129 362.109 509.809 362.109 506.371H377.695C377.773 508.48 378.164 510.141 378.867 511.352C379.609 512.523 380.605 513.344 381.855 513.812C383.105 514.281 384.492 514.516 386.016 514.516C387.539 514.516 388.789 514.32 389.766 513.93C390.781 513.5 391.543 512.855 392.051 511.996C392.559 511.098 392.812 510.062 392.812 508.891ZM436.406 462.602V526H419.941V462.602H436.406ZM419.18 446.137C419.18 443.598 419.98 441.508 421.582 439.867C423.223 438.227 425.43 437.406 428.203 437.406C430.938 437.406 433.105 438.227 434.707 439.867C436.309 441.508 437.109 443.598 437.109 446.137C437.109 448.676 436.309 450.785 434.707 452.465C433.105 454.105 430.938 454.926 428.203 454.926C425.43 454.926 423.223 454.105 421.582 452.465C419.98 450.785 419.18 448.676 419.18 446.137ZM469.746 526H453.281V457.094C453.281 452.211 454.121 448.129 455.801 444.848C457.48 441.566 459.844 439.066 462.891 437.348C465.977 435.629 469.629 434.77 473.848 434.77C475.215 434.77 476.504 434.887 477.715 435.121C478.965 435.316 480.176 435.59 481.348 435.941L481.172 449.008C480.664 448.852 480.059 448.734 479.355 448.656C478.652 448.578 477.91 448.539 477.129 448.539C475.566 448.539 474.219 448.871 473.086 449.535C471.992 450.199 471.152 451.156 470.566 452.406C470.02 453.656 469.746 455.219 469.746 457.094V526ZM479.648 462.602V474.965H445.547V462.602H479.648ZM504.727 518.734L517.969 462.602H535.078L514.219 535.492C513.75 537.094 513.105 538.812 512.285 540.648C511.465 542.523 510.371 544.281 509.004 545.922C507.676 547.602 505.996 548.969 503.965 550.023C501.934 551.078 499.492 551.605 496.641 551.605C495.195 551.605 494.023 551.508 493.125 551.312C492.266 551.156 491.172 550.883 489.844 550.492V537.719C490.195 537.719 490.527 537.719 490.84 537.719C491.191 537.758 491.523 537.777 491.836 537.777C493.672 537.777 495.137 537.523 496.23 537.016C497.324 536.547 498.203 535.805 498.867 534.789C499.57 533.773 500.156 532.504 500.625 530.98L504.727 518.734ZM501.328 462.602L511.172 508.07L513.398 526.586L502.324 527.641L483.75 462.602H501.328Z" fill="white"/>
<path d="M214.043 615.176V629.75C213.551 630.479 212.767 631.299 211.691 632.211C210.616 633.104 209.13 633.888 207.234 634.562C205.357 635.219 202.932 635.547 199.961 635.547C197.536 635.547 195.303 635.128 193.262 634.289C191.238 633.432 189.479 632.193 187.984 630.57C186.508 628.93 185.359 626.943 184.539 624.609C183.737 622.258 183.336 619.596 183.336 616.625V613.535C183.336 610.564 183.682 607.911 184.375 605.578C185.086 603.245 186.125 601.267 187.492 599.645C188.859 598.004 190.536 596.764 192.523 595.926C194.51 595.069 196.789 594.641 199.359 594.641C202.404 594.641 204.947 595.169 206.988 596.227C209.048 597.266 210.652 598.706 211.801 600.547C212.967 602.388 213.715 604.484 214.043 606.836H208.766C208.529 605.396 208.055 604.083 207.344 602.898C206.651 601.714 205.658 600.766 204.363 600.055C203.069 599.326 201.401 598.961 199.359 598.961C197.518 598.961 195.923 599.298 194.574 599.973C193.225 600.647 192.113 601.613 191.238 602.871C190.363 604.129 189.707 605.651 189.27 607.438C188.85 609.224 188.641 611.238 188.641 613.48V616.625C188.641 618.922 188.905 620.973 189.434 622.777C189.98 624.582 190.755 626.122 191.758 627.398C192.76 628.656 193.954 629.613 195.34 630.27C196.743 630.926 198.293 631.254 199.988 631.254C201.866 631.254 203.388 631.099 204.555 630.789C205.721 630.461 206.633 630.078 207.289 629.641C207.945 629.185 208.447 628.757 208.793 628.355V619.441H199.578V615.176H214.043ZM234.305 635.547C232.245 635.547 230.376 635.201 228.699 634.508C227.04 633.797 225.609 632.803 224.406 631.527C223.221 630.251 222.31 628.738 221.672 626.988C221.034 625.238 220.715 623.324 220.715 621.246V620.098C220.715 617.691 221.07 615.549 221.781 613.672C222.492 611.776 223.458 610.172 224.68 608.859C225.901 607.547 227.286 606.553 228.836 605.879C230.385 605.204 231.99 604.867 233.648 604.867C235.763 604.867 237.586 605.232 239.117 605.961C240.667 606.69 241.934 607.711 242.918 609.023C243.902 610.318 244.632 611.849 245.105 613.617C245.579 615.367 245.816 617.281 245.816 619.359V621.629H223.723V617.5H240.758V617.117C240.685 615.805 240.411 614.529 239.938 613.289C239.482 612.049 238.753 611.029 237.75 610.227C236.747 609.424 235.38 609.023 233.648 609.023C232.5 609.023 231.443 609.27 230.477 609.762C229.51 610.236 228.681 610.947 227.988 611.895C227.296 612.842 226.758 614 226.375 615.367C225.992 616.734 225.801 618.311 225.801 620.098V621.246C225.801 622.65 225.992 623.971 226.375 625.211C226.776 626.432 227.35 627.508 228.098 628.438C228.863 629.367 229.784 630.096 230.859 630.625C231.953 631.154 233.193 631.418 234.578 631.418C236.365 631.418 237.878 631.053 239.117 630.324C240.357 629.595 241.441 628.62 242.371 627.398L245.434 629.832C244.796 630.798 243.984 631.719 243 632.594C242.016 633.469 240.803 634.18 239.363 634.727C237.941 635.273 236.255 635.547 234.305 635.547ZM256.781 610.062V635H251.723V605.414H256.645L256.781 610.062ZM266.023 605.25L265.996 609.953C265.577 609.862 265.176 609.807 264.793 609.789C264.428 609.753 264.009 609.734 263.535 609.734C262.368 609.734 261.339 609.917 260.445 610.281C259.552 610.646 258.796 611.156 258.176 611.812C257.556 612.469 257.064 613.253 256.699 614.164C256.353 615.057 256.125 616.042 256.016 617.117L254.594 617.938C254.594 616.151 254.767 614.474 255.113 612.906C255.478 611.339 256.034 609.953 256.781 608.75C257.529 607.529 258.477 606.581 259.625 605.906C260.792 605.214 262.177 604.867 263.781 604.867C264.146 604.867 264.565 604.913 265.039 605.004C265.513 605.077 265.841 605.159 266.023 605.25ZM287.051 629.941V614.711C287.051 613.544 286.814 612.533 286.34 611.676C285.884 610.801 285.191 610.126 284.262 609.652C283.332 609.178 282.184 608.941 280.816 608.941C279.54 608.941 278.419 609.16 277.453 609.598C276.505 610.035 275.758 610.609 275.211 611.32C274.682 612.031 274.418 612.797 274.418 613.617H269.359C269.359 612.56 269.633 611.512 270.18 610.473C270.727 609.434 271.51 608.495 272.531 607.656C273.57 606.799 274.81 606.125 276.25 605.633C277.708 605.122 279.331 604.867 281.117 604.867C283.268 604.867 285.164 605.232 286.805 605.961C288.464 606.69 289.758 607.793 290.688 609.27C291.635 610.728 292.109 612.56 292.109 614.766V628.547C292.109 629.531 292.191 630.579 292.355 631.691C292.538 632.803 292.802 633.76 293.148 634.562V635H287.871C287.616 634.417 287.415 633.642 287.27 632.676C287.124 631.691 287.051 630.78 287.051 629.941ZM287.926 617.062L287.98 620.617H282.867C281.427 620.617 280.142 620.736 279.012 620.973C277.882 621.191 276.934 621.529 276.168 621.984C275.402 622.44 274.819 623.014 274.418 623.707C274.017 624.382 273.816 625.174 273.816 626.086C273.816 627.016 274.026 627.863 274.445 628.629C274.865 629.395 275.493 630.005 276.332 630.461C277.189 630.898 278.237 631.117 279.477 631.117C281.026 631.117 282.393 630.789 283.578 630.133C284.763 629.477 285.702 628.674 286.395 627.727C287.105 626.779 287.488 625.858 287.543 624.965L289.703 627.398C289.576 628.164 289.229 629.012 288.664 629.941C288.099 630.871 287.342 631.764 286.395 632.621C285.465 633.46 284.353 634.161 283.059 634.727C281.783 635.273 280.342 635.547 278.738 635.547C276.733 635.547 274.974 635.155 273.461 634.371C271.966 633.587 270.799 632.539 269.961 631.227C269.141 629.896 268.73 628.41 268.73 626.77C268.73 625.184 269.04 623.789 269.66 622.586C270.28 621.365 271.173 620.353 272.34 619.551C273.507 618.73 274.91 618.111 276.551 617.691C278.191 617.272 280.023 617.062 282.047 617.062H287.926ZM318.715 629.258V593H323.801V635H319.152L318.715 629.258ZM298.809 620.535V619.961C298.809 617.701 299.082 615.65 299.629 613.809C300.194 611.949 300.987 610.354 302.008 609.023C303.047 607.693 304.277 606.672 305.699 605.961C307.139 605.232 308.743 604.867 310.512 604.867C312.371 604.867 313.993 605.195 315.379 605.852C316.783 606.49 317.967 607.428 318.934 608.668C319.918 609.889 320.693 611.366 321.258 613.098C321.823 614.829 322.215 616.789 322.434 618.977V621.492C322.233 623.661 321.841 625.612 321.258 627.344C320.693 629.076 319.918 630.552 318.934 631.773C317.967 632.995 316.783 633.934 315.379 634.59C313.975 635.228 312.335 635.547 310.457 635.547C308.725 635.547 307.139 635.173 305.699 634.426C304.277 633.678 303.047 632.63 302.008 631.281C300.987 629.932 300.194 628.346 299.629 626.523C299.082 624.682 298.809 622.686 298.809 620.535ZM303.895 619.961V620.535C303.895 622.012 304.04 623.397 304.332 624.691C304.642 625.986 305.116 627.125 305.754 628.109C306.392 629.094 307.203 629.868 308.188 630.434C309.172 630.98 310.348 631.254 311.715 631.254C313.392 631.254 314.768 630.898 315.844 630.188C316.938 629.477 317.812 628.538 318.469 627.371C319.125 626.204 319.635 624.938 320 623.57V616.98C319.781 615.978 319.462 615.012 319.043 614.082C318.642 613.134 318.113 612.296 317.457 611.566C316.819 610.819 316.026 610.227 315.078 609.789C314.148 609.352 313.046 609.133 311.77 609.133C310.384 609.133 309.19 609.424 308.188 610.008C307.203 610.573 306.392 611.357 305.754 612.359C305.116 613.344 304.642 614.492 304.332 615.805C304.04 617.099 303.895 618.484 303.895 619.961ZM330.336 620.535V619.906C330.336 617.773 330.646 615.796 331.266 613.973C331.885 612.132 332.779 610.536 333.945 609.188C335.112 607.82 336.525 606.763 338.184 606.016C339.842 605.25 341.702 604.867 343.762 604.867C345.84 604.867 347.708 605.25 349.367 606.016C351.044 606.763 352.466 607.82 353.633 609.188C354.818 610.536 355.72 612.132 356.34 613.973C356.96 615.796 357.27 617.773 357.27 619.906V620.535C357.27 622.668 356.96 624.646 356.34 626.469C355.72 628.292 354.818 629.887 353.633 631.254C352.466 632.603 351.053 633.66 349.395 634.426C347.754 635.173 345.895 635.547 343.816 635.547C341.738 635.547 339.87 635.173 338.211 634.426C336.552 633.66 335.13 632.603 333.945 631.254C332.779 629.887 331.885 628.292 331.266 626.469C330.646 624.646 330.336 622.668 330.336 620.535ZM335.395 619.906V620.535C335.395 622.012 335.568 623.406 335.914 624.719C336.26 626.013 336.78 627.161 337.473 628.164C338.184 629.167 339.068 629.96 340.125 630.543C341.182 631.108 342.413 631.391 343.816 631.391C345.202 631.391 346.414 631.108 347.453 630.543C348.51 629.96 349.385 629.167 350.078 628.164C350.771 627.161 351.29 626.013 351.637 624.719C352.001 623.406 352.184 622.012 352.184 620.535V619.906C352.184 618.448 352.001 617.072 351.637 615.777C351.29 614.465 350.762 613.307 350.051 612.305C349.358 611.284 348.483 610.482 347.426 609.898C346.387 609.315 345.165 609.023 343.762 609.023C342.376 609.023 341.155 609.315 340.098 609.898C339.059 610.482 338.184 611.284 337.473 612.305C336.78 613.307 336.26 614.465 335.914 615.777C335.568 617.072 335.395 618.448 335.395 619.906ZM368.672 610.062V635H363.613V605.414H368.535L368.672 610.062ZM377.914 605.25L377.887 609.953C377.467 609.862 377.066 609.807 376.684 609.789C376.319 609.753 375.9 609.734 375.426 609.734C374.259 609.734 373.229 609.917 372.336 610.281C371.443 610.646 370.686 611.156 370.066 611.812C369.447 612.469 368.954 613.253 368.59 614.164C368.243 615.057 368.016 616.042 367.906 617.117L366.484 617.938C366.484 616.151 366.658 614.474 367.004 612.906C367.368 611.339 367.924 609.953 368.672 608.75C369.419 607.529 370.367 606.581 371.516 605.906C372.682 605.214 374.068 604.867 375.672 604.867C376.036 604.867 376.456 604.913 376.93 605.004C377.404 605.077 377.732 605.159 377.914 605.25ZM415.129 629.258V593H420.215V635H415.566L415.129 629.258ZM395.223 620.535V619.961C395.223 617.701 395.496 615.65 396.043 613.809C396.608 611.949 397.401 610.354 398.422 609.023C399.461 607.693 400.691 606.672 402.113 605.961C403.553 605.232 405.158 604.867 406.926 604.867C408.785 604.867 410.408 605.195 411.793 605.852C413.197 606.49 414.382 607.428 415.348 608.668C416.332 609.889 417.107 611.366 417.672 613.098C418.237 614.829 418.629 616.789 418.848 618.977V621.492C418.647 623.661 418.255 625.612 417.672 627.344C417.107 629.076 416.332 630.552 415.348 631.773C414.382 632.995 413.197 633.934 411.793 634.59C410.389 635.228 408.749 635.547 406.871 635.547C405.139 635.547 403.553 635.173 402.113 634.426C400.691 633.678 399.461 632.63 398.422 631.281C397.401 629.932 396.608 628.346 396.043 626.523C395.496 624.682 395.223 622.686 395.223 620.535ZM400.309 619.961V620.535C400.309 622.012 400.454 623.397 400.746 624.691C401.056 625.986 401.53 627.125 402.168 628.109C402.806 629.094 403.617 629.868 404.602 630.434C405.586 630.98 406.762 631.254 408.129 631.254C409.806 631.254 411.182 630.898 412.258 630.188C413.352 629.477 414.227 628.538 414.883 627.371C415.539 626.204 416.049 624.938 416.414 623.57V616.98C416.195 615.978 415.876 615.012 415.457 614.082C415.056 613.134 414.527 612.296 413.871 611.566C413.233 610.819 412.44 610.227 411.492 609.789C410.562 609.352 409.46 609.133 408.184 609.133C406.798 609.133 405.604 609.424 404.602 610.008C403.617 610.573 402.806 611.357 402.168 612.359C401.53 613.344 401.056 614.492 400.746 615.805C400.454 617.099 400.309 618.484 400.309 619.961ZM440.367 635.547C438.307 635.547 436.439 635.201 434.762 634.508C433.103 633.797 431.672 632.803 430.469 631.527C429.284 630.251 428.372 628.738 427.734 626.988C427.096 625.238 426.777 623.324 426.777 621.246V620.098C426.777 617.691 427.133 615.549 427.844 613.672C428.555 611.776 429.521 610.172 430.742 608.859C431.964 607.547 433.349 606.553 434.898 605.879C436.448 605.204 438.052 604.867 439.711 604.867C441.826 604.867 443.648 605.232 445.18 605.961C446.729 606.69 447.996 607.711 448.98 609.023C449.965 610.318 450.694 611.849 451.168 613.617C451.642 615.367 451.879 617.281 451.879 619.359V621.629H429.785V617.5H446.82V617.117C446.747 615.805 446.474 614.529 446 613.289C445.544 612.049 444.815 611.029 443.812 610.227C442.81 609.424 441.443 609.023 439.711 609.023C438.562 609.023 437.505 609.27 436.539 609.762C435.573 610.236 434.743 610.947 434.051 611.895C433.358 612.842 432.82 614 432.438 615.367C432.055 616.734 431.863 618.311 431.863 620.098V621.246C431.863 622.65 432.055 623.971 432.438 625.211C432.839 626.432 433.413 627.508 434.16 628.438C434.926 629.367 435.846 630.096 436.922 630.625C438.016 631.154 439.255 631.418 440.641 631.418C442.427 631.418 443.94 631.053 445.18 630.324C446.419 629.595 447.504 628.62 448.434 627.398L451.496 629.832C450.858 630.798 450.047 631.719 449.062 632.594C448.078 633.469 446.866 634.18 445.426 634.727C444.004 635.273 442.318 635.547 440.367 635.547ZM488.902 627.152C488.902 626.423 488.738 625.749 488.41 625.129C488.1 624.491 487.453 623.917 486.469 623.406C485.503 622.878 484.044 622.422 482.094 622.039C480.453 621.693 478.967 621.283 477.637 620.809C476.324 620.335 475.203 619.76 474.273 619.086C473.362 618.411 472.66 617.618 472.168 616.707C471.676 615.796 471.43 614.729 471.43 613.508C471.43 612.341 471.685 611.238 472.195 610.199C472.724 609.16 473.462 608.24 474.41 607.438C475.376 606.635 476.534 606.007 477.883 605.551C479.232 605.095 480.736 604.867 482.395 604.867C484.764 604.867 486.788 605.286 488.465 606.125C490.142 606.964 491.427 608.085 492.32 609.488C493.214 610.874 493.66 612.414 493.66 614.109H488.602C488.602 613.289 488.355 612.496 487.863 611.73C487.389 610.947 486.688 610.299 485.758 609.789C484.846 609.279 483.725 609.023 482.395 609.023C480.991 609.023 479.852 609.242 478.977 609.68C478.12 610.099 477.491 610.637 477.09 611.293C476.707 611.949 476.516 612.642 476.516 613.371C476.516 613.918 476.607 614.41 476.789 614.848C476.99 615.267 477.336 615.659 477.828 616.023C478.32 616.37 479.013 616.698 479.906 617.008C480.799 617.318 481.939 617.628 483.324 617.938C485.749 618.484 487.745 619.141 489.312 619.906C490.88 620.672 492.047 621.611 492.812 622.723C493.578 623.835 493.961 625.184 493.961 626.77C493.961 628.064 493.688 629.249 493.141 630.324C492.612 631.4 491.837 632.329 490.816 633.113C489.814 633.879 488.611 634.48 487.207 634.918C485.822 635.337 484.263 635.547 482.531 635.547C479.924 635.547 477.719 635.082 475.914 634.152C474.109 633.223 472.742 632.02 471.812 630.543C470.883 629.066 470.418 627.508 470.418 625.867H475.504C475.577 627.253 475.978 628.355 476.707 629.176C477.436 629.978 478.329 630.552 479.387 630.898C480.444 631.227 481.492 631.391 482.531 631.391C483.917 631.391 485.074 631.208 486.004 630.844C486.952 630.479 487.672 629.978 488.164 629.34C488.656 628.702 488.902 627.973 488.902 627.152ZM512.883 635.547C510.823 635.547 508.954 635.201 507.277 634.508C505.618 633.797 504.188 632.803 502.984 631.527C501.799 630.251 500.888 628.738 500.25 626.988C499.612 625.238 499.293 623.324 499.293 621.246V620.098C499.293 617.691 499.648 615.549 500.359 613.672C501.07 611.776 502.036 610.172 503.258 608.859C504.479 607.547 505.865 606.553 507.414 605.879C508.964 605.204 510.568 604.867 512.227 604.867C514.341 604.867 516.164 605.232 517.695 605.961C519.245 606.69 520.512 607.711 521.496 609.023C522.48 610.318 523.21 611.849 523.684 613.617C524.158 615.367 524.395 617.281 524.395 619.359V621.629H502.301V617.5H519.336V617.117C519.263 615.805 518.99 614.529 518.516 613.289C518.06 612.049 517.331 611.029 516.328 610.227C515.326 609.424 513.958 609.023 512.227 609.023C511.078 609.023 510.021 609.27 509.055 609.762C508.089 610.236 507.259 610.947 506.566 611.895C505.874 612.842 505.336 614 504.953 615.367C504.57 616.734 504.379 618.311 504.379 620.098V621.246C504.379 622.65 504.57 623.971 504.953 625.211C505.354 626.432 505.928 627.508 506.676 628.438C507.441 629.367 508.362 630.096 509.438 630.625C510.531 631.154 511.771 631.418 513.156 631.418C514.943 631.418 516.456 631.053 517.695 630.324C518.935 629.595 520.02 628.62 520.949 627.398L524.012 629.832C523.374 630.798 522.562 631.719 521.578 632.594C520.594 633.469 519.382 634.18 517.941 634.727C516.52 635.273 514.833 635.547 512.883 635.547ZM535.359 611.73V635H530.301V605.414H535.086L535.359 611.73ZM534.156 619.086L532.051 619.004C532.069 616.98 532.37 615.112 532.953 613.398C533.536 611.667 534.357 610.163 535.414 608.887C536.471 607.611 537.729 606.626 539.188 605.934C540.664 605.223 542.296 604.867 544.082 604.867C545.54 604.867 546.853 605.068 548.02 605.469C549.186 605.852 550.18 606.471 551 607.328C551.839 608.185 552.477 609.297 552.914 610.664C553.352 612.013 553.57 613.663 553.57 615.613V635H548.484V615.559C548.484 614.009 548.257 612.77 547.801 611.84C547.345 610.892 546.68 610.208 545.805 609.789C544.93 609.352 543.854 609.133 542.578 609.133C541.32 609.133 540.172 609.397 539.133 609.926C538.112 610.454 537.228 611.184 536.48 612.113C535.751 613.043 535.177 614.109 534.758 615.312C534.357 616.497 534.156 617.755 534.156 619.086ZM566.312 593V635H561.254V593H566.312ZM565.109 619.086L563.004 619.004C563.022 616.98 563.323 615.112 563.906 613.398C564.49 611.667 565.31 610.163 566.367 608.887C567.424 607.611 568.682 606.626 570.141 605.934C571.617 605.223 573.249 604.867 575.035 604.867C576.493 604.867 577.806 605.068 578.973 605.469C580.139 605.852 581.133 606.471 581.953 607.328C582.792 608.185 583.43 609.297 583.867 610.664C584.305 612.013 584.523 613.663 584.523 615.613V635H579.438V615.559C579.438 614.009 579.21 612.77 578.754 611.84C578.298 610.892 577.633 610.208 576.758 609.789C575.883 609.352 574.807 609.133 573.531 609.133C572.273 609.133 571.125 609.397 570.086 609.926C569.065 610.454 568.181 611.184 567.434 612.113C566.704 613.043 566.13 614.109 565.711 615.312C565.31 616.497 565.109 617.755 565.109 619.086ZM609.543 629.941V614.711C609.543 613.544 609.306 612.533 608.832 611.676C608.376 610.801 607.684 610.126 606.754 609.652C605.824 609.178 604.676 608.941 603.309 608.941C602.033 608.941 600.911 609.16 599.945 609.598C598.997 610.035 598.25 610.609 597.703 611.32C597.174 612.031 596.91 612.797 596.91 613.617H591.852C591.852 612.56 592.125 611.512 592.672 610.473C593.219 609.434 594.003 608.495 595.023 607.656C596.062 606.799 597.302 606.125 598.742 605.633C600.201 605.122 601.823 604.867 603.609 604.867C605.76 604.867 607.656 605.232 609.297 605.961C610.956 606.69 612.25 607.793 613.18 609.27C614.128 610.728 614.602 612.56 614.602 614.766V628.547C614.602 629.531 614.684 630.579 614.848 631.691C615.03 632.803 615.294 633.76 615.641 634.562V635H610.363C610.108 634.417 609.908 633.642 609.762 632.676C609.616 631.691 609.543 630.78 609.543 629.941ZM610.418 617.062L610.473 620.617H605.359C603.919 620.617 602.634 620.736 601.504 620.973C600.374 621.191 599.426 621.529 598.66 621.984C597.895 622.44 597.311 623.014 596.91 623.707C596.509 624.382 596.309 625.174 596.309 626.086C596.309 627.016 596.518 627.863 596.938 628.629C597.357 629.395 597.986 630.005 598.824 630.461C599.681 630.898 600.729 631.117 601.969 631.117C603.518 631.117 604.885 630.789 606.07 630.133C607.255 629.477 608.194 628.674 608.887 627.727C609.598 626.779 609.98 625.858 610.035 624.965L612.195 627.398C612.068 628.164 611.721 629.012 611.156 629.941C610.591 630.871 609.835 631.764 608.887 632.621C607.957 633.46 606.845 634.161 605.551 634.727C604.275 635.273 602.835 635.547 601.23 635.547C599.225 635.547 597.466 635.155 595.953 634.371C594.458 633.587 593.292 632.539 592.453 631.227C591.633 629.896 591.223 628.41 591.223 626.77C591.223 625.184 591.533 623.789 592.152 622.586C592.772 621.365 593.665 620.353 594.832 619.551C595.999 618.73 597.402 618.111 599.043 617.691C600.684 617.272 602.516 617.062 604.539 617.062H610.418Z" fill="#8D8D99"/>
<rect x="847.1" y="525.05" width="235.4" height="74.9" fill="#D9D9D9"/>
<rect x="1157.4" y="525.05" width="647.35" height="74.9" fill="#D9D9D9"/>
<path fill-rule="evenodd" clip-rule="evenodd" d="M815 549.936C815 527.328 833.328 509 855.936 509H1058.4C1081 509 1099.33 527.328 1099.33 549.936C1099.33 551.448 1100.56 552.673 1102.07 552.673H1106.61C1108.12 552.673 1109.35 551.448 1109.35 549.937C1109.35 527.329 1127.67 509.001 1150.28 509.001H1801.26C1823.87 509.001 1842.2 527.329 1842.2 549.937V575.064C1842.2 597.673 1823.87 616 1801.26 616H1150.28C1127.67 616 1109.35 597.673 1109.35 575.064C1109.35 573.552 1108.12 572.326 1106.61 572.326H1102.07C1100.56 572.326 1099.33 573.552 1099.33 575.063C1099.33 597.672 1081 615.999 1058.4 615.999H855.936C833.328 615.999 815 597.672 815 575.063V549.936ZM1256.26 588.35V541.805H1273.72C1277.29 541.805 1280.29 542.471 1282.72 543.805C1285.16 545.138 1287 546.971 1288.24 549.305C1289.5 551.623 1290.13 554.259 1290.13 557.214C1290.13 560.199 1289.5 562.85 1288.24 565.168C1286.98 567.486 1285.13 569.312 1282.67 570.645C1280.22 571.964 1277.2 572.623 1273.61 572.623H1264.7V588.35H1256.26ZM1272.47 565.691H1264.7V548.85H1272.42C1274.53 548.85 1276.25 549.206 1277.58 549.918C1278.93 550.615 1279.92 551.592 1280.56 552.85C1281.21 554.108 1281.54 555.562 1281.54 557.214C1281.54 558.865 1281.21 560.327 1280.56 561.6C1279.92 562.873 1278.94 563.873 1277.61 564.6C1276.27 565.327 1274.56 565.691 1272.47 565.691ZM1330.24 588.35H1321.24L1337.63 541.805H1348.04L1364.45 588.35H1355.45L1351.59 576.873H1334.09L1330.24 588.35ZM1343.01 551.35L1349.31 570.1H1336.36L1342.65 551.35H1343.01ZM1427.12 554.6C1426.91 552.615 1426.02 551.07 1424.44 549.964C1422.88 548.858 1420.85 548.305 1418.35 548.305C1416.59 548.305 1415.08 548.57 1413.83 549.1C1412.57 549.63 1411.61 550.35 1410.94 551.259C1410.27 552.168 1409.93 553.206 1409.92 554.373C1409.92 555.342 1410.14 556.183 1410.58 556.895C1411.03 557.608 1411.65 558.214 1412.42 558.714C1413.19 559.199 1414.05 559.608 1414.99 559.941C1415.93 560.274 1416.87 560.555 1417.83 560.782L1422.19 561.873C1423.95 562.282 1425.64 562.835 1427.26 563.532C1428.9 564.229 1430.36 565.108 1431.65 566.168C1432.95 567.229 1433.98 568.509 1434.74 570.009C1435.49 571.509 1435.87 573.267 1435.87 575.282C1435.87 578.009 1435.18 580.411 1433.78 582.486C1432.39 584.547 1430.37 586.161 1427.74 587.327C1425.11 588.479 1421.94 589.055 1418.21 589.055C1414.59 589.055 1411.45 588.494 1408.78 587.373C1406.13 586.252 1404.05 584.615 1402.55 582.464C1401.07 580.312 1400.27 577.691 1400.15 574.6H1408.44C1408.56 576.221 1409.06 577.57 1409.94 578.645C1410.82 579.721 1411.96 580.524 1413.37 581.055C1414.8 581.585 1416.39 581.85 1418.15 581.85C1419.98 581.85 1421.58 581.577 1422.96 581.032C1424.36 580.471 1425.45 579.699 1426.24 578.714C1427.02 577.714 1427.43 576.547 1427.44 575.214C1427.43 574.002 1427.07 573.002 1426.37 572.214C1425.68 571.411 1424.7 570.744 1423.44 570.214C1422.2 569.668 1420.74 569.183 1419.08 568.759L1413.78 567.395C1409.95 566.411 1406.92 564.918 1404.69 562.918C1402.48 560.903 1401.37 558.229 1401.37 554.895C1401.37 552.153 1402.11 549.752 1403.6 547.691C1405.1 545.63 1407.14 544.032 1409.71 542.895C1412.29 541.744 1415.21 541.168 1418.46 541.168C1421.77 541.168 1424.66 541.744 1427.15 542.895C1429.65 544.032 1431.61 545.615 1433.03 547.645C1434.46 549.661 1435.19 551.979 1435.24 554.6H1427.12ZM1500.68 554.6C1500.47 552.615 1499.58 551.07 1498 549.964C1496.44 548.858 1494.41 548.305 1491.91 548.305C1490.15 548.305 1488.65 548.57 1487.39 549.1C1486.13 549.63 1485.17 550.35 1484.5 551.259C1483.84 552.168 1483.5 553.206 1483.48 554.373C1483.48 555.342 1483.7 556.183 1484.14 556.895C1484.59 557.608 1485.21 558.214 1485.98 558.714C1486.75 559.199 1487.61 559.608 1488.55 559.941C1489.49 560.274 1490.43 560.555 1491.39 560.782L1495.75 561.873C1497.51 562.282 1499.2 562.835 1500.82 563.532C1502.46 564.229 1503.92 565.108 1505.21 566.168C1506.51 567.229 1507.54 568.509 1508.3 570.009C1509.06 571.509 1509.43 573.267 1509.43 575.282C1509.43 578.009 1508.74 580.411 1507.34 582.486C1505.95 584.547 1503.93 586.161 1501.3 587.327C1498.68 588.479 1495.5 589.055 1491.78 589.055C1488.15 589.055 1485.01 588.494 1482.34 587.373C1479.69 586.252 1477.62 584.615 1476.12 582.464C1474.63 580.312 1473.83 577.691 1473.71 574.6H1482C1482.12 576.221 1482.62 577.57 1483.5 578.645C1484.38 579.721 1485.53 580.524 1486.93 581.055C1488.36 581.585 1489.95 581.85 1491.71 581.85C1493.54 581.85 1495.15 581.577 1496.53 581.032C1497.92 580.471 1499.01 579.699 1499.8 578.714C1500.59 577.714 1500.99 576.547 1501 575.214C1500.99 574.002 1500.63 573.002 1499.93 572.214C1499.24 571.411 1498.26 570.744 1497 570.214C1495.76 569.668 1494.31 569.183 1492.64 568.759L1487.34 567.395C1483.51 566.411 1480.48 564.918 1478.25 562.918C1476.04 560.903 1474.93 558.229 1474.93 554.895C1474.93 552.153 1475.68 549.752 1477.16 547.691C1478.66 545.63 1480.7 544.032 1483.28 542.895C1485.85 541.744 1488.77 541.168 1492.03 541.168C1495.33 541.168 1498.22 541.744 1500.71 542.895C1503.21 544.032 1505.17 545.615 1506.59 547.645C1508.02 549.661 1508.75 551.979 1508.8 554.6H1500.68ZM1557.38 541.805V588.35H1548.95V541.805H1557.38ZM1598.51 588.35V541.805H1628.33V548.873H1606.95V561.509H1626.29V568.577H1606.95V588.35H1598.51ZM1664.83 541.805H1674.36L1685.74 562.395H1686.2L1697.58 541.805H1707.11L1690.17 570.986V588.35H1681.76V570.986L1664.83 541.805ZM899.416 565.194L897.816 572.362H904.792L903.128 565.194L908.824 570.186L912.28 564.234L905.048 561.994L912.28 559.818L908.824 553.866L903.128 558.858L904.792 551.69H897.816L899.416 558.858L893.784 553.866L890.264 559.818L897.56 561.994L890.264 564.234L893.784 570.186L899.416 565.194ZM957.604 565.194L956.004 572.362H962.98L961.316 565.194L967.012 570.186L970.468 564.234L963.236 561.994L970.468 559.818L967.012 553.866L961.316 558.858L962.98 551.69H956.004L957.604 558.858L951.972 553.866L948.452 559.818L955.748 561.994L948.452 564.234L951.972 570.186L957.604 565.194ZM1015.79 565.194L1014.19 572.362H1021.17L1019.5 565.194L1025.2 570.186L1028.66 564.234L1021.42 561.994L1028.66 559.818L1025.2 553.866L1019.5 558.858L1021.17 551.69H1014.19L1015.79 558.858L1010.16 553.866L1006.64 559.818L1013.94 561.994L1006.64 564.234L1010.16 570.186L1015.79 565.194Z" fill="url(#paint1_linear_7901_3)"/>
<defs>
<linearGradient id="paint0_linear_7901_3" x1="0" y1="540" x2="2435.5" y2="540" gradientUnits="userSpaceOnUse">
<stop stop-color="#09090A"/>
<stop offset="0.375" stop-color="#181719"/>
<stop offset="1" stop-color="#36343B"/>
<stop offset="1" stop-color="#39363D"/>
</linearGradient>
<linearGradient id="paint1_linear_7901_3" x1="854.872" y1="473.409" x2="1968.06" y2="473.409" gradientUnits="userSpaceOnUse">
<stop offset="0.251308" stop-color="#616161"/>
<stop offset="0.623787" stop-color="#0891B2"/>
<stop offset="1" stop-color="#155E75"/>
</linearGradient>
</defs>
</svg>
